<?xml version="1.0" encoding="utf-8"?>
<!-- Generator: Adobe Illustrator 24.1.0, SVG Export Plug-In . SVG Version: 6.00 Build 0)  -->
<svg version="1.1" id="Layer_1" xmlns="http://www.w3.org/2000/svg" xmlns:xlink="http://www.w3.org/1999/xlink" x="0px" y="0px"
	 viewBox="0 0 1578.08 784.65" style="enable-background:new 0 0 1578.08 784.65;" xml:space="preserve">
<style type="text/css">
	.st0{fill:#F2F2F2;}
	.st1{fill:none;stroke:#AD1520;stroke-width:5;stroke-linecap:round;stroke-miterlimit:10;}
	.st2{fill:none;stroke:#9C9C9C;stroke-width:2.5;stroke-miterlimit:10;}
	.st3{fill:none;stroke:#DA9193;stroke-width:4;stroke-linecap:round;stroke-miterlimit:10;}
	.st4{fill:none;stroke:#F7DFE0;stroke-width:4;stroke-linecap:round;stroke-miterlimit:10;}
	.st5{fill:none;stroke:#AD1520;stroke-width:4;stroke-linecap:round;stroke-miterlimit:10;}
	.st6{fill:none;stroke:#620012;stroke-width:2;stroke-miterlimit:10;}
</style>
<rect x="577.82" y="73.65" class="st0" width="504" height="648"/>
<path class="st1" d="M75.72,152.6"/>
<rect x="73.44" y="72.81" class="st2" width="1440.83" height="645.18"/>
<path class="st3" d="M145.82,649.65c81.53,0,81.53-324,244.59-324s152.87,324,244.59,324s91.72-270,244.59-270
	s203.82,270,326.12,270c86.37,0,81.24-188.54,164.12-299.31"/>
<path class="st4" d="M1540.82,450.11"/>
<path class="st4" d="M145.82,649.65c92.92,0,92.92-216,278.76-216s174.22,216,278.76,216s104.53-180,278.76-180
	s232.3,180,371.68,180c5.68,0,11.02-0.42,16.05-1.22"/>
<path class="st5" d="M145.82,649.65c72,0,72-432,216-432s135,432,216,432s81-360,216-360s180,360,288,360s54-504,288-504"/>
<circle class="st6" cx="982.82" cy="469.65" r="9"/>
<circle class="st6" cx="883.82" cy="379.65" r="9"/>
<circle class="st6" cx="793.82" cy="289.65" r="9"/>
</svg>
