<?xml version="1.0" encoding="utf-8"?>
<!-- Generator: Adobe Illustrator 24.1.0, SVG Export Plug-In . SVG Version: 6.00 Build 0)  -->
<svg version="1.1" id="Layer_1" xmlns="http://www.w3.org/2000/svg" xmlns:xlink="http://www.w3.org/1999/xlink" x="0px" y="0px"
	 viewBox="0 0 1578.08 1578.08" style="enable-background:new 0 0 1578.08 1578.08;" xml:space="preserve">
<style type="text/css">
	.st0{fill:none;stroke:#F0A4A4;stroke-width:3;stroke-miterlimit:10;}
	.st1{fill:none;stroke:#F0A4A4;stroke-width:0.5;stroke-miterlimit:10;}
	.st2{opacity:0.14;}
	.st3{fill:#CB3436;}
	.st4{fill:#EC797A;}
	.st5{opacity:0.14;fill:#620012;}
	.st6{fill:#AD1520;}
	.st7{fill:#620012;}
</style>
<g>
	<path class="st0" d="M979.11,735.82c-1.27-10.42-4.22-167.62-4.22-167.62l-67.28,111.22L979.11,735.82z"/>
	<line class="st0" x1="810.36" y1="1135.39" x2="623.68" y2="1078"/>
	<polygon class="st0" points="720.63,522.06 791.33,432.51 596.62,507.3 	"/>
	<polygon class="st0" points="554.93,1014.52 533.79,908.38 432.91,849.95 	"/>
	<line class="st0" x1="623.68" y1="1078" x2="726.98" y2="1075.43"/>
	<line class="st0" x1="810.36" y1="1135.39" x2="726.98" y2="1075.43"/>
	<line class="st0" x1="1127.61" y1="618.7" x2="1018.27" y2="517.12"/>
	<polygon class="st0" points="1113.57,924.24 1124.8,752.43 1076.4,867.06 	"/>
	<polygon class="st0" points="962.38,1115.2 810.36,1135.39 940.88,985.11 	"/>
	<polyline class="st0" points="1124.8,752.43 1127.61,618.7 979.11,735.82 	"/>
	<polyline class="st0" points="894.53,592.28 791.33,432.51 903.41,488.32 	"/>
	<polyline class="st0" points="907.61,679.41 894.53,592.28 724.16,681.04 	"/>
	<polyline class="st0" points="747.06,998.63 742.47,868.65 660.55,977.76 	"/>
	<polygon class="st0" points="1056.83,1019.5 1113.57,924.24 1000.31,898.75 	"/>
	<polyline class="st0" points="660.55,977.76 747.06,998.63 623.68,1078 	"/>
	<polyline class="st0" points="635.66,841.99 498.79,779.15 573.21,681.14 	"/>
	<polygon class="st0" points="432.91,849.95 533.79,908.38 498.79,779.15 	"/>
	<polygon class="st0" points="498.79,779.15 479.92,630.3 432.91,849.95 	"/>
	<polygon class="st0" points="573.21,681.14 479.92,630.3 596.62,507.3 	"/>
	<polygon class="st0" points="724.16,681.04 796.44,582.56 649.25,601.9 	"/>
	<polygon class="st0" points="835.07,920.2 742.47,868.65 921.23,859.63 	"/>
	<path class="st0" d="M921.23,859.63c-0.16-6.23,57.87-123.82,57.87-123.82l-132.73,36.11L921.23,859.63z"/>
	<polygon class="st0" points="921.23,859.63 1000.31,898.75 1047.94,795.33 	"/>
	<polygon class="st0" points="851.41,774.51 907.61,679.41 724.16,681.04 	"/>
	<polygon class="st0" points="533.79,908.38 635.66,841.99 660.55,977.76 	"/>
	<polygon class="st0" points="1124.8,752.43 979.11,735.82 1047.94,795.33 	"/>
	<polyline class="st0" points="962.33,1115.2 1056.76,1019.5 934.53,977.75 962.33,1115.2 	"/>
	<polyline class="st0" points="810.27,1135.39 865.09,1054.81 746.98,998.63 810.27,1135.39 	"/>
	<polyline class="st0" points="726.91,1075.43 865.09,1054.81 834.98,920.2 726.91,1075.43 	"/>
	<polyline class="st0" points="623.63,1078 660.49,977.76 554.86,1014.52 623.63,1078 	"/>
	<polyline class="st0" points="573.12,681.14 635.58,841.99 717.78,775.58 573.12,681.14 	"/>
	<polyline class="st0" points="573.12,681.14 724.07,681.04 717.78,775.58 	"/>
	<polyline class="st1" points="649.2,601.9 720.68,522 596.53,507.3 649.2,601.9 	"/>
	<polyline class="st0" points="791.37,432.46 796.39,582.56 720.68,522 791.37,432.46 	"/>
	<line class="st0" x1="894.58" y1="592.23" x2="903.45" y2="488.28"/>
	<polyline class="st0" points="974.95,568.14 1018.22,517.12 903.45,488.28 974.95,568.14 	"/>
	<polyline class="st0" points="1127.57,618.7 1042.34,658.51 974.95,568.14 1127.57,618.7 	"/>
	<polygon class="st0" points="851.41,774.51 742.42,868.65 717.78,775.58 	"/>
	<g class="st2">
		<path class="st3" d="M1006.77,835.04c-12.46,5.83-27.29,0.45-33.12-12.01c-12.82-30.49,29.95-50.49,45.13-21.12
			C1024.61,814.38,1019.23,829.21,1006.77,835.04z"/>
	</g>
	<g class="st2">
		<path class="st4" d="M930.18,890.96c-9.24,4.32-20.23,0.34-24.55-8.9c-9.5-22.6,22.2-37.42,33.45-15.65
			C943.4,875.65,939.41,886.64,930.18,890.96z"/>
	</g>
	<g class="st2">
		<path class="st4" d="M690.22,872.09c-9.24,4.32-20.23,0.34-24.55-8.9c-9.5-22.6,22.2-37.42,33.45-15.65
			C703.44,856.77,699.46,867.76,690.22,872.09z"/>
	</g>
	<g class="st2">
		<path class="st3" d="M739.05,970.38c-12.46,5.83-27.29,0.45-33.12-12.01c-12.82-30.49,29.95-50.49,45.13-21.12
			C756.89,949.72,751.51,964.55,739.05,970.38z"/>
	</g>
	<g class="st2">
		<path class="st3" d="M721.3,788.73c-12.46,5.83-27.29,0.45-33.12-12.01c-12.82-30.49,29.95-50.49,45.13-21.12
			C739.14,768.07,733.77,782.9,721.3,788.73z"/>
	</g>
	<g class="st2">
		<path class="st3" d="M850.61,1101.52c-12.46,5.83-27.29,0.45-33.12-12.01c-12.82-30.49,29.95-50.49,45.13-21.12
			C868.45,1080.86,863.07,1095.69,850.61,1101.52z"/>
	</g>
	<path class="st5" d="M929.78,1011.76c-17.58,8.23-38.51,0.64-46.73-16.94c-18.08-43.02,42.25-71.23,63.68-29.79
		C954.95,982.61,947.37,1003.53,929.78,1011.76z"/>
	<path class="st5" d="M1099.41,809.95c-17.58,8.23-38.51,0.64-46.73-16.94c-18.08-43.02,42.25-71.23,63.68-29.79
		C1124.58,780.8,1116.99,801.72,1099.41,809.95z"/>
	<g class="st2">
		<path class="st3" d="M534.38,749.91c-12.46,5.83-27.29,0.45-33.12-12.01c-12.82-30.49,29.95-50.49,45.13-21.12
			C552.22,729.25,546.84,744.08,534.38,749.91z"/>
	</g>
	<path class="st5" d="M596.49,874.03c-17.58,8.23-38.51,0.64-46.73-16.94c-18.08-43.02,42.25-71.23,63.68-29.79
		C621.65,844.88,614.07,865.8,596.49,874.03z"/>
	<path class="st5" d="M627.01,724.82c-17.58,8.23-38.51,0.64-46.73-16.94c-18.08-43.02,42.25-71.23,63.68-29.79
		C652.18,695.67,644.6,716.59,627.01,724.82z"/>
	<path class="st5" d="M724.4,1080.57c-17.58,8.23-38.51,0.64-46.73-16.94c-18.08-43.02,42.25-71.23,63.68-29.79
		C749.57,1051.42,741.98,1072.34,724.4,1080.57z"/>
	<g class="st2">
		<path class="st6" d="M819.13,960.32c-14.84,6.94-32.5,0.54-39.44-14.3c-15.26-36.3,35.66-60.11,53.74-25.14
			C840.37,935.71,833.97,953.37,819.13,960.32z"/>
	</g>
	<g class="st2">
		<path class="st3" d="M799.36,868.83c-12.46,5.83-27.29,0.45-33.12-12.01c-12.82-30.49,29.95-50.49,45.13-21.12
			C817.2,848.17,811.83,863,799.36,868.83z"/>
	</g>
	<g class="st2">
		<path class="st3" d="M689.36,572.21c13.12,4.16,20.38,18.16,16.22,31.28c-11.23,31.11-56.23,16.84-47.5-15.05
			C662.24,575.32,676.24,568.06,689.36,572.21z"/>
	</g>
	<path class="st5" d="M727.78,438.85c18.51,5.86,28.75,25.62,22.89,44.13c-15.85,43.89-79.34,23.76-67.02-21.24
		C689.52,443.23,709.27,432.99,727.78,438.85z"/>
	<g class="st2">
		<path class="st4" d="M783.58,582.99c9.72,3.08,15.11,13.46,12.02,23.18c-8.33,23.06-41.68,12.48-35.21-11.16
			C763.48,585.29,773.86,579.91,783.58,582.99z"/>
	</g>
	<g class="st2">
		<path class="st4" d="M947.27,759.46c9.72,3.08,15.11,13.46,12.02,23.18c-8.33,23.06-41.68,12.48-35.2-11.16
			C927.17,761.76,937.54,756.38,947.27,759.46z"/>
	</g>
	<g class="st2">
		<path class="st3" d="M977.96,654.08c13.12,4.16,20.38,18.16,16.22,31.28c-11.23,31.11-56.23,16.84-47.5-15.05
			C950.84,657.19,964.84,649.92,977.96,654.08z"/>
	</g>
	<g class="st2">
		<path class="st3" d="M867.93,799.7c13.12,4.16,20.38,18.16,16.22,31.28c-11.23,31.11-56.23,16.84-47.5-15.05
			C840.81,802.81,854.81,795.54,867.93,799.7z"/>
	</g>
	<g class="st2">
		<path class="st3" d="M592.91,950.76c13.12,4.16,20.38,18.16,16.22,31.28c-11.23,31.11-56.23,16.84-47.5-15.05
			C565.79,953.87,579.79,946.61,592.91,950.76z"/>
	</g>
	<path class="st5" d="M865.72,494.41c18.51,5.86,28.75,25.62,22.89,44.13c-15.85,43.89-79.34,23.76-67.02-21.24
		C827.46,498.8,847.21,488.55,865.72,494.41z"/>
	<path class="st5" d="M604.23,527.9c18.51,5.86,28.75,25.62,22.89,44.13c-15.85,43.89-79.34,23.76-67.02-21.24
		C565.96,532.29,585.72,522.04,604.23,527.9z"/>
	<path class="st5" d="M1063.39,582.97c18.51,5.86,28.75,25.62,22.89,44.13c-15.85,43.89-79.34,23.76-67.02-21.24
		C1025.13,587.36,1044.88,577.11,1063.39,582.97z"/>
	<g class="st2">
		<path class="st6" d="M912.24,607.23c15.62,4.95,24.27,21.62,19.32,37.24c-13.38,37.04-66.96,20.05-56.56-17.92
			C879.95,610.93,896.63,602.28,912.24,607.23z"/>
	</g>
	<g class="st2">
		<path class="st3" d="M864.79,687.9c13.12,4.16,20.38,18.16,16.22,31.28c-11.23,31.11-56.23,16.84-47.5-15.05
			C837.67,691.01,851.67,683.75,864.79,687.9z"/>
	</g>
	<g class="st2">
		<path class="st3" d="M759.53,660.67c13.12,4.16,20.38,18.16,16.22,31.28c-11.23,31.11-56.23,16.84-47.5-15.05
			C732.41,663.78,746.41,656.52,759.53,660.67z"/>
	</g>
	<path class="st7" d="M631.68,507.3c0,19.41-15.74,35.15-35.15,35.15c-46.63-1.85-46.61-68.46,0-70.3
		C615.94,472.15,631.68,487.88,631.68,507.3z"/>
	<path class="st4" d="M814.85,582.56c0,10.2-8.27,18.47-18.47,18.47c-24.49-0.97-24.49-35.96,0-36.93
		C806.59,564.09,814.85,572.36,814.85,582.56z"/>
	<path class="st4" d="M1018.73,898.75c0,10.2-8.27,18.47-18.47,18.47c-24.49-0.97-24.49-35.96,0-36.93
		C1010.46,880.29,1018.73,888.56,1018.73,898.75z"/>
	<path class="st4" d="M667.66,601.9c0,10.2-8.27,18.47-18.47,18.47c-24.49-0.97-24.49-35.96,0-36.93
		C659.4,583.43,667.66,591.7,667.66,601.9z"/>
	<path class="st4" d="M1131.99,924.24c0,10.2-8.27,18.47-18.46,18.47c-24.49-0.97-24.49-35.96,0-36.93
		C1123.72,905.77,1131.99,914.04,1131.99,924.24z"/>
	<path class="st6" d="M665.24,841.99c0,16.38-13.28,29.66-29.66,29.66c-39.35-1.56-39.34-57.77,0-59.33
		C651.96,812.33,665.24,825.61,665.24,841.99z"/>
	<path class="st3" d="M742.69,775.58c0,13.76-11.15,24.91-24.91,24.91c-33.05-1.31-33.04-48.52,0-49.83
		C731.54,750.67,742.69,761.82,742.69,775.58z"/>
	<path class="st3" d="M523.64,779.15c0,13.76-11.15,24.91-24.91,24.91c-33.05-1.31-33.04-48.52,0-49.83
		C512.49,754.23,523.64,765.39,523.64,779.15z"/>
	<path class="st7" d="M608.27,681.14c0,19.41-15.74,35.15-35.15,35.15c-46.63-1.85-46.61-68.46,0-70.3
		C592.53,645.99,608.27,661.73,608.27,681.14z"/>
	<path class="st7" d="M881.43,771.92c0,19.41-15.74,35.15-35.15,35.15c-46.63-1.85-46.61-68.46,0-70.3
		C865.7,736.77,881.43,752.51,881.43,771.92z"/>
	<path class="st7" d="M1091.88,1019.5c0,19.41-15.74,35.15-35.15,35.15c-46.63-1.85-46.61-68.46,0-70.3
		C1076.15,984.35,1091.88,1000.08,1091.88,1019.5z"/>
	<path class="st7" d="M1163.59,618.68c0,19.41-15.74,35.15-35.15,35.15c-46.63-1.85-46.61-68.46,0-70.3
		C1147.85,583.53,1163.59,599.27,1163.59,618.68z"/>
	<path class="st4" d="M1066.36,795.33c0,10.2-8.27,18.47-18.47,18.47c-24.49-0.97-24.49-35.96,0-36.93
		C1058.09,776.86,1066.36,785.13,1066.36,795.33z"/>
	<path class="st4" d="M760.88,868.65c0,10.2-8.27,18.47-18.47,18.47c-24.49-0.97-24.49-35.96,0-36.93
		C752.62,850.19,760.88,858.46,760.88,868.65z"/>
	<path class="st4" d="M939.65,859.63c0,10.2-8.27,18.47-18.47,18.47c-24.49-0.97-24.49-35.96,0-36.93
		C931.38,841.17,939.65,849.43,939.65,859.63z"/>
	<path class="st4" d="M642.1,1078c0,10.2-8.27,18.47-18.47,18.47c-24.49-0.97-24.49-35.96,0-36.93
		C633.83,1059.53,642.1,1067.8,642.1,1078z"/>
	<path class="st4" d="M498.33,630.3c0,10.2-8.27,18.47-18.47,18.47c-24.49-0.97-24.49-35.96,0-36.93
		C490.06,611.84,498.33,620.1,498.33,630.3z"/>
	<path class="st3" d="M890.01,1054.81c0,13.76-11.15,24.91-24.91,24.91c-33.05-1.31-33.04-48.52,0-49.83
		C878.85,1029.9,890.01,1041.06,890.01,1054.81z"/>
	<path class="st3" d="M751.83,1075.43c0,13.76-11.15,24.91-24.91,24.91c-33.05-1.31-33.04-48.52,0-49.83
		C740.67,1050.51,751.83,1061.67,751.83,1075.43z"/>
	<path class="st3" d="M579.77,1014.52c0,13.76-11.15,24.91-24.91,24.91c-33.05-1.31-33.04-48.52,0-49.83
		C568.62,989.61,579.77,1000.76,579.77,1014.52z"/>
	<path class="st7" d="M870.13,920.2c0,19.41-15.74,35.15-35.15,35.15c-46.63-1.85-46.61-68.46,0-70.3
		C854.39,885.05,870.13,900.79,870.13,920.2z"/>
	<path class="st7" d="M759.22,681.04c0,19.41-15.74,35.15-35.15,35.15c-46.63-1.85-46.61-68.46,0-70.3
		C743.48,645.89,759.22,661.63,759.22,681.04z"/>
	<path class="st7" d="M845.42,1135.39c0,19.41-15.74,35.15-35.15,35.15c-46.63-1.85-46.61-68.46,0-70.3
		C829.68,1100.24,845.42,1115.98,845.42,1135.39z"/>
	<path class="st4" d="M997.52,735.82c0,10.2-8.27,18.47-18.47,18.47c-24.49-0.97-24.49-35.96,0-36.93
		C989.26,717.35,997.52,725.62,997.52,735.82z"/>
	<path class="st4" d="M980.8,1115.2c0,10.2-8.27,18.47-18.47,18.47c-24.49-0.97-24.49-35.96,0-36.93
		C972.53,1096.74,980.8,1105.01,980.8,1115.2z"/>
	<path class="st4" d="M1036.69,517.12c0,10.2-8.27,18.47-18.47,18.47c-24.49-0.97-24.49-35.96,0-36.93
		C1028.42,498.66,1036.69,506.93,1036.69,517.12z"/>
	<path class="st4" d="M451.32,849.95c0,10.2-8.27,18.47-18.47,18.47c-24.49-0.97-24.49-35.96,0-36.93
		C443.06,831.48,451.32,839.75,451.32,849.95z"/>
	<path class="st4" d="M1063.94,968.09c0,10.2-8.27,18.47-18.47,18.47c-24.49-0.97-24.49-35.96,0-36.93
		C1055.67,949.63,1063.94,957.89,1063.94,968.09z"/>
	<path class="st6" d="M970.47,985.11c0,16.38-13.28,29.66-29.66,29.66c-39.35-1.56-39.34-57.77,0-59.33
		C957.19,955.45,970.47,968.73,970.47,985.11z"/>
	<path class="st4" d="M918.12,477.08c6.19,8.1,4.64,19.69-3.47,25.88c-20.06,14.09-41.29-13.72-22.41-29.35
		C900.35,467.42,911.93,468.97,918.12,477.08z"/>
	<path class="st6" d="M998.52,550.13c9.94,13.02,7.45,31.64-5.57,41.58c-32.22,22.64-66.33-22.04-36.01-47.15
		C969.96,534.62,988.58,537.11,998.52,550.13z"/>
	<path class="st3" d="M914.38,577.11c8.35,10.94,6.26,26.57-4.68,34.92c-27.06,19.01-55.71-18.51-30.24-39.6
		C890.39,564.08,906.03,566.17,914.38,577.11z"/>
	<path class="st6" d="M744.26,503.99c9.94,13.02,7.45,31.64-5.57,41.58c-32.22,22.64-66.33-22.04-36.01-47.15
		C715.7,488.48,734.32,490.97,744.26,503.99z"/>
	<path class="st3" d="M927.45,664.24c8.35,10.94,6.26,26.57-4.68,34.92c-27.06,19.01-55.71-18.51-30.24-39.6
		C903.47,651.21,919.1,653.31,927.45,664.24z"/>
	<path class="st3" d="M811.17,417.34c8.35,10.94,6.26,26.57-4.68,34.92c-27.06,19.01-55.71-18.51-30.24-39.6
		C787.19,404.31,802.82,406.4,811.17,417.34z"/>
	<path class="st6" d="M776.64,998.63c0,16.38-13.28,29.66-29.66,29.66c-39.35-1.56-39.34-57.77,0-59.33
		C763.36,968.96,776.64,982.25,776.64,998.63z"/>
	<path class="st6" d="M1068.56,672.39c-7.67,14.48-25.62,20-40.1,12.34c-34.04-19.79-7.74-69.46,27.76-52.43
		C1070.7,639.96,1076.22,657.91,1068.56,672.39z"/>
	<path class="st3" d="M1098.44,878.74c-6.44,12.16-21.52,16.8-33.68,10.36c-28.59-16.62-6.5-58.34,23.31-44.04
		C1100.23,851.5,1104.87,866.58,1098.44,878.74z"/>
	<path class="st3" d="M1146.83,764.1c-6.44,12.16-21.52,16.8-33.68,10.36c-28.59-16.62-6.5-58.34,23.31-44.04
		C1148.63,736.86,1153.27,751.94,1146.83,764.1z"/>
	<path class="st3" d="M685.4,977.76c0,13.76-11.15,24.91-24.91,24.91c-33.05-1.31-33.04-48.52,0-49.83
		C674.25,952.85,685.4,964,685.4,977.76z"/>
	<path class="st7" d="M568.85,908.38c0,19.41-15.74,35.15-35.15,35.15c-46.63-1.85-46.61-68.46,0-70.3
		C553.11,873.23,568.85,888.96,568.85,908.38z"/>
	<path class="st5" d="M1068.88,959.16c-17.58,8.23-38.51,0.64-46.73-16.94c-18.08-43.02,42.25-71.23,63.68-29.79
		C1094.05,930.01,1086.46,950.93,1068.88,959.16z"/>
	<path class="st3" d="M554.93,1014.52"/>
</g>
</svg>
