<?xml version="1.0" encoding="utf-8"?>
<!-- Generator: Adobe Illustrator 24.1.0, SVG Export Plug-In . SVG Version: 6.00 Build 0)  -->
<svg version="1.1" id="Layer_1" xmlns="http://www.w3.org/2000/svg" xmlns:xlink="http://www.w3.org/1999/xlink" x="0px" y="0px"
	 viewBox="0 0 1578.08 1578.08" style="enable-background:new 0 0 1578.08 1578.08;" xml:space="preserve">
<style type="text/css">
	.st0{fill:#F8F6ED;stroke:#020202;stroke-width:15;stroke-miterlimit:10;}
	.st1{fill:#1E1E1E;}
	.st2{fill:#AD1520;stroke:#F8F6ED;stroke-width:18;stroke-miterlimit:10;}
	.st3{font-family:'STIXGeneral-Regular';}
	.st4{font-size:69.3405px;}
	.st5{fill:none;stroke:#F0A4A4;stroke-width:3;stroke-miterlimit:10;}
	.st6{fill:none;stroke:#F0A4A4;stroke-width:0.5;stroke-miterlimit:10;}
	.st7{opacity:0.14;}
	.st8{fill:#CB3436;}
	.st9{fill:#EC797A;}
	.st10{opacity:0.14;fill:#620012;}
	.st11{fill:#AD1520;}
	.st12{fill:#620012;}
</style>
<g>
	<rect x="7.5" y="7.5" class="st0" width="1563.08" height="1563.08"/>
	<g>
		<path class="st1" d="M531.17,411.91l51.99,174.83h0.92l57.97-174.83h30.37l58.89,174.83h0.92l51.53-174.83h33.13l-68.09,215.32
			h-34.05l-57.51-174.37h-0.92l-56.59,174.37h-34.05l-68.09-215.32H531.17z"/>
		<path class="st1" d="M1025.3,461.14c-5.22-8.28-12.81-15.1-22.77-20.47c-9.97-5.36-20.78-8.05-32.44-8.05
			c-12.58,0-23.92,2.23-34.05,6.67c-10.12,4.45-18.79,10.58-26,18.4c-7.21,7.82-12.73,17.02-16.56,27.61
			c-3.84,10.58-5.75,22.01-5.75,34.28c0,12.27,1.91,23.62,5.75,34.05c3.83,10.43,9.27,19.55,16.33,27.37
			c7.05,7.82,15.64,13.96,25.76,18.4c10.12,4.45,21.47,6.67,34.05,6.67c13.8,0,25.46-2.6,34.97-7.82
			c9.5-5.21,17.33-11.96,23.47-20.24l23.46,17.48c-9.2,11.35-20.47,20.4-33.82,27.14c-13.34,6.74-29.37,10.12-48.08,10.12
			c-17.48,0-33.28-2.84-47.39-8.51c-14.11-5.67-26.15-13.57-36.12-23.7c-9.97-10.12-17.71-22.08-23.23-35.88
			c-5.52-13.8-8.28-28.83-8.28-45.09c0-16.26,2.76-31.29,8.28-45.09c5.52-13.8,13.26-25.77,23.23-35.89
			c9.96-10.12,22.01-18.02,36.12-23.69c14.1-5.67,29.91-8.51,47.39-8.51c14.41,0,29.06,3.15,43.94,9.43
			c14.87,6.29,26.91,15.57,36.12,27.83L1025.3,461.14z"/>
		<path class="st1" d="M1099.84,436.76c-0.31-9.2-0.77-17.48-1.38-24.85h29.91c0.61,5.83,1.07,12.27,1.38,19.32
			c0.3,7.06,0.46,12.88,0.46,17.48h0.92c6.13-12.57,15.33-22.77,27.61-30.59c12.26-7.82,26.07-11.73,41.41-11.73
			c3.98,0,7.59,0.16,10.81,0.46c3.22,0.31,6.51,0.92,9.89,1.84l-4.14,29.91c-1.84-0.61-4.91-1.22-9.2-1.84
			c-4.3-0.61-8.59-0.92-12.88-0.92c-8.28,0-16.26,1.53-23.92,4.59c-7.67,3.06-14.34,7.88-20.02,14.46
			c-5.68,6.58-10.28,14.99-13.8,25.24c-3.53,10.25-5.29,22.57-5.29,36.95v110.15h-31.29V459.3
			C1100.3,453.48,1100.14,445.96,1099.84,436.76z"/>
		<path class="st1" d="M1422.35,627.23c-0.62-5.82-1.08-12.26-1.38-19.32c-0.31-7.05-0.46-12.88-0.46-17.48h-0.92
			c-6.14,12.58-16.1,22.77-29.91,30.6c-13.8,7.82-28.38,11.73-43.71,11.73c-27.3,0-47.78-8.12-61.42-24.38
			c-13.65-16.26-20.47-37.73-20.47-64.41V411.91h31.29v119.16c0,11.35,0.92,21.62,2.76,30.83c1.84,9.2,4.98,17.1,9.43,23.69
			c4.44,6.6,10.42,11.73,17.94,15.41c7.51,3.68,16.94,5.52,28.3,5.52c8.28,0,16.33-1.68,24.15-5.06c7.82-3.37,14.8-8.51,20.93-15.41
			c6.13-6.9,11.04-15.64,14.72-26.22c3.68-10.58,5.52-23.08,5.52-37.5V411.91h31.29v167.93c0,5.83,0.15,13.34,0.46,22.55
			c0.3,9.2,0.76,17.48,1.38,24.84H1422.35z"/>
		<path class="st1" d="M155.73,361.65c0.61,5.83,1.07,12.27,1.38,19.32c0.3,7.06,0.46,12.88,0.46,17.48h0.92
			c6.13-12.57,16.1-22.77,29.91-30.59c13.8-7.82,28.37-11.73,43.71-11.73c27.3,0,47.77,8.13,61.42,24.39
			c13.64,16.26,20.47,37.73,20.47,64.41v132.04h-31.29V457.8c0-11.34-0.92-21.62-2.76-30.83c-1.84-9.2-4.99-17.1-9.43-23.69
			c-4.45-6.59-10.43-11.73-17.94-15.41c-7.52-3.68-16.95-5.52-28.3-5.52c-8.28,0-16.33,1.69-24.15,5.06
			c-7.82,3.38-14.8,8.51-20.93,15.41c-6.14,6.9-11.04,15.64-14.72,26.22c-3.68,10.58-5.52,23.08-5.52,37.5v110.42h-31.29V409.04
			c0-5.82-0.16-13.34-0.46-22.54c-0.31-9.2-0.77-17.48-1.38-24.85H155.73z"/>
		<path class="st1" d="M441.03,691.87c-0.62-5.82-1.08-12.26-1.38-19.32c-0.31-7.05-0.46-12.88-0.46-17.48h-0.92
			c-6.14,12.58-16.1,22.77-29.91,30.6c-13.8,7.82-28.38,11.73-43.71,11.73c-27.3,0-47.78-8.12-61.42-24.38
			c-13.65-16.26-20.47-37.73-20.47-64.41V476.55h31.29v119.16c0,11.35,0.92,21.62,2.76,30.83c1.84,9.2,4.98,17.1,9.43,23.69
			c4.44,6.6,10.42,11.73,17.94,15.41c7.51,3.68,16.94,5.52,28.3,5.52c8.28,0,16.33-1.68,24.15-5.06c7.82-3.37,14.8-8.51,20.93-15.41
			c6.13-6.9,11.04-15.64,14.72-26.22c3.68-10.58,5.52-23.08,5.52-37.5c0,0,0-101.11,0-110.42c14.83,0,17.46,0,31.29,0
			c0,10.21,0,167.93,0,167.93c0,5.83,0.15,13.34,0.46,22.55c0.3,9.2,0.76,17.48,1.38,24.84H441.03z"/>
		<circle class="st2" cx="365.2" cy="681.08" r="31.71"/>
		<circle class="st2" cx="227.98" cy="371.84" r="31.71"/>
	</g>
	<text transform="matrix(1.0203 0 0 1 283.8401 190.3201)" class="st3 st4">Nunavut Wildlife Coop Research Unit</text>
	<g>
		<path class="st5" d="M916.97,1086.63c-0.88-7.22-2.93-116.23-2.93-116.23l-46.65,77.12L916.97,1086.63z"/>
		<line class="st5" x1="799.96" y1="1363.69" x2="670.51" y2="1323.9"/>
		<polygon class="st5" points="737.73,938.41 786.76,876.31 651.75,928.17 		"/>
		<polygon class="st5" points="622.84,1279.88 608.18,1206.28 538.23,1165.77 		"/>
		<line class="st5" x1="670.51" y1="1323.9" x2="742.14" y2="1322.11"/>
		<line class="st5" x1="799.96" y1="1363.69" x2="742.14" y2="1322.11"/>
		<line class="st5" x1="1019.94" y1="1005.42" x2="944.12" y2="934.99"/>
		<polygon class="st5" points="1010.2,1217.28 1017.99,1098.15 984.43,1177.63 		"/>
		<polygon class="st5" points="905.37,1349.7 799.96,1363.69 890.46,1259.49 		"/>
		<polyline class="st5" points="1017.99,1098.15 1019.94,1005.42 916.97,1086.63 		"/>
		<polyline class="st5" points="858.32,987.1 786.76,876.31 864.48,915.01 		"/>
		<polyline class="st5" points="867.39,1047.52 858.32,987.1 740.19,1048.64 		"/>
		<polyline class="st5" points="756.06,1268.86 752.88,1178.74 696.08,1254.39 		"/>
		<polygon class="st5" points="970.86,1283.33 1010.2,1217.28 931.67,1199.61 		"/>
		<polyline class="st5" points="696.08,1254.39 756.06,1268.86 670.51,1323.9 		"/>
		<polyline class="st5" points="678.82,1160.25 583.91,1116.67 635.52,1048.72 		"/>
		<polygon class="st5" points="538.23,1165.77 608.18,1206.28 583.91,1116.67 		"/>
		<polygon class="st5" points="583.91,1116.67 570.82,1013.46 538.23,1165.77 		"/>
		<polygon class="st5" points="635.52,1048.72 570.82,1013.46 651.75,928.17 		"/>
		<polygon class="st5" points="740.19,1048.64 790.3,980.36 688.24,993.77 		"/>
		<polygon class="st5" points="817.09,1214.48 752.88,1178.74 876.84,1172.48 		"/>
		<path class="st5" d="M876.84,1172.48c-0.11-4.32,40.13-85.85,40.13-85.85l-92.04,25.04L876.84,1172.48z"/>
		<polygon class="st5" points="876.84,1172.48 931.67,1199.61 964.7,1127.89 		"/>
		<polygon class="st5" points="828.42,1113.46 867.39,1047.52 740.19,1048.64 		"/>
		<polygon class="st5" points="608.18,1206.28 678.82,1160.25 696.08,1254.39 		"/>
		<polygon class="st5" points="1017.99,1098.15 916.97,1086.63 964.7,1127.89 		"/>
		<polyline class="st5" points="905.33,1349.7 970.81,1283.33 886.06,1254.38 905.33,1349.7 		"/>
		<polyline class="st5" points="799.89,1363.69 837.91,1307.82 756.01,1268.86 799.89,1363.69 		"/>
		<polyline class="st5" points="742.09,1322.11 837.91,1307.82 817.03,1214.48 742.09,1322.11 		"/>
		<polyline class="st5" points="670.48,1323.9 696.03,1254.39 622.79,1279.88 670.48,1323.9 		"/>
		<polyline class="st5" points="635.45,1048.72 678.76,1160.25 735.76,1114.2 635.45,1048.72 		"/>
		<polyline class="st5" points="635.45,1048.72 740.12,1048.64 735.76,1114.2 		"/>
		<polyline class="st6" points="688.21,993.77 737.77,938.36 651.69,928.17 688.21,993.77 		"/>
		<polyline class="st5" points="786.79,876.28 790.27,980.36 737.77,938.36 786.79,876.28 		"/>
		<line class="st5" x1="858.35" y1="987.06" x2="864.5" y2="914.99"/>
		<polyline class="st5" points="914.08,970.36 944.09,934.99 864.5,914.99 914.08,970.36 		"/>
		<polyline class="st5" points="1019.91,1005.42 960.81,1033.02 914.08,970.36 1019.91,1005.42 		"/>
		<polygon class="st5" points="828.42,1113.46 752.84,1178.74 735.76,1114.2 		"/>
		<g class="st7">
			<path class="st8" d="M936.15,1155.43c-8.64,4.04-18.93,0.32-22.97-8.33c-8.89-21.14,20.77-35.01,31.3-14.64
				C948.52,1141.1,944.79,1151.39,936.15,1155.43z"/>
		</g>
		<g class="st7">
			<path class="st9" d="M883.04,1194.21c-6.4,3-14.03,0.23-17.02-6.17c-6.59-15.67,15.39-25.95,23.19-10.85
				C892.2,1183.59,889.44,1191.21,883.04,1194.21z"/>
		</g>
		<g class="st7">
			<path class="st9" d="M716.65,1181.12c-6.4,3-14.03,0.23-17.02-6.17c-6.59-15.67,15.39-25.95,23.19-10.85
				C725.82,1170.5,723.06,1178.12,716.65,1181.12z"/>
		</g>
		<g class="st7">
			<path class="st8" d="M750.51,1249.28c-8.64,4.04-18.93,0.32-22.97-8.33c-8.89-21.14,20.77-35.01,31.3-14.64
				C762.88,1234.95,759.15,1245.23,750.51,1249.28z"/>
		</g>
		<g class="st7">
			<path class="st8" d="M738.2,1123.32c-8.64,4.04-18.93,0.32-22.97-8.33c-8.89-21.14,20.77-35.01,31.3-14.64
				C750.57,1108.99,746.85,1119.28,738.2,1123.32z"/>
		</g>
		<g class="st7">
			<path class="st8" d="M827.86,1340.21c-8.64,4.04-18.93,0.32-22.97-8.33c-8.89-21.14,20.77-35.01,31.3-14.64
				C840.23,1325.88,836.51,1336.16,827.86,1340.21z"/>
		</g>
		<path class="st10" d="M882.76,1277.97c-12.19,5.7-26.7,0.44-32.41-11.75c-12.54-29.83,29.3-49.39,44.15-20.66
			C900.22,1257.75,894.96,1272.26,882.76,1277.97z"/>
		<path class="st10" d="M1000.38,1138.03c-12.19,5.7-26.7,0.44-32.41-11.75c-12.54-29.83,29.3-49.39,44.15-20.66
			C1017.83,1117.82,1012.57,1132.33,1000.38,1138.03z"/>
		<g class="st7">
			<path class="st8" d="M608.59,1096.4c-8.64,4.04-18.93,0.32-22.97-8.33c-8.89-21.14,20.77-35.01,31.3-14.64
				C620.96,1082.07,617.23,1092.36,608.59,1096.4z"/>
		</g>
		<path class="st10" d="M651.65,1182.46c-12.19,5.7-26.7,0.44-32.41-11.75c-12.54-29.83,29.3-49.39,44.15-20.66
			C669.11,1162.25,663.85,1176.76,651.65,1182.46z"/>
		<path class="st10" d="M672.82,1079c-12.19,5.7-26.7,0.44-32.41-11.75c-12.54-29.83,29.3-49.39,44.15-20.66
			C690.27,1058.79,685.02,1073.3,672.82,1079z"/>
		<path class="st10" d="M740.35,1325.68c-12.19,5.7-26.7,0.44-32.41-11.75c-12.54-29.83,29.3-49.39,44.15-20.66
			C757.8,1305.47,752.54,1319.97,740.35,1325.68z"/>
		<g class="st7">
			<path class="st11" d="M806.04,1242.3c-10.29,4.81-22.53,0.38-27.35-9.91c-10.58-25.17,24.72-41.68,37.26-17.43
				C820.76,1225.24,816.32,1237.48,806.04,1242.3z"/>
		</g>
		<g class="st7">
			<path class="st8" d="M792.33,1178.86c-8.64,4.04-18.93,0.32-22.97-8.33c-8.89-21.14,20.77-35.01,31.3-14.64
				C804.7,1164.53,800.97,1174.81,792.33,1178.86z"/>
		</g>
		<g class="st7">
			<path class="st8" d="M716.05,973.18c9.1,2.88,14.13,12.59,11.25,21.69c-7.79,21.57-38.99,11.68-32.94-10.44
				C697.25,975.34,706.96,970.3,716.05,973.18z"/>
		</g>
		<path class="st10" d="M742.69,880.71c12.83,4.07,19.94,17.76,15.87,30.6c-10.99,30.43-55.01,16.47-46.47-14.72
			C716.16,883.75,729.86,876.64,742.69,880.71z"/>
		<g class="st7">
			<path class="st9" d="M781.39,980.66c6.74,2.14,10.47,9.33,8.34,16.07c-5.77,15.99-28.9,8.65-24.41-7.74
				C767.45,982.25,774.64,978.52,781.39,980.66z"/>
		</g>
		<g class="st7">
			<path class="st9" d="M894.89,1103.02c6.74,2.14,10.47,9.33,8.34,16.07c-5.77,15.99-28.9,8.65-24.41-7.74
				C880.95,1104.62,888.15,1100.89,894.89,1103.02z"/>
		</g>
		<g class="st7">
			<path class="st8" d="M916.17,1029.95c9.1,2.88,14.13,12.59,11.25,21.69c-7.79,21.57-38.99,11.68-32.94-10.44
				C897.36,1032.11,907.07,1027.07,916.17,1029.95z"/>
		</g>
		<g class="st7">
			<path class="st8" d="M839.87,1130.92c9.1,2.88,14.13,12.59,11.25,21.69c-7.79,21.57-38.99,11.68-32.94-10.44
				C821.07,1133.08,830.78,1128.04,839.87,1130.92z"/>
		</g>
		<g class="st7">
			<path class="st8" d="M649.17,1235.67c9.1,2.88,14.13,12.59,11.25,21.69c-7.79,21.57-38.99,11.68-32.94-10.44
				C630.37,1237.83,640.08,1232.79,649.17,1235.67z"/>
		</g>
		<path class="st10" d="M838.34,919.24c12.83,4.07,19.94,17.76,15.87,30.6c-10.99,30.43-55.01,16.47-46.47-14.72
			C811.81,922.28,825.51,915.17,838.34,919.24z"/>
		<path class="st10" d="M657.02,942.46c12.83,4.07,19.94,17.76,15.87,30.6c-10.99,30.43-55.01,16.47-46.47-14.72
			C630.49,945.5,644.19,938.39,657.02,942.46z"/>
		<path class="st10" d="M975.41,980.64c12.83,4.07,19.94,17.76,15.87,30.6c-10.99,30.43-55.01,16.47-46.47-14.72
			C948.88,983.68,962.58,976.58,975.41,980.64z"/>
		<g class="st7">
			<path class="st11" d="M870.6,997.46c10.83,3.43,16.83,14.99,13.4,25.82c-9.27,25.68-46.43,13.9-39.22-12.43
				C848.21,1000.03,859.77,994.03,870.6,997.46z"/>
		</g>
		<g class="st7">
			<path class="st8" d="M837.7,1053.4c9.1,2.88,14.13,12.59,11.25,21.69c-7.79,21.57-38.99,11.68-32.94-10.44
				C818.89,1055.56,828.6,1050.52,837.7,1053.4z"/>
		</g>
		<g class="st7">
			<path class="st8" d="M764.71,1034.52c9.1,2.88,14.13,12.59,11.25,21.69c-7.79,21.57-38.99,11.68-32.94-10.44
				C745.9,1036.68,755.61,1031.64,764.71,1034.52z"/>
		</g>
		<path class="st12" d="M676.06,928.17c0,13.46-10.91,24.37-24.37,24.37c-32.33-1.28-32.32-47.47,0-48.75
			C665.15,903.8,676.06,914.71,676.06,928.17z"/>
		<path class="st9" d="M803.07,980.36c0,7.07-5.73,12.8-12.8,12.8c-16.98-0.67-16.98-24.94,0-25.61
			C797.34,967.55,803.07,973.28,803.07,980.36z"/>
		<path class="st9" d="M944.44,1199.61c0,7.07-5.73,12.8-12.8,12.8c-16.98-0.67-16.98-24.94,0-25.61
			C938.71,1186.8,944.44,1192.54,944.44,1199.61z"/>
		<path class="st9" d="M701.01,993.77c0,7.07-5.73,12.8-12.8,12.8c-16.98-0.67-16.98-24.94,0-25.61
			C695.28,980.96,701.01,986.7,701.01,993.77z"/>
		<path class="st9" d="M1022.97,1217.28c0,7.07-5.73,12.8-12.8,12.8c-16.98-0.67-16.98-24.94,0-25.61
			C1017.24,1204.47,1022.97,1210.21,1022.97,1217.28z"/>
		<path class="st11" d="M699.33,1160.25c0,11.36-9.21,20.57-20.57,20.57c-27.28-1.08-27.28-40.06,0-41.14
			C690.12,1139.68,699.33,1148.89,699.33,1160.25z"/>
		<path class="st8" d="M753.04,1114.2c0,9.54-7.73,17.28-17.28,17.28c-22.92-0.91-22.91-33.64,0-34.55
			C745.3,1096.92,753.04,1104.66,753.04,1114.2z"/>
		<path class="st8" d="M601.14,1116.67c0,9.54-7.73,17.28-17.28,17.28c-22.92-0.91-22.91-33.64,0-34.55
			C593.41,1099.4,601.14,1107.13,601.14,1116.67z"/>
		<path class="st12" d="M659.83,1048.72c0,13.46-10.91,24.37-24.37,24.37c-32.33-1.28-32.32-47.47,0-48.75
			C648.91,1024.34,659.83,1035.26,659.83,1048.72z"/>
		<path class="st12" d="M849.24,1111.66c0,13.46-10.91,24.37-24.37,24.37c-32.33-1.28-32.32-47.47,0-48.75
			C838.33,1087.29,849.24,1098.2,849.24,1111.66z"/>
		<path class="st12" d="M995.17,1283.33c0,13.46-10.91,24.37-24.37,24.37c-32.33-1.28-32.32-47.47,0-48.75
			C984.25,1258.96,995.17,1269.87,995.17,1283.33z"/>
		<path class="st12" d="M1044.89,1005.41c0,13.46-10.91,24.37-24.37,24.37c-32.33-1.28-32.32-47.47,0-48.75
			C1033.98,981.03,1044.89,991.95,1044.89,1005.41z"/>
		<path class="st9" d="M977.47,1127.89c0,7.07-5.73,12.8-12.8,12.8c-16.98-0.67-16.98-24.94,0-25.61
			C971.73,1115.09,977.47,1120.82,977.47,1127.89z"/>
		<path class="st9" d="M765.65,1178.74c0,7.07-5.73,12.8-12.8,12.8c-16.98-0.67-16.98-24.94,0-25.61
			C759.92,1165.93,765.65,1171.67,765.65,1178.74z"/>
		<path class="st9" d="M889.61,1172.48c0,7.07-5.73,12.8-12.8,12.8c-16.98-0.67-16.98-24.94,0-25.61
			C883.87,1159.68,889.61,1165.41,889.61,1172.48z"/>
		<path class="st9" d="M683.28,1323.9c0,7.07-5.73,12.8-12.8,12.8c-16.98-0.67-16.98-24.94,0-25.61
			C677.55,1311.09,683.28,1316.83,683.28,1323.9z"/>
		<path class="st9" d="M583.59,1013.46c0,7.07-5.73,12.8-12.8,12.8c-16.98-0.67-16.98-24.94,0-25.61
			C577.86,1000.66,583.59,1006.39,583.59,1013.46z"/>
		<path class="st8" d="M855.18,1307.82c0,9.54-7.73,17.28-17.28,17.28c-22.92-0.91-22.91-33.64,0-34.55
			C847.45,1290.55,855.18,1298.28,855.18,1307.82z"/>
		<path class="st8" d="M759.37,1322.11c0,9.54-7.73,17.28-17.28,17.28c-22.92-0.91-22.91-33.64,0-34.55
			C751.63,1304.84,759.37,1312.57,759.37,1322.11z"/>
		<path class="st8" d="M640.07,1279.88c0,9.54-7.73,17.28-17.28,17.28c-22.92-0.91-22.91-33.64,0-34.55
			C632.33,1262.61,640.07,1270.34,640.07,1279.88z"/>
		<path class="st12" d="M841.4,1214.48c0,13.46-10.91,24.37-24.37,24.37c-32.33-1.28-32.32-47.47,0-48.75
			C830.49,1190.11,841.4,1201.02,841.4,1214.48z"/>
		<path class="st12" d="M764.5,1048.64c0,13.46-10.91,24.37-24.37,24.37c-32.33-1.28-32.32-47.47,0-48.75
			C753.58,1024.27,764.5,1035.18,764.5,1048.64z"/>
		<path class="st12" d="M824.27,1363.69c0,13.46-10.91,24.37-24.37,24.37c-32.33-1.28-32.32-47.47,0-48.75
			C813.35,1339.32,824.27,1350.23,824.27,1363.69z"/>
		<path class="st9" d="M929.74,1086.63c0,7.07-5.73,12.8-12.8,12.8c-16.98-0.67-16.98-24.94,0-25.61
			C924,1073.82,929.74,1079.56,929.74,1086.63z"/>
		<path class="st9" d="M918.14,1349.7c0,7.07-5.73,12.8-12.8,12.8c-16.98-0.67-16.98-24.94,0-25.61
			C912.4,1336.89,918.14,1342.63,918.14,1349.7z"/>
		<path class="st9" d="M956.89,934.99c0,7.07-5.73,12.8-12.8,12.8c-16.98-0.67-16.98-24.94,0-25.61
			C951.16,922.18,956.89,927.91,956.89,934.99z"/>
		<path class="st9" d="M551,1165.77c0,7.07-5.73,12.8-12.8,12.8c-16.98-0.67-16.98-24.94,0-25.61
			C545.27,1152.96,551,1158.69,551,1165.77z"/>
		<path class="st9" d="M975.79,1247.69c0,7.07-5.73,12.8-12.8,12.8c-16.98-0.67-16.98-24.94,0-25.61
			C970.05,1234.88,975.79,1240.62,975.79,1247.69z"/>
		<path class="st11" d="M910.98,1259.49c0,11.36-9.21,20.57-20.57,20.57c-27.28-1.08-27.28-40.06,0-41.14
			C901.77,1238.92,910.98,1248.13,910.98,1259.49z"/>
		<path class="st9" d="M874.68,907.21c4.29,5.62,3.21,13.66-2.41,17.95c-13.91,9.77-28.63-9.51-15.54-20.35
			C862.35,900.52,870.39,901.59,874.68,907.21z"/>
		<path class="st11" d="M930.43,957.87c6.89,9.03,5.16,21.94-3.86,28.83c-22.34,15.7-45.99-15.28-24.97-32.7
			C910.63,947.11,923.53,948.84,930.43,957.87z"/>
		<path class="st8" d="M872.08,976.58c5.79,7.58,4.34,18.42-3.24,24.21c-18.76,13.18-38.63-12.84-20.97-27.46
			C855.45,967.54,866.29,968.99,872.08,976.58z"/>
		<path class="st11" d="M754.12,925.88c6.89,9.03,5.16,21.94-3.86,28.83c-22.34,15.7-45.99-15.28-24.97-32.7
			C734.32,915.12,747.23,916.85,754.12,925.88z"/>
		<path class="st8" d="M881.15,1037c5.79,7.58,4.34,18.42-3.24,24.21c-18.76,13.18-38.63-12.84-20.97-27.46
			C864.52,1027.96,875.36,1029.41,881.15,1037z"/>
		<path class="st8" d="M800.52,865.79c5.79,7.58,4.34,18.42-3.24,24.21c-18.76,13.18-38.63-12.84-20.97-27.46
			C783.89,856.76,794.73,858.21,800.52,865.79z"/>
		<path class="st11" d="M776.58,1268.86c0,11.36-9.21,20.57-20.57,20.57c-27.28-1.08-27.28-40.06,0-41.14
			C767.37,1248.29,776.58,1257.5,776.58,1268.86z"/>
		<path class="st11" d="M978.99,1042.65c-5.32,10.04-17.76,13.87-27.8,8.55c-23.61-13.72-5.36-48.17,19.25-36.36
			C980.48,1020.16,984.31,1032.61,978.99,1042.65z"/>
		<path class="st8" d="M999.71,1185.73c-4.46,8.43-14.92,11.65-23.35,7.18c-19.83-11.53-4.5-40.45,16.17-30.54
			C1000.96,1166.84,1004.17,1177.3,999.71,1185.73z"/>
		<path class="st8" d="M1033.27,1106.24c-4.46,8.43-14.92,11.65-23.35,7.18c-19.83-11.53-4.5-40.45,16.17-30.54
			C1034.51,1087.35,1037.73,1097.81,1033.27,1106.24z"/>
		<path class="st8" d="M713.31,1254.39c0,9.54-7.73,17.28-17.28,17.28c-22.92-0.91-22.91-33.64,0-34.55
			C705.57,1237.12,713.31,1244.85,713.31,1254.39z"/>
		<path class="st12" d="M632.49,1206.28c0,13.46-10.91,24.37-24.37,24.37c-32.33-1.28-32.32-47.47,0-48.75
			C621.58,1181.91,632.49,1192.82,632.49,1206.28z"/>
		<path class="st10" d="M979.21,1241.49c-12.19,5.7-26.7,0.44-32.41-11.75c-12.54-29.83,29.3-49.39,44.15-20.66
			C996.67,1221.28,991.41,1235.79,979.21,1241.49z"/>
		<path class="st8" d="M622.84,1279.88"/>
	</g>
</g>
</svg>
