<?xml version="1.0" encoding="utf-8"?>
<!-- Generator: Adobe Illustrator 24.1.0, SVG Export Plug-In . SVG Version: 6.00 Build 0)  -->
<svg version="1.1" id="Layer_1" xmlns="http://www.w3.org/2000/svg" xmlns:xlink="http://www.w3.org/1999/xlink" x="0px" y="0px"
	 viewBox="0 0 1574.07 1500" style="enable-background:new 0 0 1574.07 1500;" xml:space="preserve">
<style type="text/css">
	.st0{fill:none;stroke:#F0A4A4;stroke-width:3;stroke-miterlimit:10;}
	.st1{fill:none;stroke:#F0A4A4;stroke-width:0.5;stroke-miterlimit:10;}
	.st2{opacity:0.14;}
	.st3{fill:#CB3436;}
	.st4{fill:#EC797A;}
	.st5{opacity:0.14;fill:#620012;}
	.st6{fill:#AD1520;}
	.st7{fill:#620012;}
	.st8{fill:#AD1520;stroke:#FFFFFF;stroke-width:15;stroke-miterlimit:10;}
	.st9{font-family:'STIXGeneral-Regular';}
	.st10{font-size:45.194px;}
	.st11{opacity:0.66;fill:#FFFFFF;}
</style>
<g>
	<path class="st0" d="M437.83,680.05c-0.61-5-2.02-80.4-2.02-80.4L403.54,653L437.83,680.05z"/>
	<line class="st0" x1="356.89" y1="871.71" x2="267.35" y2="844.18"/>
	<polygon class="st0" points="313.85,577.52 347.76,534.57 254.37,570.44 	"/>
	<polygon class="st0" points="234.37,813.74 224.23,762.82 175.84,734.8 	"/>
	<line class="st0" x1="267.35" y1="844.18" x2="316.9" y2="842.95"/>
	<line class="st0" x1="356.89" y1="871.71" x2="316.9" y2="842.95"/>
	<line class="st0" x1="509.07" y1="623.88" x2="456.62" y2="575.15"/>
	<polygon class="st0" points="502.33,770.43 507.71,688.02 484.5,743.01 	"/>
	<polygon class="st0" points="429.81,862.03 356.89,871.71 419.5,799.63 	"/>
	<polyline class="st0" points="507.71,688.02 509.07,623.88 437.83,680.05 	"/>
	<polyline class="st0" points="397.26,611.2 347.76,534.57 401.52,561.34 	"/>
	<polyline class="st0" points="403.54,653 397.26,611.2 315.55,653.78 	"/>
	<polyline class="st0" points="326.53,806.11 324.33,743.77 285.04,796.1 	"/>
	<polygon class="st0" points="475.11,816.12 502.33,770.43 448,758.21 	"/>
	<polyline class="st0" points="285.04,796.1 326.53,806.11 267.35,844.18 	"/>
	<polyline class="st0" points="273.09,730.98 207.45,700.84 243.14,653.83 	"/>
	<polygon class="st0" points="175.84,734.8 224.23,762.82 207.45,700.84 	"/>
	<polygon class="st0" points="207.45,700.84 198.39,629.44 175.84,734.8 	"/>
	<polygon class="st0" points="243.14,653.83 198.39,629.44 254.37,570.44 	"/>
	<polygon class="st0" points="315.55,653.78 350.21,606.54 279.61,615.82 	"/>
	<polygon class="st0" points="368.75,768.49 324.33,743.77 410.07,739.44 	"/>
	<path class="st0" d="M410.07,739.44c-0.08-2.99,27.76-59.39,27.76-59.39l-63.67,17.32L410.07,739.44z"/>
	<polygon class="st0" points="410.07,739.44 448,758.21 470.85,708.6 	"/>
	<polygon class="st0" points="376.58,698.61 403.54,653 315.55,653.78 	"/>
	<polygon class="st0" points="224.23,762.82 273.09,730.98 285.04,796.1 	"/>
	<polygon class="st0" points="507.71,688.02 437.83,680.05 470.85,708.6 	"/>
	<polyline class="st0" points="429.79,862.03 475.08,816.12 416.45,796.1 429.79,862.03 	"/>
	<polyline class="st0" points="356.85,871.71 383.15,833.06 326.49,806.11 356.85,871.71 	"/>
	<polyline class="st0" points="316.87,842.95 383.15,833.06 368.7,768.49 316.87,842.95 	"/>
	<polyline class="st0" points="267.33,844.18 285,796.1 234.34,813.74 267.33,844.18 	"/>
	<polyline class="st0" points="243.1,653.83 273.06,730.98 312.48,699.12 243.1,653.83 	"/>
	<polyline class="st0" points="243.1,653.83 315.5,653.78 312.48,699.12 	"/>
	<polyline class="st1" points="279.59,615.82 313.88,577.49 254.33,570.44 279.59,615.82 	"/>
	<polyline class="st0" points="347.78,534.54 350.19,606.54 313.88,577.49 347.78,534.54 	"/>
	<line class="st0" x1="397.29" y1="611.18" x2="401.54" y2="561.32"/>
	<polyline class="st0" points="435.84,599.62 456.6,575.15 401.54,561.32 435.84,599.62 	"/>
	<polyline class="st0" points="509.04,623.88 468.16,642.97 435.84,599.62 509.04,623.88 	"/>
	<polygon class="st0" points="376.58,698.61 324.3,743.77 312.48,699.12 	"/>
	<g class="st2">
		<path class="st3" d="M451.1,727.65c-5.98,2.8-13.09,0.22-15.89-5.76c-6.15-14.62,14.36-24.22,21.65-10.13
			C459.66,717.74,457.08,724.85,451.1,727.65z"/>
	</g>
	<g class="st2">
		<path class="st4" d="M414.36,754.47c-4.43,2.07-9.7,0.16-11.78-4.27c-4.56-10.84,10.65-17.95,16.04-7.51
			C420.7,747.12,418.79,752.4,414.36,754.47z"/>
	</g>
	<g class="st2">
		<path class="st4" d="M299.27,745.41c-4.43,2.07-9.7,0.16-11.78-4.27c-4.56-10.84,10.65-17.95,16.04-7.51
			C305.61,738.07,303.7,743.34,299.27,745.41z"/>
	</g>
	<g class="st2">
		<path class="st3" d="M322.69,792.56c-5.98,2.8-13.09,0.22-15.89-5.76c-6.15-14.62,14.36-24.22,21.65-10.13
			C331.24,782.65,328.67,789.77,322.69,792.56z"/>
	</g>
	<g class="st2">
		<path class="st3" d="M314.18,705.43c-5.98,2.8-13.09,0.22-15.89-5.76c-6.15-14.62,14.36-24.22,21.65-10.13
			C322.73,695.52,320.15,702.64,314.18,705.43z"/>
	</g>
	<g class="st2">
		<path class="st3" d="M376.2,855.47c-5.98,2.8-13.09,0.22-15.89-5.76c-6.15-14.62,14.36-24.22,21.65-10.13
			C384.75,845.55,382.18,852.67,376.2,855.47z"/>
	</g>
	<path class="st5" d="M414.17,812.41c-8.43,3.95-18.47,0.31-22.42-8.13c-8.67-20.63,20.27-34.17,30.54-14.29
		C426.25,798.43,422.61,808.46,414.17,812.41z"/>
	<path class="st5" d="M495.54,715.61c-8.43,3.95-18.47,0.31-22.42-8.13c-8.67-20.63,20.27-34.17,30.54-14.29
		C507.61,701.63,503.97,711.66,495.54,715.61z"/>
	<g class="st2">
		<path class="st3" d="M224.52,686.81c-5.98,2.8-13.09,0.22-15.89-5.76c-6.15-14.62,14.36-24.22,21.65-10.13
			C233.07,676.9,230.49,684.02,224.52,686.81z"/>
	</g>
	<path class="st5" d="M254.31,746.35c-8.43,3.95-18.47,0.31-22.42-8.13c-8.67-20.63,20.27-34.17,30.54-14.29
		C266.38,732.37,262.74,742.4,254.31,746.35z"/>
	<path class="st5" d="M268.95,674.78c-8.43,3.95-18.47,0.31-22.42-8.13c-8.67-20.63,20.27-34.17,30.54-14.29
		C281.02,660.79,277.38,670.83,268.95,674.78z"/>
	<path class="st5" d="M315.66,845.42c-8.43,3.95-18.47,0.31-22.42-8.13c-8.67-20.63,20.27-34.17,30.54-14.29
		C327.73,831.43,324.09,841.47,315.66,845.42z"/>
	<g class="st2">
		<path class="st6" d="M361.1,787.74c-7.12,3.33-15.59,0.26-18.92-6.86c-7.32-17.41,17.1-28.83,25.78-12.06
			C371.29,775.94,368.22,784.41,361.1,787.74z"/>
	</g>
	<g class="st2">
		<path class="st3" d="M351.62,743.85c-5.98,2.8-13.09,0.22-15.89-5.76c-6.15-14.62,14.36-24.22,21.65-10.13
			C360.17,733.94,357.6,741.06,351.62,743.85z"/>
	</g>
	<g class="st2">
		<path class="st3" d="M298.85,601.58c6.29,1.99,9.78,8.71,7.78,15c-5.39,14.92-26.97,8.08-22.78-7.22
			C285.84,603.07,292.56,599.59,298.85,601.58z"/>
	</g>
	<path class="st5" d="M317.28,537.61c8.88,2.81,13.79,12.29,10.98,21.17c-7.6,21.05-38.06,11.4-32.14-10.19
		C298.93,539.71,308.41,534.8,317.28,537.61z"/>
	<g class="st2">
		<path class="st4" d="M344.05,606.75c4.66,1.48,7.25,6.46,5.77,11.12c-3.99,11.06-19.99,5.99-16.89-5.35
			C334.41,607.85,339.38,605.27,344.05,606.75z"/>
	</g>
	<g class="st2">
		<path class="st4" d="M422.56,691.39c4.66,1.48,7.25,6.46,5.77,11.12c-3.99,11.06-19.99,5.99-16.89-5.35
			C412.92,692.5,417.9,689.92,422.56,691.39z"/>
	</g>
	<g class="st2">
		<path class="st3" d="M437.28,640.85c6.29,1.99,9.78,8.71,7.78,15c-5.39,14.92-26.97,8.08-22.78-7.22
			C424.27,642.34,430.99,638.85,437.28,640.85z"/>
	</g>
	<g class="st2">
		<path class="st3" d="M384.5,710.69c6.29,1.99,9.78,8.71,7.78,15c-5.39,14.92-26.97,8.08-22.78-7.22
			C371.5,712.18,378.21,708.7,384.5,710.69z"/>
	</g>
	<g class="st2">
		<path class="st3" d="M252.59,783.15c6.29,1.99,9.78,8.71,7.78,15c-5.39,14.92-26.97,8.08-22.78-7.22
			C239.58,784.64,246.3,781.16,252.59,783.15z"/>
	</g>
	<path class="st5" d="M383.45,564.26c8.88,2.81,13.79,12.29,10.98,21.17c-7.6,21.05-38.06,11.4-32.14-10.19
		C365.09,566.37,374.57,561.45,383.45,564.26z"/>
	<path class="st5" d="M258.02,580.32c8.88,2.81,13.79,12.29,10.98,21.17c-7.6,21.05-38.06,11.4-32.14-10.19
		C239.67,582.43,249.14,577.51,258.02,580.32z"/>
	<path class="st5" d="M478.26,606.74c8.88,2.81,13.79,12.29,10.98,21.17c-7.6,21.05-38.06,11.4-32.14-10.19
		C459.91,608.84,469.38,603.93,478.26,606.74z"/>
	<g class="st2">
		<path class="st6" d="M405.76,618.37c7.49,2.37,11.64,10.37,9.27,17.86c-6.42,17.77-32.12,9.62-27.13-8.6
			C390.27,620.15,398.27,616,405.76,618.37z"/>
	</g>
	<g class="st2">
		<path class="st3" d="M383,657.07c6.29,1.99,9.78,8.71,7.78,15c-5.39,14.92-26.97,8.08-22.78-7.22
			C369.99,658.56,376.71,655.08,383,657.07z"/>
	</g>
	<g class="st2">
		<path class="st3" d="M332.51,644.01c6.29,1.99,9.78,8.71,7.78,15c-5.39,14.92-26.97,8.08-22.78-7.22
			C319.5,645.5,326.22,642.01,332.51,644.01z"/>
	</g>
	<path class="st7" d="M271.19,570.44c0,9.31-7.55,16.86-16.86,16.86c-22.36-0.89-22.36-32.84,0-33.72
		C263.64,553.58,271.19,561.13,271.19,570.44z"/>
	<path class="st4" d="M359.05,606.54c0,4.89-3.97,8.86-8.86,8.86c-11.75-0.47-11.75-17.25,0-17.71
		C355.08,597.68,359.05,601.65,359.05,606.54z"/>
	<path class="st4" d="M456.84,758.21c0,4.89-3.97,8.86-8.86,8.86c-11.75-0.47-11.75-17.25,0-17.71
		C452.87,749.35,456.84,753.31,456.84,758.21z"/>
	<path class="st4" d="M288.45,615.82c0,4.89-3.97,8.86-8.86,8.86c-11.75-0.47-11.75-17.25,0-17.71
		C284.48,606.96,288.45,610.93,288.45,615.82z"/>
	<path class="st4" d="M511.16,770.43c0,4.89-3.97,8.86-8.86,8.86c-11.75-0.47-11.75-17.25,0-17.71
		C507.2,761.57,511.16,765.54,511.16,770.43z"/>
	<path class="st6" d="M287.29,730.98c0,7.86-6.37,14.23-14.23,14.23c-18.87-0.75-18.87-27.71,0-28.46
		C280.92,716.75,287.29,723.12,287.29,730.98z"/>
	<path class="st3" d="M324.44,699.12c0,6.6-5.35,11.95-11.95,11.95c-15.85-0.63-15.85-23.27,0-23.9
		C319.08,687.17,324.44,692.52,324.44,699.12z"/>
	<path class="st3" d="M219.37,700.84c0,6.6-5.35,11.95-11.95,11.95c-15.85-0.63-15.85-23.27,0-23.9
		C214.01,688.89,219.37,694.24,219.37,700.84z"/>
	<path class="st7" d="M259.96,653.83c0,9.31-7.55,16.86-16.86,16.86c-22.36-0.89-22.36-32.84,0-33.72
		C252.41,636.97,259.96,644.52,259.96,653.83z"/>
	<path class="st7" d="M390.98,697.37c0,9.31-7.55,16.86-16.86,16.86c-22.36-0.89-22.36-32.84,0-33.72
		C383.43,680.51,390.98,688.06,390.98,697.37z"/>
	<path class="st7" d="M491.93,816.12c0,9.31-7.55,16.86-16.86,16.86c-22.36-0.89-22.36-32.84,0-33.72
		C484.38,799.26,491.93,806.81,491.93,816.12z"/>
	<path class="st7" d="M526.32,623.87c0,9.31-7.55,16.86-16.86,16.86c-22.36-0.89-22.36-32.84,0-33.72
		C518.77,607.01,526.32,614.56,526.32,623.87z"/>
	<path class="st4" d="M479.68,708.6c0,4.89-3.97,8.86-8.86,8.86c-11.75-0.47-11.75-17.25,0-17.71
		C475.72,699.74,479.68,703.71,479.68,708.6z"/>
	<path class="st4" d="M333.16,743.77c0,4.89-3.97,8.86-8.86,8.86c-11.75-0.47-11.75-17.25,0-17.71
		C329.19,734.91,333.16,738.88,333.16,743.77z"/>
	<path class="st4" d="M418.91,739.44c0,4.89-3.97,8.86-8.86,8.86c-11.75-0.47-11.75-17.25,0-17.71
		C414.94,730.58,418.91,734.55,418.91,739.44z"/>
	<path class="st4" d="M276.18,844.18c0,4.89-3.97,8.86-8.86,8.86c-11.75-0.47-11.75-17.25,0-17.71
		C272.22,835.33,276.18,839.29,276.18,844.18z"/>
	<path class="st4" d="M207.22,629.44c0,4.89-3.97,8.86-8.86,8.86c-11.75-0.47-11.75-17.25,0-17.71
		C203.26,620.58,207.22,624.55,207.22,629.44z"/>
	<path class="st3" d="M395.1,833.06c0,6.6-5.35,11.95-11.95,11.95c-15.85-0.63-15.85-23.27,0-23.9
		C389.75,821.11,395.1,826.46,395.1,833.06z"/>
	<path class="st3" d="M328.82,842.95c0,6.6-5.35,11.95-11.95,11.95c-15.85-0.63-15.85-23.27,0-23.9
		C323.46,831,328.82,836.35,328.82,842.95z"/>
	<path class="st3" d="M246.29,813.74c0,6.6-5.35,11.95-11.95,11.95c-15.85-0.63-15.85-23.27,0-23.9
		C240.94,801.79,246.29,807.14,246.29,813.74z"/>
	<path class="st7" d="M385.56,768.49c0,9.31-7.55,16.86-16.86,16.86c-22.36-0.89-22.36-32.84,0-33.72
		C378.01,751.63,385.56,759.18,385.56,768.49z"/>
	<path class="st7" d="M332.36,653.78c0,9.31-7.55,16.86-16.86,16.86c-22.36-0.89-22.36-32.84,0-33.72
		C324.81,636.92,332.36,644.47,332.36,653.78z"/>
	<path class="st7" d="M373.71,871.71c0,9.31-7.55,16.86-16.86,16.86c-22.36-0.89-22.36-32.84,0-33.72
		C366.16,854.85,373.71,862.4,373.71,871.71z"/>
	<path class="st4" d="M446.67,680.05c0,4.89-3.97,8.86-8.86,8.86c-11.75-0.47-11.75-17.25,0-17.71
		C442.7,671.2,446.67,675.16,446.67,680.05z"/>
	<path class="st4" d="M438.64,862.03c0,4.89-3.97,8.86-8.86,8.86c-11.75-0.47-11.75-17.25,0-17.71
		C434.68,853.17,438.64,857.14,438.64,862.03z"/>
	<path class="st4" d="M465.45,575.15c0,4.89-3.97,8.86-8.86,8.86c-11.75-0.47-11.75-17.25,0-17.71
		C461.49,566.3,465.45,570.26,465.45,575.15z"/>
	<path class="st4" d="M184.68,734.8c0,4.89-3.97,8.86-8.86,8.86c-11.75-0.47-11.75-17.25,0-17.71
		C180.71,725.94,184.68,729.9,184.68,734.8z"/>
	<path class="st4" d="M478.52,791.46c0,4.89-3.97,8.86-8.86,8.86c-11.75-0.47-11.75-17.25,0-17.71
		C474.56,782.61,478.52,786.57,478.52,791.46z"/>
	<path class="st6" d="M433.69,799.63c0,7.86-6.37,14.23-14.23,14.23c-18.87-0.75-18.87-27.71,0-28.46
		C427.32,785.4,433.69,791.77,433.69,799.63z"/>
	<path class="st4" d="M408.58,555.94c2.97,3.89,2.22,9.45-1.66,12.41c-9.62,6.76-19.8-6.58-10.75-14.08
		C400.05,551.31,405.61,552.06,408.58,555.94z"/>
	<path class="st6" d="M447.15,590.99c4.77,6.25,3.57,15.17-2.67,19.94c-15.46,10.86-31.81-10.57-17.27-22.62
		C433.45,583.55,442.38,584.74,447.15,590.99z"/>
	<path class="st3" d="M406.78,603.93c4.01,5.25,3,12.74-2.24,16.75c-12.98,9.12-26.72-8.88-14.51-19
		C395.28,597.68,402.78,598.68,406.78,603.93z"/>
	<path class="st6" d="M325.19,568.86c4.77,6.25,3.57,15.17-2.67,19.94c-15.46,10.86-31.81-10.57-17.27-22.62
		C311.49,561.41,320.42,562.61,325.19,568.86z"/>
	<path class="st3" d="M413.06,645.72c4.01,5.25,3,12.74-2.24,16.75c-12.98,9.12-26.72-8.88-14.51-19
		C401.55,639.47,409.05,640.48,413.06,645.72z"/>
	<path class="st3" d="M357.28,527.29c4.01,5.25,3,12.74-2.24,16.75c-12.98,9.12-26.72-8.88-14.51-19
		C345.78,521.04,353.28,522.05,357.28,527.29z"/>
	<path class="st6" d="M340.72,806.11c0,7.86-6.37,14.23-14.23,14.23c-18.87-0.75-18.87-27.71,0-28.46
		C334.35,791.88,340.72,798.25,340.72,806.11z"/>
	<path class="st6" d="M480.74,649.63c-3.68,6.94-12.29,9.59-19.23,5.92c-16.33-9.49-3.71-33.32,13.31-25.15
		C481.77,634.07,484.42,642.68,480.74,649.63z"/>
	<path class="st3" d="M495.07,748.61c-3.09,5.83-10.32,8.06-16.15,4.97c-13.72-7.97-3.12-27.98,11.18-21.12
		C495.93,735.54,498.16,742.77,495.07,748.61z"/>
	<path class="st3" d="M518.28,693.62c-3.09,5.83-10.32,8.06-16.15,4.97c-13.72-7.97-3.12-27.98,11.18-21.12
		C519.15,680.55,521.37,687.79,518.28,693.62z"/>
	<path class="st3" d="M296.95,796.1c0,6.6-5.35,11.95-11.95,11.95c-15.85-0.63-15.85-23.27,0-23.9
		C291.6,784.15,296.95,789.5,296.95,796.1z"/>
	<path class="st7" d="M241.05,762.82c0,9.31-7.55,16.86-16.86,16.86c-22.36-0.89-22.36-32.84,0-33.72
		C233.5,745.96,241.05,753.51,241.05,762.82z"/>
	<path class="st5" d="M480.89,787.18c-8.43,3.95-18.47,0.31-22.42-8.13c-8.67-20.63,20.27-34.17,30.54-14.29
		C492.96,773.2,489.33,783.23,480.89,787.18z"/>
	<path class="st3" d="M234.37,813.74"/>
</g>
<path d="M731.11,687.52l41.66,140.1h0.74l46.46-140.1h24.33l47.19,140.1h0.74l41.29-140.1h26.55L905.5,860.07h-27.28l-46.09-139.74
	h-0.74l-45.35,139.74h-27.28l-54.57-172.55H731.11z"/>
<path d="M1127.09,726.97c-4.18-6.64-10.27-12.1-18.25-16.41c-7.99-4.3-16.65-6.45-25.99-6.45c-10.08,0-19.17,1.79-27.28,5.35
	c-8.11,3.57-15.06,8.48-20.83,14.75c-5.78,6.27-10.2,13.64-13.27,22.12c-3.08,8.48-4.61,17.64-4.61,27.47
	c0,9.83,1.53,18.93,4.61,27.28c3.07,8.36,7.43,15.67,13.09,21.94c5.65,6.27,12.54,11.19,20.65,14.75c8.11,3.57,17.2,5.35,27.28,5.35
	c11.06,0,20.4-2.09,28.02-6.27c7.62-4.18,13.88-9.58,18.8-16.22l18.8,14.01c-7.37,9.1-16.41,16.35-27.1,21.75
	c-10.69,5.4-23.54,8.11-38.53,8.11c-14.01,0-26.67-2.28-37.98-6.82c-11.31-4.55-20.96-10.88-28.94-18.99
	c-7.99-8.11-14.19-17.7-18.62-28.76c-4.43-11.06-6.64-23.1-6.64-36.13c0-13.03,2.21-25.07,6.64-36.13
	c4.42-11.06,10.63-20.65,18.62-28.76c7.98-8.11,17.63-14.44,28.94-18.99c11.3-4.55,23.97-6.82,37.98-6.82
	c11.55,0,23.29,2.52,35.21,7.56c11.92,5.04,21.57,12.48,28.94,22.31L1127.09,726.97z"/>
<path d="M1186.82,707.43c-0.25-7.37-0.62-14.01-1.11-19.91h23.97c0.49,4.67,0.86,9.83,1.11,15.49c0.24,5.66,0.37,10.32,0.37,14.01
	h0.74c4.91-10.08,12.29-18.25,22.12-24.52c9.83-6.27,20.89-9.4,33.18-9.4c3.19,0,6.08,0.13,8.67,0.37c2.58,0.25,5.22,0.74,7.93,1.48
	l-3.32,23.97c-1.48-0.49-3.94-0.98-7.37-1.48c-3.45-0.49-6.88-0.74-10.32-0.74c-6.64,0-13.03,1.23-19.17,3.68
	c-6.15,2.45-11.49,6.31-16.04,11.59c-4.55,5.27-8.24,12.01-11.06,20.23c-2.83,8.21-4.24,18.09-4.24,29.61v88.27h-25.07V725.49
	C1187.18,720.83,1187.06,714.8,1186.82,707.43z"/>
<path d="M1445.27,860.07c-0.5-4.67-0.86-9.83-1.11-15.48c-0.25-5.65-0.37-10.32-0.37-14.01h-0.74
	c-4.92,10.08-12.9,18.25-23.97,24.52c-11.06,6.27-22.74,9.4-35.03,9.4c-21.88,0-38.29-6.51-49.22-19.54
	c-10.94-13.03-16.41-30.24-16.41-51.62V687.52h25.07v95.49c0,9.1,0.74,17.33,2.21,24.7c1.48,7.37,3.99,13.71,7.56,18.99
	c3.56,5.29,8.35,9.4,14.38,12.35c6.02,2.95,13.58,4.42,22.68,4.42c6.64,0,13.09-1.35,19.36-4.05c6.27-2.7,11.86-6.82,16.78-12.35
	c4.91-5.53,8.85-12.53,11.8-21.02c2.95-8.48,4.43-18.49,4.43-30.05v-88.49h25.07v134.57c0,4.67,0.12,10.69,0.37,18.07
	c0.24,7.37,0.61,14.01,1.11,19.91H1445.27z"/>
<path d="M666.86,967.72c-0.5-4.67-0.86-9.83-1.11-15.48c-0.25-5.65-0.37-10.32-0.37-14.01h-0.74c-4.92,10.08-12.9,18.25-23.97,24.52
	c-11.06,6.27-22.74,9.4-35.03,9.4c-21.88,0-38.29-6.51-49.22-19.54c-10.94-13.03-16.41-30.24-16.41-51.62V795.17h25.07v95.49
	c0,9.09,0.74,17.33,2.21,24.7s3.99,13.71,7.56,18.99c3.56,5.29,8.35,9.4,14.38,12.35c6.02,2.95,13.58,4.42,22.68,4.42
	c6.64,0,13.09-1.35,19.36-4.05c6.27-2.7,11.86-6.82,16.78-12.35c4.91-5.53,8.85-12.53,11.8-21.02c2.95-8.48,4.43-18.49,4.43-30.05
	c0,0,0-81.02,0-88.49c11.88,0,13.99,0,25.07,0c0,8.19,0,134.57,0,134.57c0,4.67,0.12,10.69,0.37,18.07
	c0.24,7.37,0.61,14.01,1.11,19.91H666.86z"/>
<circle class="st8" cx="604.49" cy="959.08" r="25.95"/>
<text transform="matrix(1.0203 0 0 1 752.8995 943.1943)" class="st9 st10">Nunavut Wildlife Coop Research Unit</text>
<rect x="104.84" y="514.97" class="st11" width="435" height="435"/>
<path d="M438.23,693.38c0.49,4.67,0.86,9.83,1.11,15.49c0.24,5.66,0.37,10.32,0.37,14.01h0.74c4.91-10.08,12.9-18.25,23.97-24.52
	c11.06-6.27,22.73-9.4,35.03-9.4c21.87,0,38.28,6.52,49.22,19.54c10.93,13.03,16.41,30.23,16.41,51.62v105.81h-25.07v-95.49
	c0-9.09-0.74-17.33-2.21-24.7c-1.48-7.37-4-13.7-7.56-18.99c-3.57-5.28-8.36-9.4-14.38-12.35c-6.03-2.95-13.58-4.43-22.68-4.43
	c-6.64,0-13.09,1.35-19.36,4.06c-6.27,2.71-11.86,6.82-16.78,12.35c-4.92,5.53-8.85,12.54-11.8,21.02
	c-2.95,8.48-4.42,18.5-4.42,30.05v88.49h-25.07V731.36c0-4.67-0.13-10.69-0.37-18.07c-0.25-7.37-0.62-14.01-1.11-19.91H438.23z"/>
<circle class="st8" cx="496.12" cy="701.55" r="25.95"/>
</svg>
