<?xml version="1.0" encoding="utf-8"?>
<!-- Generator: Adobe Illustrator 24.1.0, SVG Export Plug-In . SVG Version: 6.00 Build 0)  -->
<svg version="1.1" id="Layer_1" xmlns="http://www.w3.org/2000/svg" xmlns:xlink="http://www.w3.org/1999/xlink" x="0px" y="0px"
	 viewBox="0 0 1574.07 1500" style="enable-background:new 0 0 1574.07 1500;" xml:space="preserve">
<style type="text/css">
	.st0{opacity:0.41;}
	.st1{fill:#F0A4A4;}
	.st2{opacity:0.14;}
	.st3{fill:#CB3436;}
	.st4{fill:#CF9393;}
	.st5{fill:#620012;}
	.st6{fill:#AD1520;}
	.st7{fill:none;stroke:#EC797A;stroke-width:10;stroke-miterlimit:10;}
</style>
<g class="st0">
	<g>
		<path class="st1" d="M891.73,270.03l-46.85-36.96l43.79-72.38l0.1,5.19c0.02,0.94,1.78,94.43,2.52,100.54L891.73,270.03z
			 M848.81,232.35l39.28,30.98c-0.72-15.49-1.88-74.18-2.23-92.22L848.81,232.35z"/>
	</g>
	<g>
		
			<rect x="730.86" y="430.73" transform="matrix(0.2939 -0.9559 0.9559 0.2939 49.3674 1045.6034)" class="st1" width="3" height="117.32"/>
	</g>
	<g>
		<path class="st1" d="M735.18,139.77l-81.34-9.68l127.72-49.06L735.18,139.77z M666.23,128.54l67.64,8.05l38.56-48.85
			L666.23,128.54z"/>
	</g>
	<g>
		<path class="st1" d="M637.76,440.28l-81.6-110.06l67.47,39.08L637.76,440.28z M567.21,340.09l65,87.67l-11.26-56.54L567.21,340.09
			z"/>
	</g>
	<g>
		
			<rect x="676.28" y="469.88" transform="matrix(0.9997 -0.0251 0.0251 0.9997 -11.5931 17.8771)" class="st1" width="62.07" height="3"/>
	</g>
	<g>
		
			<rect x="761.88" y="457.77" transform="matrix(0.5838 -0.8119 0.8119 0.5838 -79.0024 823.1104)" class="st1" width="3" height="61.7"/>
	</g>
	<g>
		
			<rect x="944.67" y="120.9" transform="matrix(0.6806 -0.7326 0.7326 0.6806 180.7695 746.131)" class="st1" width="3" height="89.65"/>
	</g>
	<g>
		<path class="st1" d="M971.78,384.38l-25.22-38.8l32.84-77.79L971.78,384.38z M949.94,345.29l19.43,29.89l5.87-89.83L949.94,345.29
			z"/>
	</g>
	<g>
		<path class="st1" d="M784.7,508.64l83.1-95.68l13.69,82.83L784.7,508.64z M865.88,419.74l-73.72,84.88l85.86-11.4L865.88,419.74z"
			/>
	</g>
	<g>
		<polygon class="st1" points="978.82,276.6 975.82,276.54 977.44,199.39 890.73,267.77 888.87,265.42 980.58,193.09 		"/>
	</g>
	<g>
		<polygon class="st1" points="837.73,181.18 772.76,80.61 844.99,116.57 843.66,119.26 781.22,88.17 840.25,179.55 		"/>
	</g>
	<g>
		<polygon class="st1" points="737.34,235.02 735.95,232.36 840.16,178.06 848.33,232.49 845.36,232.93 837.82,182.67 		"/>
	</g>
	<g>
		<polygon class="st1" points="748.9,424.52 746.29,350.69 699.63,412.84 697.23,411.03 748.99,342.1 751.9,424.42 		"/>
	</g>
	<g>
		<path class="st1" d="M936.33,440.21l-36.44-77.87l73.04,16.43L936.33,440.21z M905.19,366.61l31.45,67.2l31.58-53.02
			L905.19,366.61z"/>
	</g>
	<g>
		<polygon class="st1" points="677.1,473.41 675.47,470.89 746.64,425.11 698.08,413.39 698.79,410.48 754.16,423.84 		"/>
	</g>
	<g>
		<polygon class="st1" points="682.85,331.74 598.94,293.21 644.77,232.84 647.16,234.66 603.59,292.04 684.11,329.01 		"/>
	</g>
	<g>
		<path class="st1" d="M624.68,373.38l-65.38-37.87l42.7-45.88L624.68,373.38z M564.06,334.8l55.82,32.33l-19.37-71.51L564.06,334.8
			z"/>
	</g>
	<g>
		<path class="st1" d="M559.08,340.15l31.22-145.88l12.54,98.86L559.08,340.15z M589.54,212.14l-25.26,118.01l35.4-38.04
			L589.54,212.14z"/>
	</g>
	<g>
		<path class="st1" d="M647.16,236.11l-59.67-32.52l74.65-78.67L647.16,236.11z M592.35,202.82l52.42,28.57l13.15-97.68
			L592.35,202.82z"/>
	</g>
	<g>
		<path class="st1" d="M736.79,236.02l-48.26-50.98l94.82-12.46L736.79,236.02z M694.75,187.25l41.75,44.1l40.27-54.88
			L694.75,187.25z"/>
	</g>
	<g>
		<path class="st1" d="M803.37,379.13l-61.03-33.97l117.8-5.95L803.37,379.13z M752.94,347.63l50.24,27.96l46.74-32.86
			L752.94,347.63z"/>
	</g>
	<g>
		<path class="st1" d="M856.64,345.25l-2.75-3.31l-46.5-54.49l85.23-23.19l-1.47,2.99c-13.68,27.73-34.2,70.25-34.61,73.76
			L856.64,345.25z M812.74,289.11l41.7,48.86c4.45-11.72,24.13-51.97,32.54-69.05L812.74,289.11z"/>
	</g>
	<g>
		<path class="st1" d="M903.25,366.5l-51.57-25.51l82.63-41.94L903.25,366.5z M858.38,340.96l43.44,21.49l26.16-56.81L858.38,340.96
			z"/>
	</g>
	<g>
		<path class="st1" d="M813.53,292.03l-81.41-59.8l117.36-1.04L813.53,292.03z M741.17,235.15l71.47,52.5l31.57-53.42L741.17,235.15
			z"/>
	</g>
	<g>
		<path class="st1" d="M700.48,414.76l-81.11-44.4l65.18-42.48L700.48,414.76z M625.2,370.14l71.19,38.96l-13.98-76.24L625.2,370.14
			z"/>
	</g>
	<g>
		<path class="st1" d="M930.96,304.16l-45.82-39.61l96.97,11.06L930.96,304.16z M894.45,268.63l36.88,31.89l41.18-22.99
			L894.45,268.63z"/>
	</g>
	<g>
		<path class="st1" d="M878.81,497.56l-17.78-87.9l78.16,26.7L878.81,497.56z M865.01,414.19l15.62,77.25l53.07-53.79L865.01,414.19
			z"/>
	</g>
	<g>
		<path class="st1" d="M788.12,509.66l-40.88-88.33l76.28,36.29L788.12,509.66z M753.46,427.61l35.16,75.99l30.46-44.77
			L753.46,427.61z"/>
	</g>
	<g>
		<path class="st1" d="M735.08,472.6l68.86-98.9l19.19,85.77L735.08,472.6z M802.5,381.02l-60.98,87.59l77.98-11.63L802.5,381.02z"
			/>
	</g>
	<g>
		<path class="st1" d="M676.89,474.78l-44.8-41.35l68.81-23.95L676.89,474.78z M637.8,434.61l37.83,34.91l20.27-55.13L637.8,434.61z
			"/>
	</g>
	<g>
		<path class="st1" d="M682.78,332.83l-39.95-102.89l92.53,60.41L682.78,332.83z M649,237.56l35.09,90.36l46.18-37.31L649,237.56z"
			/>
	</g>
	<g>
		<polygon class="st1" points="734.31,290.58 731.32,290.38 734.99,235.19 645.91,235.25 645.91,232.25 738.19,232.19 		"/>
	</g>
	<g>
		<path class="st1" d="M691.57,186.57l-0.17-0.31l-31.88-57.26l75.55,8.94l-0.32,0.36L691.57,186.57z M660.43,129.62l31.23,56.1
			l42.39-47.38L660.43,129.62z"/>
	</g>
	<g>
		<path class="st1" d="M781.64,177.73l-49.19-39.35l45.93-58.18L781.64,177.73z M736.66,137.91l41.77,33.41l-2.77-82.81
			L736.66,137.91z"/>
	</g>
	<g>
		
			<rect x="810.35" y="147.61" transform="matrix(0.085 -0.9964 0.9964 0.085 621.5765 975.0788)" class="st1" width="62.67" height="3"/>
	</g>
	<g>
		<path class="st1" d="M887.33,168.15l-47.37-52.9L916,134.35L887.33,168.15z M848.73,120.54l38.54,43.04l23.33-27.49L848.73,120.54
			z"/>
	</g>
	<g>
		<path class="st1" d="M927.31,222.03l-44.07-59.09L983.03,196L927.31,222.03z M891.35,168.79l36.91,49.49l46.67-21.8L891.35,168.79
			z"/>
	</g>
	<g>
		<path class="st1" d="M746.78,349.1L730.87,289l86.29-0.69L746.78,349.1z M734.76,291.96l13.69,51.72l60.57-52.31L734.76,291.96z"
			/>
	</g>
	<g class="st2">
		<g>
			<path class="st3" d="M906.42,326.2c-7.49,3.5-16.4,0.27-19.9-7.21c-7.7-18.32,17.99-30.33,27.11-12.68
				C917.13,313.79,913.9,322.7,906.42,326.2z"/>
		</g>
	</g>
	<g class="st2">
		<g>
			<path class="st4" d="M860.4,359.79c-5.55,2.6-12.15,0.2-14.75-5.35c-5.71-13.57,13.33-22.48,20.09-9.4
				C868.35,350.59,865.95,357.2,860.4,359.79z"/>
		</g>
	</g>
	<g class="st2">
		<g>
			<path class="st4" d="M716.26,348.45c-5.55,2.6-12.15,0.2-14.75-5.35c-5.71-13.57,13.33-22.48,20.09-9.4
				C724.2,339.25,721.8,345.86,716.26,348.45z"/>
		</g>
	</g>
	<g class="st2">
		<g>
			<path class="st3" d="M745.59,407.5c-7.49,3.5-16.4,0.27-19.9-7.21c-7.7-18.32,17.99-30.33,27.11-12.68
				C756.31,395.09,753.08,404,745.59,407.5z"/>
		</g>
	</g>
	<g class="st2">
		<g>
			<path class="st3" d="M734.93,298.38c-7.49,3.5-16.4,0.27-19.9-7.21c-7.7-18.32,17.99-30.33,27.11-12.68
				C745.65,285.97,742.42,294.88,734.93,298.38z"/>
		</g>
	</g>
	<g class="st2">
		<g>
			<path class="st3" d="M812.61,486.28c-7.49,3.5-16.4,0.27-19.9-7.21c-7.7-18.32,17.99-30.33,27.11-12.68
				C823.32,473.87,820.09,482.78,812.61,486.28z"/>
		</g>
	</g>
	<g class="st2">
		<path class="st5" d="M860.17,432.36c-10.56,4.94-23.13,0.39-28.07-10.18c-10.86-25.84,25.38-42.79,38.25-17.9
			C875.29,414.85,870.73,427.42,860.17,432.36z"/>
	</g>
	<g class="st2">
		<path class="st5" d="M962.06,311.13c-10.56,4.94-23.13,0.39-28.07-10.18c-10.86-25.84,25.38-42.79,38.25-17.9
			C977.18,293.62,972.63,306.18,962.06,311.13z"/>
	</g>
	<g class="st2">
		<g>
			<path class="st3" d="M622.64,275.06c-7.49,3.5-16.4,0.27-19.9-7.21c-7.7-18.32,17.99-30.33,27.11-12.68
				C633.35,262.65,630.13,271.56,622.64,275.06z"/>
		</g>
	</g>
	<g class="st2">
		<path class="st5" d="M659.95,349.62c-10.56,4.94-23.13,0.39-28.07-10.18c-10.86-25.84,25.38-42.79,38.25-17.9
			C675.07,332.11,670.51,344.68,659.95,349.62z"/>
	</g>
	<g class="st2">
		<path class="st5" d="M678.29,259.99c-10.56,4.94-23.13,0.39-28.07-10.18c-10.86-25.84,25.38-42.79,38.25-17.9
			C693.41,242.48,688.85,255.04,678.29,259.99z"/>
	</g>
	<g class="st2">
		<path class="st5" d="M736.79,473.69c-10.56,4.94-23.13,0.39-28.07-10.18c-10.86-25.84,25.38-42.79,38.25-17.9
			C751.91,456.18,747.35,468.75,736.79,473.69z"/>
	</g>
	<g class="st2">
		<g>
			<path class="st6" d="M793.69,401.46c-8.91,4.17-19.52,0.33-23.69-8.59c-9.17-21.81,21.42-36.11,32.28-15.1
				C806.45,386.68,802.61,397.28,793.69,401.46z"/>
		</g>
	</g>
	<g class="st2">
		<g>
			<path class="st3" d="M781.82,346.5c-7.49,3.5-16.4,0.27-19.9-7.21c-7.7-18.32,17.99-30.33,27.11-12.68
				C792.54,334.08,789.31,342.99,781.82,346.5z"/>
		</g>
	</g>
	<g class="st2">
		<g>
			<path class="st3" d="M715.74,168.31c7.88,2.5,12.24,10.91,9.75,18.79c-6.75,18.69-33.78,10.12-28.53-9.04
				C699.45,170.18,707.86,165.82,715.74,168.31z"/>
		</g>
	</g>
	<g class="st2">
		<path class="st5" d="M738.82,88.2c11.12,3.52,17.27,15.39,13.75,26.51c-9.52,26.36-47.66,14.27-40.26-12.76
			C715.83,90.83,727.7,84.68,738.82,88.2z"/>
	</g>
	<g class="st2">
		<g>
			<path class="st4" d="M772.34,174.79c5.84,1.85,9.07,8.08,7.22,13.92c-5,13.85-25.04,7.5-21.15-6.7
				C760.26,176.17,766.5,172.93,772.34,174.79z"/>
		</g>
	</g>
	<g class="st2">
		<g>
			<path class="st4" d="M870.67,280.8c5.84,1.85,9.07,8.08,7.22,13.92c-5,13.85-25.04,7.5-21.15-6.7
				C858.6,282.18,864.83,278.95,870.67,280.8z"/>
		</g>
	</g>
	<g class="st2">
		<g>
			<path class="st3" d="M889.11,217.49c7.88,2.5,12.24,10.91,9.75,18.79c-6.75,18.69-33.78,10.12-28.53-9.04
				C872.81,219.36,881.23,215,889.11,217.49z"/>
		</g>
	</g>
	<g class="st2">
		<g>
			<path class="st3" d="M823.01,304.97c7.88,2.5,12.24,10.91,9.75,18.79c-6.75,18.69-33.78,10.12-28.53-9.04
				C806.72,306.84,815.13,302.47,823.01,304.97z"/>
		</g>
	</g>
	<g class="st2">
		<g>
			<path class="st3" d="M657.8,395.72c7.88,2.5,12.24,10.91,9.75,18.79c-6.75,18.69-33.78,10.12-28.53-9.04
				C641.51,397.59,649.92,393.22,657.8,395.72z"/>
		</g>
	</g>
	<g class="st2">
		<path class="st5" d="M821.68,121.58c11.12,3.52,17.27,15.39,13.75,26.51c-9.52,26.36-47.66,14.27-40.26-12.76
			C798.7,124.21,810.57,118.05,821.68,121.58z"/>
	</g>
	<g class="st2">
		<path class="st5" d="M664.6,141.69c11.12,3.52,17.27,15.39,13.75,26.51c-9.52,26.36-47.66,14.27-40.26-12.76
			C641.61,144.33,653.48,138.17,664.6,141.69z"/>
	</g>
	<g class="st2">
		<path class="st5" d="M940.43,174.78c11.12,3.52,17.27,15.39,13.75,26.51c-9.52,26.36-47.66,14.27-40.26-12.76
			C917.44,177.41,929.31,171.25,940.43,174.78z"/>
	</g>
	<g class="st2">
		<g>
			<path class="st6" d="M849.63,189.35c9.38,2.97,14.58,12.99,11.6,22.37c-8.03,22.25-40.22,12.04-33.97-10.77
				C830.23,191.57,840.25,186.37,849.63,189.35z"/>
		</g>
	</g>
	<g class="st2">
		<g>
			<path class="st3" d="M821.12,237.81c7.88,2.5,12.24,10.91,9.75,18.79c-6.75,18.69-33.78,10.12-28.53-9.04
				C804.83,239.68,813.24,235.31,821.12,237.81z"/>
		</g>
	</g>
	<g class="st2">
		<g>
			<path class="st3" d="M757.89,221.45c7.88,2.5,12.24,10.91,9.75,18.79c-6.75,18.69-33.78,10.12-28.53-9.04
				C741.6,223.32,750.01,218.96,757.89,221.45z"/>
		</g>
	</g>
	<g>
		<path class="st5" d="M681.09,129.32c0,11.66-9.45,21.12-21.12,21.12c-28.01-1.11-28-41.12,0-42.23
			C671.64,108.2,681.09,117.65,681.09,129.32z"/>
	</g>
	<g>
		<path class="st4" d="M791.13,174.53c0,6.13-4.97,11.09-11.09,11.09c-14.71-0.58-14.71-21.6,0-22.18
			C786.16,163.43,791.13,168.4,791.13,174.53z"/>
	</g>
	<g>
		<path class="st4" d="M913.6,364.47c0,6.13-4.97,11.09-11.09,11.09c-14.71-0.58-14.71-21.6,0-22.18
			C908.63,353.38,913.6,358.35,913.6,364.47z"/>
	</g>
	<g>
		<path class="st4" d="M702.71,186.14c0,6.13-4.97,11.09-11.09,11.09c-14.71-0.58-14.71-21.6,0-22.18
			C697.74,175.05,702.71,180.02,702.71,186.14z"/>
	</g>
	<g>
		<path class="st4" d="M981.64,379.78c0,6.13-4.97,11.09-11.09,11.09c-14.71-0.58-14.71-21.6,0-22.18
			C976.67,368.69,981.64,373.66,981.64,379.78z"/>
	</g>
	<g>
		<path class="st6" d="M701.25,330.38c0,9.84-7.98,17.82-17.82,17.82c-23.64-0.94-23.63-34.7,0-35.64
			C693.27,312.56,701.25,320.53,701.25,330.38z"/>
	</g>
	<g>
		<path class="st3" d="M747.78,290.48c0,8.27-6.7,14.97-14.97,14.97c-19.85-0.79-19.85-29.15,0-29.93
			C741.08,275.51,747.78,282.21,747.78,290.48z"/>
	</g>
	<g>
		<path class="st3" d="M616.19,292.62c0,8.27-6.7,14.97-14.97,14.97c-19.85-0.79-19.85-29.15,0-29.93
			C609.49,277.66,616.19,284.36,616.19,292.62z"/>
	</g>
	<g>
		<path class="st5" d="M667.03,233.75c0,11.66-9.45,21.12-21.12,21.12c-28.01-1.11-28-41.12,0-42.23
			C657.57,212.63,667.03,222.09,667.03,233.75z"/>
	</g>
	<g>
		<path class="st5" d="M831.12,288.28c0,11.66-9.45,21.12-21.12,21.12c-28.01-1.11-28-41.12,0-42.23
			C821.67,267.17,831.12,276.62,831.12,288.28z"/>
	</g>
	<g>
		<path class="st5" d="M957.55,437.01c0,11.66-9.45,21.12-21.12,21.12c-28.01-1.11-28-41.12,0-42.23
			C948.09,415.89,957.55,425.35,957.55,437.01z"/>
	</g>
	<g>
		<path class="st5" d="M1000.62,196.23c0,11.66-9.45,21.12-21.12,21.12c-28.01-1.11-28-41.12,0-42.23
			C991.17,175.11,1000.62,184.57,1000.62,196.23z"/>
	</g>
	<g>
		<path class="st4" d="M942.21,302.34c0,6.13-4.97,11.09-11.09,11.09c-14.71-0.58-14.71-21.6,0-22.18
			C937.24,291.25,942.21,296.22,942.21,302.34z"/>
	</g>
	<g>
		<path class="st4" d="M758.71,346.39c0,6.13-4.97,11.09-11.09,11.09c-14.71-0.58-14.71-21.6,0-22.18
			C753.74,335.3,758.71,340.27,758.71,346.39z"/>
	</g>
	<g>
		<path class="st4" d="M866.1,340.97c0,6.13-4.97,11.09-11.09,11.09c-14.71-0.58-14.71-21.6,0-22.18
			C861.13,329.88,866.1,334.85,866.1,340.97z"/>
	</g>
	<g>
		<path class="st4" d="M687.35,472.15c0,6.13-4.97,11.09-11.09,11.09c-14.71-0.58-14.71-21.6,0-22.18
			C682.38,461.06,687.35,466.02,687.35,472.15z"/>
	</g>
	<g>
		<path class="st4" d="M600.98,203.21c0,6.13-4.97,11.09-11.09,11.09c-14.71-0.58-14.71-21.6,0-22.18
			C596.02,192.12,600.98,197.08,600.98,203.21z"/>
	</g>
	<g>
		<path class="st3" d="M836.27,458.22c0,8.27-6.7,14.97-14.97,14.97c-19.85-0.79-19.85-29.15,0-29.93
			C829.57,443.26,836.27,449.96,836.27,458.22z"/>
	</g>
	<g>
		<path class="st3" d="M753.26,470.61c0,8.27-6.7,14.97-14.97,14.97c-19.85-0.79-19.85-29.15,0-29.93
			C746.56,455.64,753.26,462.34,753.26,470.61z"/>
	</g>
	<g>
		<path class="st3" d="M649.91,434.02c0,8.27-6.7,14.97-14.97,14.97c-19.85-0.79-19.85-29.15,0-29.93
			C643.21,419.05,649.91,425.75,649.91,434.02z"/>
	</g>
	<g>
		<path class="st5" d="M824.33,377.36c0,11.66-9.45,21.12-21.12,21.12c-28.01-1.11-28-41.12,0-42.23
			C814.88,356.24,824.33,365.7,824.33,377.36z"/>
	</g>
	<g>
		<path class="st5" d="M757.71,233.69c0,11.66-9.45,21.12-21.12,21.12c-28.01-1.11-28-41.12,0-42.23
			C748.25,212.57,757.71,222.03,757.71,233.69z"/>
	</g>
	<g>
		<path class="st5" d="M809.49,506.63c0,11.66-9.45,21.12-21.12,21.12c-28.01-1.11-28-41.12,0-42.23
			C800.04,485.51,809.49,494.97,809.49,506.63z"/>
	</g>
	<g>
		<path class="st4" d="M900.86,266.59c0,6.13-4.97,11.09-11.09,11.09c-14.71-0.58-14.71-21.6,0-22.18
			C895.89,255.5,900.86,260.47,900.86,266.59z"/>
	</g>
	<g>
		<path class="st4" d="M890.81,494.5c0,6.13-4.97,11.09-11.09,11.09c-14.71-0.58-14.71-21.6,0-22.18
			C885.85,483.41,890.81,488.38,890.81,494.5z"/>
	</g>
	<g>
		<path class="st4" d="M924.39,135.22c0,6.13-4.97,11.09-11.09,11.09c-14.71-0.58-14.71-21.6,0-22.18
			C919.42,124.13,924.39,129.09,924.39,135.22z"/>
	</g>
	<g>
		<path class="st4" d="M572.74,335.15c0,6.13-4.97,11.09-11.09,11.09c-14.71-0.58-14.71-21.6,0-22.18
			C567.78,324.06,572.74,329.03,572.74,335.15z"/>
	</g>
	<g>
		<path class="st4" d="M940.76,406.13c0,6.13-4.97,11.09-11.09,11.09c-14.71-0.58-14.71-21.6,0-22.18
			C935.79,395.03,940.76,400,940.76,406.13z"/>
	</g>
	<g>
		<path class="st6" d="M884.61,416.35c0,9.84-7.98,17.82-17.82,17.82c-23.64-0.94-23.63-34.7,0-35.64
			C876.63,398.53,884.61,406.51,884.61,416.35z"/>
	</g>
	<g>
		<path class="st4" d="M853.16,111.16c3.72,4.87,2.79,11.83-2.08,15.55c-12.05,8.47-24.8-8.24-13.46-17.63
			C842.48,105.36,849.44,106.29,853.16,111.16z"/>
	</g>
	<g>
		<path class="st6" d="M901.46,155.05c5.97,7.82,4.47,19-3.35,24.98c-19.36,13.6-39.84-13.24-21.63-28.33
			C884.3,145.73,895.49,147.23,901.46,155.05z"/>
	</g>
	<g>
		<path class="st3" d="M850.91,171.25c5.02,6.57,3.76,15.96-2.81,20.98c-16.26,11.42-33.46-11.12-18.17-23.79
			C836.5,163.42,845.9,164.68,850.91,171.25z"/>
	</g>
	<g>
		<path class="st6" d="M748.72,127.33c5.97,7.82,4.47,19-3.35,24.98c-19.36,13.6-39.84-13.24-21.63-28.33
			C731.56,118.01,742.75,119.51,748.72,127.33z"/>
	</g>
	<g>
		<path class="st3" d="M858.77,223.6c5.02,6.57,3.76,15.96-2.81,20.98c-16.26,11.42-33.46-11.12-18.17-23.79
			C844.36,215.77,853.75,217.03,858.77,223.6z"/>
	</g>
	<g>
		<path class="st3" d="M788.92,75.27c5.02,6.57,3.76,15.96-2.81,20.98c-16.26,11.42-33.46-11.12-18.17-23.79
			C774.51,67.45,783.9,68.71,788.92,75.27z"/>
	</g>
	<g>
		<path class="st6" d="M768.17,424.47c0,9.84-7.98,17.82-17.82,17.82c-23.64-0.94-23.63-34.7,0-35.64
			C760.19,406.65,768.17,414.63,768.17,424.47z"/>
	</g>
	<g>
		<path class="st6" d="M943.53,228.49c-4.6,8.7-15.39,12.02-24.09,7.41c-20.45-11.89-4.65-41.73,16.68-31.5
			C944.82,209.01,948.14,219.79,943.53,228.49z"/>
	</g>
	<g>
		<path class="st3" d="M961.48,352.45c-3.87,7.31-12.92,10.09-20.23,6.22c-17.18-9.99-3.9-35.05,14.01-26.45
			C962.56,336.09,965.35,345.14,961.48,352.45z"/>
	</g>
	<g>
		<path class="st3" d="M990.55,283.59c-3.87,7.31-12.92,10.09-20.23,6.22c-17.18-9.99-3.9-35.05,14.01-26.45
			C991.63,267.22,994.42,276.28,990.55,283.59z"/>
	</g>
	<g>
		<path class="st3" d="M713.36,411.94c0,8.27-6.7,14.97-14.97,14.97c-19.85-0.79-19.85-29.15,0-29.93
			C706.66,396.97,713.36,403.67,713.36,411.94z"/>
	</g>
	<g>
		<path class="st5" d="M643.34,370.25c0,11.66-9.45,21.12-21.12,21.12c-28.01-1.11-28-41.12,0-42.23
			C633.89,349.14,643.34,358.59,643.34,370.25z"/>
	</g>
	<g class="st2">
		<path class="st5" d="M943.73,400.76c-10.56,4.94-23.13,0.39-28.07-10.18c-10.86-25.84,25.38-42.79,38.25-17.9
			C958.84,383.25,954.29,395.82,943.73,400.76z"/>
	</g>
	<g>
		<path class="st3" d="M634.98,434.02"/>
	</g>
</g>
<g>
	<path d="M502.57,588.64l52.18,175.47h0.92l58.18-175.47h30.48l59.11,175.47h0.92l51.72-175.47h33.25l-68.34,216.1h-34.17
		l-57.72-175h-0.92l-56.8,175h-34.17l-68.34-216.1H502.57z"/>
</g>
<g>
	<path d="M998.49,638.05c-5.24-8.31-12.86-15.16-22.86-20.55c-10.01-5.38-20.86-8.08-32.55-8.08c-12.63,0-24.01,2.24-34.17,6.7
		c-10.16,4.47-18.86,10.62-26.09,18.47c-7.24,7.85-12.78,17.08-16.62,27.71c-3.85,10.62-5.77,22.09-5.77,34.4
		c0,12.32,1.92,23.71,5.77,34.17c3.84,10.47,9.31,19.62,16.39,27.47c7.08,7.85,15.7,14.01,25.86,18.47
		c10.16,4.47,21.54,6.7,34.17,6.7c13.85,0,25.55-2.61,35.09-7.85c9.54-5.23,17.39-12,23.55-20.32l23.55,17.55
		c-9.24,11.39-20.55,20.48-33.94,27.24c-13.39,6.77-29.48,10.16-48.25,10.16c-17.55,0-33.41-2.85-47.56-8.54
		c-14.16-5.69-26.25-13.62-36.25-23.78c-10.01-10.16-17.78-22.16-23.32-36.01c-5.54-13.85-8.31-28.93-8.31-45.25
		c0-16.31,2.77-31.4,8.31-45.25c5.54-13.85,13.31-25.86,23.32-36.02c10-10.16,22.09-18.08,36.25-23.78
		c14.15-5.69,30.01-8.54,47.56-8.54c14.47,0,29.16,3.16,44.1,9.47c14.93,6.31,27.01,15.63,36.25,27.94L998.49,638.05z"/>
</g>
<g>
	<path d="M1073.3,613.58c-0.31-9.24-0.77-17.55-1.39-24.94h30.01c0.61,5.85,1.07,12.32,1.39,19.39c0.3,7.08,0.46,12.93,0.46,17.55
		h0.92c6.16-12.62,15.39-22.86,27.71-30.71c12.31-7.85,26.16-11.78,41.56-11.78c4,0,7.62,0.16,10.85,0.46
		c3.23,0.31,6.54,0.92,9.93,1.85l-4.15,30.01c-1.85-0.61-4.93-1.23-9.24-1.85c-4.32-0.61-8.62-0.92-12.93-0.92
		c-8.31,0-16.32,1.54-24.01,4.61c-7.7,3.07-14.39,7.91-20.09,14.51c-5.7,6.6-10.32,15.04-13.85,25.33
		c-3.54,10.29-5.31,22.65-5.31,37.08v110.55h-31.4V636.2C1073.76,630.36,1073.6,622.81,1073.3,613.58z"/>
</g>
<g>
	<path d="M1396.98,804.74c-0.62-5.84-1.08-12.31-1.39-19.39c-0.31-7.08-0.46-12.93-0.46-17.55h-0.92
		c-6.16,12.63-16.16,22.86-30.01,30.71c-13.85,7.85-28.48,11.77-43.87,11.77c-27.4,0-47.95-8.15-61.64-24.47
		c-13.7-16.31-20.55-37.87-20.55-64.65V588.64h31.4v119.6c0,11.39,0.92,21.7,2.77,30.94c1.85,9.24,5,17.17,9.47,23.78
		c4.46,6.63,10.46,11.78,18.01,15.47c7.54,3.69,17.01,5.54,28.4,5.54c8.31,0,16.39-1.69,24.24-5.08
		c7.85-3.39,14.85-8.54,21.01-15.47c6.15-6.93,11.08-15.7,14.78-26.32c3.69-10.62,5.54-23.16,5.54-37.64V588.64h31.4v168.54
		c0,5.85,0.15,13.39,0.46,22.63c0.3,9.24,0.77,17.55,1.39,24.93H1396.98z"/>
</g>
<g>
	<path d="M312.33,874.36c-2.01-2-3.82-4.19-5.43-6.58c-4.47-6.61-7.62-14.54-9.47-23.78c-1.85-9.24-2.77-19.55-2.77-30.94v-119.6
		h-31.4v132.53c0,26.78,6.85,48.33,20.55,64.65c5.78,6.89,12.81,12.31,21.04,16.29c-0.55-2.64-0.85-5.38-0.85-8.18
		C304,889.57,307.11,881.12,312.33,874.36z"/>
	<path d="M450.74,884.64c-0.31-9.24-0.46-16.77-0.46-22.63c0,0,0-158.29,0-168.54c-13.87,0-16.52,0-31.4,0c0,9.35,0,110.82,0,110.82
		c0,14.47-1.85,27.01-5.54,37.63c-3.69,10.62-8.62,19.39-14.78,26.32c-5.39,6.05-11.41,10.76-18.09,14.11
		c2.26,5.01,3.53,10.55,3.53,16.4c0,2.65-0.27,5.24-0.76,7.75c2.04-0.97,4.07-2.02,6.08-3.16c13.85-7.85,23.85-18.08,30.01-30.71
		h0.92c0,4.62,0.15,10.47,0.46,17.55c0.3,7.09,0.77,13.55,1.39,19.39h30.01C451.5,902.18,451.04,893.87,450.74,884.64z"/>
	<path class="st6" d="M323.53,913.06c4.53,6.45,12.01,10.68,20.48,10.68c8.49,0,15.99-4.25,20.51-10.74
		c-6.22,1.4-12.57,2.1-19.06,2.1C337.57,915.11,330.27,914.41,323.53,913.06z"/>
	<path class="st6" d="M353.3,888.79c4.38,0,8.7-0.48,12.95-1.42c-4.15-8.08-12.56-13.62-22.25-13.62c-7.85,0-14.86,3.64-19.45,9.32
		c0.12,0.06,0.23,0.13,0.36,0.19C332.45,886.95,341.91,888.79,353.3,888.79z"/>
	<path class="st6" d="M323.53,913.06c6.75,1.35,14.05,2.05,21.93,2.05c6.49,0,12.84-0.71,19.06-2.1c2.82-4.05,4.49-8.96,4.49-14.26
		c0-4.1-1-7.96-2.75-11.38c-4.25,0.94-8.57,1.42-12.95,1.42c-11.39,0-20.86-1.85-28.4-5.54c-0.12-0.06-0.23-0.13-0.36-0.19
		c-3.47,4.29-5.55,9.75-5.55,15.68C319,904.07,320.68,909,323.53,913.06z"/>
</g>
<g>
	<path d="M613.62,867.84c-2.09,0.22-2.92,0.38-3.63,0.97c-1.05,0.92-1.6,2.1-1.6,6.37v27.96h-0.99l-24.29-29.63v20.94
		c0,5.56,0.88,6.48,5.12,7.07v1.03h-12.89v-1.03c4.52-0.49,5.34-1.29,5.34-7.07V870.7c-1.82-2.21-2.64-2.86-5.34-2.86v-1.03h9.36
		l21.26,26.07v-18.35c0-2.75-0.22-4.37-1.05-5.29c-0.94-1.03-1.93-1.13-4.35-1.4v-1.03h13.05V867.84z"/>
	<path d="M640.16,900.6c-2.81,0.76-4.79,1.35-7.54,2.43l-0.28-0.16v-4.43h-0.11c-2.7,3.62-5.84,4.64-7.88,4.64
		c-4.24,0-6.72-2.75-6.72-6.91v-13.55c0-2.7-0.77-3.45-3.41-3.62v-0.76h8.04v17.43c0,2.48,1.76,4.26,3.91,4.26
		c1.6,0,3.25-0.49,4.63-1.67c0.88-0.76,1.27-1.24,1.27-3.13v-12.47c0-2.86-0.77-3.29-4.08-3.51v-0.92h8.7v18.51
		c0,2.48,0.61,3.08,3.14,3.08h0.33V900.6z"/>
	<path d="M656.52,902.55l0.06-0.81c2.75-0.22,3.41-1.29,3.41-4.86v-10.74c0-3.83-1.32-5.45-4.02-5.45c-1.82,0-3.14,0.65-5.67,3.08
		v14.9c0,2.1,0.77,2.86,3.58,3.08v0.81h-11.62v-0.81c2.81-0.22,3.41-1.08,3.41-4.26v-13.12c0-2.64-0.39-3.51-1.93-3.51
		c-0.61,0-1.21,0.05-1.6,0.22v-0.92c3.03-0.86,4.85-1.46,7.54-2.43l0.44,0.16v4.21h0.06c2.86-3.18,5.4-4.37,7.93-4.37
		c4.19,0,6.5,2.97,6.5,8.31v11.93c0,2.92,0.66,3.51,3.36,3.78v0.81H656.52z"/>
	<path d="M693.13,900.5c-1.65,2.05-3.08,2.59-4.96,2.59c-2.04,0-3.25-1.08-3.52-3.94h-0.06c-2.92,3.24-5.62,3.94-7.98,3.94
		c-3.41,0-5.78-2.05-5.78-5.61c0-2.81,1.71-4.91,3.85-6.31c1.65-1.08,3.69-2.1,9.91-4.37v-2.91c0-3.35-1.82-4.86-4.3-4.86
		c-2.2,0-3.85,1.19-3.85,2.64c0,0.97,0.33,1.13,0.33,2.27c0,1.03-1.1,2.21-2.53,2.21c-1.16,0-2.37-1.03-2.37-2.48
		c0-1.4,0.88-3.13,2.81-4.32c1.54-0.97,3.85-1.62,6.33-1.62c3.08,0,5.18,0.86,6.5,2.43c1.32,1.56,1.54,2.7,1.54,5.99v10.31
		c0,2.48,0.72,3.56,1.71,3.56c0.88,0,1.43-0.27,2.37-1.03V900.5z M684.6,888.08c-3.41,1.19-5.67,2.32-7.05,3.56
		c-1.32,1.19-1.87,2.48-1.87,4.16c0,2.86,1.65,4.16,3.8,4.16c1.1,0,2.26-0.27,3.19-0.86c1.6-1.08,1.93-1.83,1.93-3.4V888.08z"/>
	<path d="M717.75,879.07c-1.65,0.16-2.09,0.59-3.58,4.21l-7.05,17.32c-0.83,2-1.21,2.7-1.54,2.7s-0.61-0.43-0.99-1.4
		c-0.17-0.27-0.22-0.65-0.44-1.13l-6.61-15.49c-2.37-5.56-2.92-6.1-5.01-6.21v-0.81h10.79v0.81c-1.87,0.16-2.53,0.54-2.53,1.46
		c0,0.54,0.17,1.24,0.5,2.05l5.62,13.82l5.45-13.98c0.22-0.54,0.33-1.08,0.33-1.62c0-1.03-0.83-1.57-2.59-1.73v-0.81h7.65V879.07z"
		/>
	<path d="M745.44,900.6c-2.81,0.76-4.79,1.35-7.54,2.43l-0.28-0.16v-4.43h-0.11c-2.7,3.62-5.84,4.64-7.87,4.64
		c-4.24,0-6.72-2.75-6.72-6.91v-13.55c0-2.7-0.77-3.45-3.41-3.62v-0.76h8.04v17.43c0,2.48,1.76,4.26,3.91,4.26
		c1.6,0,3.25-0.49,4.63-1.67c0.88-0.76,1.27-1.24,1.27-3.13v-12.47c0-2.86-0.77-3.29-4.08-3.51v-0.92h8.7v18.51
		c0,2.48,0.61,3.08,3.14,3.08h0.33V900.6z"/>
	<path d="M761.9,898.98c-1.82,2.81-3.91,4.1-6.66,4.1c-3.19,0-4.85-2.32-4.85-6.85v-16.25h-2.92c-0.17-0.11-0.22-0.22-0.22-0.38
		c0-0.32,0.33-0.65,0.94-1.03c1.43-0.81,3.25-2.81,5.34-5.77c0.33-0.49,0.77-0.97,1.1-1.51c0.28,0,0.39,0.16,0.39,0.7v6.26h5.56
		v1.73h-5.56v15.44c0,3.45,0.83,4.86,2.86,4.86c1.21,0,2.09-0.49,3.3-1.89L761.9,898.98z"/>
	<path d="M826.94,867.84c-2.92,0.54-3.52,0.97-4.57,3.78c-6,15.87-6.55,17.43-11.23,31.52h-0.83c-2.81-7.66-5.95-15.65-8.81-22.83
		l-8.48,22.83h-0.83c-3.36-9.71-7.32-19.75-10.57-28.82c-1.82-5.13-2.92-6.42-5.73-6.48v-1.03h13.44v1.03
		c-2.81,0.05-3.52,0.54-3.52,1.67c0,0.65,0.22,1.51,0.61,2.54l7.93,20.29l5.73-15.27l-1.54-4.05c-1.82-4.75-2.48-5.13-5.62-5.18
		v-1.03h14.59v1.03c-2.75,0.05-4.24,0.76-4.24,1.89c0,0.59,0.44,1.84,0.94,3.13l7.88,19.65l6.94-18.3c0.61-1.67,0.94-3.02,0.94-4.16
		c0-1.46-1.05-2.16-3.85-2.21v-1.03h10.85V867.84z"/>
	<path d="M827.76,902.55v-0.81c3.8-0.22,4.35-0.7,4.35-4.8v-12.25c0-2.54-0.44-3.4-1.82-3.4c-0.5,0-1.32,0-2.31,0.27v-0.86
		l8.54-2.97l0.22,0.22v18.94c0,3.99,0.44,4.59,4.08,4.86v0.81H827.76z M833.92,871.19c-1.54,0-2.75-1.19-2.75-2.75
		c0-1.51,1.27-2.75,2.81-2.75c1.6,0,2.81,1.24,2.81,2.75C836.79,870,835.58,871.19,833.92,871.19z"/>
	<path d="M843.34,902.55v-0.81c3.47-0.27,4.24-1.19,4.24-4.16v-25.31c0-2.59-0.55-3.45-2.31-3.45c-0.44,0-1.16,0-2.04,0.11v-0.86
		c3.8-0.92,5.84-1.46,8.7-2.37l0.28,0.22v31.95c0,2.97,0.61,3.67,4.13,3.89v0.81H843.34z"/>
	<path d="M876.43,903.09l-0.22-0.16v-3.45c-1.87,2.54-3.96,3.62-7.05,3.62c-6.11,0-10.19-4.7-10.19-11.6
		c0-7.66,5.12-13.76,11.45-13.76c2.2,0,3.69,0.59,5.78,2.32v-8.42c0-2.21-0.5-2.75-2.53-2.75c-0.44,0-0.77,0-1.21,0.05v-0.86
		c3.52-0.92,5.45-1.46,8.1-2.37l0.28,0.11v30.6c0,2.48,0.44,3.08,2.42,3.08c0.28,0,0.33,0,1.27-0.05v0.86L876.43,903.09z
		 M876.21,884.63c0-2.86-2.64-5.4-5.62-5.4c-4.19,0-6.88,3.99-6.88,10.09c0,6.64,2.97,10.96,7.6,10.96c1.71,0,3.08-0.59,4.08-1.73
		c0.5-0.54,0.83-1.13,0.83-1.51V884.63z"/>
	<path d="M886.18,902.55v-0.81c3.47-0.27,4.24-1.19,4.24-4.16v-25.31c0-2.59-0.55-3.45-2.31-3.45c-0.44,0-1.16,0-2.04,0.11v-0.86
		c3.8-0.92,5.84-1.46,8.7-2.37l0.28,0.22v31.95c0,2.97,0.61,3.67,4.13,3.89v0.81H886.18z"/>
	<path d="M901.21,902.55v-0.81c3.8-0.22,4.35-0.7,4.35-4.8v-12.25c0-2.54-0.44-3.4-1.82-3.4c-0.5,0-1.32,0-2.31,0.27v-0.86
		l8.54-2.97l0.22,0.22v18.94c0,3.99,0.44,4.59,4.08,4.86v0.81H901.21z M907.38,871.19c-1.54,0-2.75-1.19-2.75-2.75
		c0-1.51,1.27-2.75,2.81-2.75c1.6,0,2.81,1.24,2.81,2.75C910.24,870,909.03,871.19,907.38,871.19z"/>
	<path d="M921.31,878.26c0.06-4.32,0.5-6.26,1.93-8.69s4.29-3.89,7.76-3.89c3.3,0,5.73,1.4,5.73,3.35c0,1.24-0.99,2.21-2.31,2.21
		c-0.94,0-1.6-0.49-2.48-1.94c-0.99-1.56-1.71-2.1-2.92-2.1c-2.09,0-3.08,1.62-3.08,4.8v6.26h6.72v1.73h-6.72v16.95
		c0,4.05,0.61,4.64,5.12,4.8v0.81h-14.32v-0.81c3.96-0.22,4.57-0.86,4.57-4.8v-16.95h-4.52v-1.73H921.31z"/>
	<path d="M955.45,894.07c-2.15,5.88-6,9.01-11.51,9.01c-6.5,0-10.46-4.8-10.46-12.25c0-7.61,4.46-13.11,11.4-13.11
		c3.41,0,5.89,1.29,7.65,3.72c1.1,1.51,1.65,3.24,1.87,6.15h-16.96c0.28,4.1,0.55,6.21,2.53,8.8c1.54,2,3.58,2.97,6.11,2.97
		c3.69,0,5.78-1.67,8.48-5.67L955.45,894.07z M948.79,885.87c-0.61-4.37-1.76-6.21-5.4-6.21c-3.08,0-5.23,2.16-5.84,6.21H948.79z"/>
	<path d="M1005.17,896.45c-3.19,4.48-8.54,6.85-15.03,6.85c-5.01,0-9.8-1.73-13-4.8c-3.36-3.24-5.29-8.15-5.29-13.49
		c0-5.4,1.82-9.88,4.96-13.33c3.52-3.83,8.26-5.61,13.38-5.61c2.15,0,4.35,0.22,6.55,0.81c1.16,0.32,2.86,0.97,3.8,0.97
		c1.05,0,1.98-0.65,2.31-1.78h1.1l0.5,12.25h-1.27c-0.66-2.97-1.49-4.53-2.86-5.99c-2.42-2.54-5.29-4.1-8.87-4.1
		c-8.32,0-13.22,6.58-13.22,15.92c0,5.94,1.38,10.15,3.96,12.9c2.42,2.54,6,3.89,9.8,3.89c4.96,0,7.99-1.62,12.12-5.45
		L1005.17,896.45z"/>
	<path d="M1020.53,903.09c-6.66,0-11.9-5.34-11.9-12.85c0-7.5,4.96-12.52,12.39-12.52c6.72,0,11.9,4.91,11.9,12.36
		C1032.92,897.58,1027.96,903.09,1020.53,903.09z M1025.21,881.93c-1.32-1.62-2.86-2.7-5.23-2.7c-3.8,0-6.39,3.18-6.39,8.58
		c0,4.26,0.88,8.15,2.92,11.06c1.21,1.73,2.97,2.7,4.96,2.7c4.08,0,6.5-3.78,6.5-10.04
		C1027.96,887.87,1026.97,884.14,1025.21,881.93z"/>
	<path d="M1048.06,903.09c-6.66,0-11.9-5.34-11.9-12.85c0-7.5,4.96-12.52,12.39-12.52c6.72,0,11.9,4.91,11.9,12.36
		C1060.45,897.58,1055.5,903.09,1048.06,903.09z M1052.74,881.93c-1.32-1.62-2.86-2.7-5.23-2.7c-3.8,0-6.39,3.18-6.39,8.58
		c0,4.26,0.88,8.15,2.92,11.06c1.21,1.73,2.97,2.7,4.96,2.7c4.08,0,6.5-3.78,6.5-10.04C1055.5,887.87,1054.5,884.14,1052.74,881.93z
		"/>
	<path d="M1070.86,881.98c2.42-2.97,4.85-4.26,7.93-4.26c5.34,0,9.2,4.8,9.2,11.5c0,7.83-5.01,13.87-11.56,13.87
		c-2.31,0-3.58-0.54-5.56-2.32v8.47c0,3.4,0.72,3.99,4.85,4.05v0.97h-13.33v-0.92c3.25-0.32,3.85-0.92,3.85-3.72v-25.26
		c0-2.54-0.38-3.08-2.26-3.08c-0.5,0-0.88,0-1.38,0.05v-0.86c3.03-0.92,5.01-1.62,7.93-2.75l0.33,0.11V881.98z M1070.86,897.8
		c0,1.62,3.14,3.56,5.73,3.56c3.96,0,6.66-4.05,6.66-9.98c0-6.31-2.7-10.42-6.77-10.42c-2.53,0-5.62,1.94-5.62,3.56V897.8z"/>
	<path d="M1130.82,902.55l-13.11-16.62l-3.08,0.11v10.47c0,4.1,0.66,4.75,4.9,5.02v1.03h-15.2v-1.03c4.13-0.32,4.68-0.92,4.68-5.67
		v-23.04c0-3.99-0.44-4.64-4.68-4.97v-1.03h14.98c5.23,0,9.14,1.3,11.51,3.18c1.82,1.46,2.7,4.1,2.7,6.48c0,4.7-3.08,7.83-9.97,8.85
		l11.01,13.65c1.6,2,2.75,2.32,5.18,2.54v1.03H1130.82z M1114.63,884.04c5.29-0.11,7.21-0.49,9.75-1.83
		c1.98-1.08,3.14-3.45,3.14-6.15c0-4.86-3.25-7.23-10.08-7.23c-1.87,0-2.81,0.38-2.81,2.27V884.04z"/>
	<path d="M1162.7,894.07c-2.15,5.88-6,9.01-11.51,9.01c-6.5,0-10.46-4.8-10.46-12.25c0-7.61,4.46-13.11,11.4-13.11
		c3.41,0,5.89,1.29,7.65,3.72c1.1,1.51,1.65,3.24,1.87,6.15h-16.96c0.28,4.1,0.55,6.21,2.53,8.8c1.54,2,3.58,2.97,6.11,2.97
		c3.69,0,5.78-1.67,8.48-5.67L1162.7,894.07z M1156.04,885.87c-0.61-4.37-1.76-6.21-5.4-6.21c-3.08,0-5.23,2.16-5.84,6.21H1156.04z"
		/>
	<path d="M1178.12,889.7c3.52,2.1,4.85,3.56,4.85,6.64c0,3.62-3.52,6.75-7.71,6.75c-1.16,0-2.75-0.05-4.02-0.49
		c-1.32-0.43-1.93-0.49-2.53-0.49c-0.66,0-0.99,0.11-1.32,0.65h-0.72v-8.47h0.88c1.16,5.24,3.19,7.61,6.99,7.61
		c2.81,0,4.57-1.78,4.57-3.99c0-1.67-1.1-3.08-2.92-4.05l-2.97-1.62c-4.57-2.48-6.61-5.07-6.61-7.83c0-4.26,3.08-6.64,7.6-6.64
		c1.32,0,2.53,0.05,3.69,0.59c0.61,0.27,1.16,0.43,1.54,0.43c0.22,0,0.44-0.05,0.88-0.54h0.61l0.28,7.34h-0.83
		c-1.27-4.86-2.92-6.64-6.22-6.64c-2.37,0-4.13,1.13-4.13,3.67c0,1.19,0.83,2.75,2.37,3.67L1178.12,889.7z"/>
	<path d="M1208.57,894.07c-2.15,5.88-6,9.01-11.51,9.01c-6.5,0-10.46-4.8-10.46-12.25c0-7.61,4.46-13.11,11.4-13.11
		c3.41,0,5.89,1.29,7.65,3.72c1.1,1.51,1.65,3.24,1.87,6.15h-16.96c0.28,4.1,0.55,6.21,2.53,8.8c1.54,2,3.58,2.97,6.11,2.97
		c3.69,0,5.78-1.67,8.48-5.67L1208.57,894.07z M1201.91,885.87c-0.61-4.37-1.76-6.21-5.4-6.21c-3.08,0-5.23,2.16-5.84,6.21H1201.91z
		"/>
	<path d="M1234.01,900.5c-1.65,2.05-3.08,2.59-4.96,2.59c-2.04,0-3.25-1.08-3.53-3.94h-0.05c-2.92,3.24-5.62,3.94-7.99,3.94
		c-3.41,0-5.78-2.05-5.78-5.61c0-2.81,1.71-4.91,3.86-6.31c1.65-1.08,3.69-2.1,9.91-4.37v-2.91c0-3.35-1.82-4.86-4.29-4.86
		c-2.2,0-3.86,1.19-3.86,2.64c0,0.97,0.33,1.13,0.33,2.27c0,1.03-1.1,2.21-2.53,2.21c-1.16,0-2.37-1.03-2.37-2.48
		c0-1.4,0.88-3.13,2.81-4.32c1.54-0.97,3.85-1.62,6.33-1.62c3.08,0,5.18,0.86,6.5,2.43c1.32,1.56,1.54,2.7,1.54,5.99v10.31
		c0,2.48,0.72,3.56,1.71,3.56c0.88,0,1.43-0.27,2.37-1.03V900.5z M1225.47,888.08c-3.41,1.19-5.67,2.32-7.05,3.56
		c-1.32,1.19-1.87,2.48-1.87,4.16c0,2.86,1.65,4.16,3.8,4.16c1.1,0,2.26-0.27,3.19-0.86c1.6-1.08,1.93-1.83,1.93-3.4V888.08z"/>
	<path d="M1242.92,882.79c2.75-3.89,4.3-5.07,6.61-5.07c1.87,0,3.03,1.08,3.03,2.86c0,1.51-0.83,2.43-2.15,2.43
		c-0.72,0-1.32-0.27-2.2-1.08c-0.61-0.54-1.1-0.81-1.43-0.81c-1.54,0-3.86,2.7-3.86,4.42v12.14c0,3.08,0.94,3.89,4.68,4.05v0.81
		h-13.22v-0.81c3.52-0.65,3.91-1.03,3.91-3.72v-13.49c0-2.37-0.5-3.24-1.87-3.24c-0.66,0-1.16,0.05-1.93,0.22v-0.86
		c3.25-1.03,5.23-1.78,8.15-2.91l0.27,0.11V882.79z"/>
	<path d="M1275.03,894.61c-1.76,3.35-2.86,4.91-4.52,6.21c-1.87,1.51-3.96,2.27-6.33,2.27c-6.11,0-10.46-5.02-10.46-11.98
		c0-4.48,1.65-8.2,4.63-10.63c2.2-1.78,4.85-2.75,7.43-2.75c4.63,0,8.48,2.54,8.48,5.56c0,1.24-1.16,2.27-2.59,2.27
		c-1.21,0-2.2-0.92-2.64-2.48l-0.33-1.19c-0.55-2-1.27-2.59-3.25-2.59c-4.46,0-7.49,3.78-7.49,9.39c0,6.21,3.47,10.52,8.54,10.52
		c3.14,0,5.12-1.3,7.76-5.07L1275.03,894.61z"/>
	<path d="M1291.05,902.55v-0.81c3.19-0.32,3.75-0.97,3.75-4.7v-10.69c0-3.78-1.38-5.72-4.08-5.72c-2.2,0-3.85,0.92-6.17,3.4v13.01
		c0,3.72,0.55,4.37,3.75,4.7v0.81h-11.89v-0.81c3.19-0.43,3.52-0.92,3.52-4.7v-25.42c0-2.32-0.44-2.75-2.81-2.75
		c-0.22,0-0.5,0-0.66,0.05v-0.86l1.49-0.43c3.14-0.92,4.41-1.29,6.33-1.94l0.28,0.16v16.41c2.53-3.24,4.85-4.53,8.1-4.53
		c4.52,0,6.77,2.91,6.77,8.58v10.74c0,3.72,0.33,4.16,3.3,4.7v0.81H1291.05z"/>
	<path d="M1356.03,867.84c-4.62,0.43-5.18,1.73-5.18,6.85v13.76c0,5.23-0.5,8.15-2.97,10.9c-2.31,2.59-6.06,3.94-11.12,3.94
		c-4.02,0-7.1-0.81-9.36-2.48c-3.03-2.21-4.46-5.99-4.46-11.71v-16.73c0-3.62-0.61-4.21-4.96-4.53v-1.03h15.58v1.03
		c-4.41,0.38-5.01,1.03-5.01,5.07v16.84c0,4.21,0.22,6.64,2.42,8.74c1.6,1.51,3.91,2.43,7.05,2.43c3.52,0,6.61-1.19,8.37-3.18
		c1.82-2.16,2.04-4.32,2.04-8.69v-14.19c0-5.56-0.72-6.75-5.18-7.02v-1.03h12.78V867.84z"/>
	<path d="M1371.11,902.55l0.06-0.81c2.75-0.22,3.41-1.29,3.41-4.86v-10.74c0-3.83-1.32-5.45-4.02-5.45c-1.82,0-3.14,0.65-5.67,3.08
		v14.9c0,2.1,0.77,2.86,3.58,3.08v0.81h-11.62v-0.81c2.81-0.22,3.41-1.08,3.41-4.26v-13.12c0-2.64-0.38-3.51-1.93-3.51
		c-0.61,0-1.21,0.05-1.6,0.22v-0.92c3.03-0.86,4.85-1.46,7.54-2.43l0.44,0.16v4.21h0.05c2.86-3.18,5.4-4.37,7.93-4.37
		c4.18,0,6.5,2.97,6.5,8.31v11.93c0,2.92,0.66,3.51,3.36,3.78v0.81H1371.11z"/>
	<path d="M1384.27,902.55v-0.81c3.8-0.22,4.35-0.7,4.35-4.8v-12.25c0-2.54-0.44-3.4-1.82-3.4c-0.5,0-1.32,0-2.31,0.27v-0.86
		l8.54-2.97l0.22,0.22v18.94c0,3.99,0.44,4.59,4.08,4.86v0.81H1384.27z M1390.44,871.19c-1.54,0-2.75-1.19-2.75-2.75
		c0-1.51,1.27-2.75,2.81-2.75c1.6,0,2.81,1.24,2.81,2.75C1393.3,870,1392.09,871.19,1390.44,871.19z"/>
	<path d="M1414.06,898.98c-1.82,2.81-3.91,4.1-6.66,4.1c-3.19,0-4.85-2.32-4.85-6.85v-16.25h-2.92c-0.17-0.11-0.22-0.22-0.22-0.38
		c0-0.32,0.33-0.65,0.94-1.03c1.43-0.81,3.25-2.81,5.34-5.77c0.33-0.49,0.77-0.97,1.1-1.51c0.28,0,0.39,0.16,0.39,0.7v6.26h5.56
		v1.73h-5.56v15.44c0,3.45,0.83,4.86,2.86,4.86c1.21,0,2.09-0.49,3.3-1.89L1414.06,898.98z"/>
</g>
<g>
	<path d="M168.47,572.27c-13.81,7.84-23.79,18.06-29.94,30.66h-0.92c0-4.62-0.16-10.46-0.46-17.55c-0.31-7.08-0.77-13.54-1.39-19.39
		h-30.01c0.61,7.39,1.07,15.7,1.39,24.94c0.3,9.24,0.46,16.78,0.46,22.63v168.54H139V671.27c0-14.47,1.85-27.01,5.54-37.63
		c3.69-10.62,8.61-19.39,14.78-26.32c4.24-4.77,8.9-8.69,13.95-11.78c-3.18-5.73-4.99-12.32-4.99-19.32
		C168.28,574.88,168.34,573.57,168.47,572.27z"/>
	<path d="M274.06,584.92c-7.16-8.52-16.2-14.8-27.1-18.87c0.85,3.25,1.31,6.65,1.31,10.17c0,8-2.37,15.45-6.43,21.71
		c3.53,2.82,6.59,6.09,9.13,9.85c4.46,6.62,7.62,14.55,9.47,23.78c1.85,9.24,2.77,19.55,2.77,30.94v119.59h31.4V649.57
		C294.61,622.78,287.76,601.24,274.06,584.92z"/>
	<path class="st6" d="M187.05,589.4c4.42,7.09,12.28,11.82,21.23,11.82c8.46,0,15.95-4.23,20.47-10.68
		c-6.77-2.5-14.81-3.77-24.18-3.77C198.61,586.77,192.77,587.65,187.05,589.4z"/>
	<path class="st6" d="M228.47,561.51c-4.55-6.23-11.91-10.29-20.2-10.29c-9.55,0-17.86,5.38-22.07,13.27
		c8.47-2.68,17.21-4.04,26.21-4.04C218.07,560.45,223.41,560.81,228.47,561.51z"/>
	<path class="st6" d="M187.05,589.4c5.72-1.74,11.56-2.63,17.52-2.63c9.37,0,17.41,1.27,24.18,3.77c2.85-4.06,4.53-9,4.53-14.32
		c0-5.5-1.79-10.58-4.8-14.71c-5.07-0.69-10.41-1.06-16.05-1.06c-9,0-17.74,1.35-26.21,4.04c-1.87,3.5-2.93,7.5-2.93,11.73
		C183.28,581.05,184.66,585.57,187.05,589.4z"/>
</g>
<g>
	<path class="st7" d="M450.29,862.71"/>
</g>
<g>
	<path class="st7" d="M151.56,616.89"/>
</g>
</svg>
