<?xml version="1.0" encoding="utf-8"?>
<!-- Generator: Adobe Illustrator 24.1.0, SVG Export Plug-In . SVG Version: 6.00 Build 0)  -->
<svg version="1.1" id="Layer_1" xmlns="http://www.w3.org/2000/svg" xmlns:xlink="http://www.w3.org/1999/xlink" x="0px" y="0px"
	 viewBox="0 0 1574.07 1500" style="enable-background:new 0 0 1574.07 1500;" xml:space="preserve">
<style type="text/css">
	.st0{opacity:0.41;}
	.st1{fill:#BBBBBB;}
	.st2{opacity:0.14;}
	.st3{fill:#626262;}
	.st4{fill:#A5A5A5;}
	.st5{fill:#1F1F1F;}
	.st6{fill:#444444;}
	.st7{fill:#ADADAD;}
	.st8{fill:none;stroke:#9C9C9C;stroke-width:10;stroke-miterlimit:10;}
</style>
<g>
	<g class="st0">
		<g>
			<g>
				<path class="st1" d="M912.39,523.46l-46.85-36.96l43.79-72.38l0.1,5.19c0.02,0.94,1.78,94.43,2.52,100.54L912.39,523.46z
					 M869.47,485.79l39.28,30.98c-0.72-15.49-1.88-74.18-2.23-92.22L869.47,485.79z"/>
			</g>
		</g>
		<g>
			<g>
				
					<rect x="751.52" y="684.16" transform="matrix(0.2939 -0.9559 0.9559 0.2939 -178.2868 1244.3098)" class="st1" width="3" height="117.32"/>
			</g>
		</g>
		<g>
			<g>
				<path class="st1" d="M755.84,393.2l-81.34-9.68l127.72-49.06L755.84,393.2z M686.89,381.97l67.64,8.05l38.56-48.85
					L686.89,381.97z"/>
			</g>
		</g>
		<g>
			<g>
				<path class="st1" d="M658.42,693.71l-81.6-110.06l67.47,39.08L658.42,693.71z M587.87,593.52l65,87.67l-11.26-56.54
					L587.87,593.52z"/>
			</g>
		</g>
		<g>
			<g>
				
					<rect x="696.94" y="723.31" transform="matrix(0.9997 -0.0251 0.0251 0.9997 -17.9389 18.4746)" class="st1" width="62.07" height="3"/>
			</g>
		</g>
		<g>
			<g>
				
					<rect x="782.54" y="711.2" transform="matrix(0.5838 -0.8119 0.8119 0.5838 -276.1583 945.3511)" class="st1" width="3" height="61.7"/>
			</g>
		</g>
		<g>
			<g>
				
					<rect x="965.33" y="374.33" transform="matrix(0.6806 -0.7326 0.7326 0.6806 1.6937 842.2084)" class="st1" width="3" height="89.65"/>
			</g>
		</g>
		<g>
			<g>
				<path class="st1" d="M992.43,637.82l-25.22-38.8l32.84-77.79L992.43,637.82z M970.6,598.72l19.43,29.89l5.87-89.83L970.6,598.72
					z"/>
			</g>
		</g>
		<g>
			<g>
				<path class="st1" d="M805.36,762.07l83.1-95.68l13.69,82.83L805.36,762.07z M886.54,673.18l-73.72,84.88l85.86-11.4
					L886.54,673.18z"/>
			</g>
		</g>
		<g>
			<g>
				<polygon class="st1" points="999.48,530.04 996.48,529.97 998.1,452.82 911.39,521.2 909.53,518.85 1001.24,446.53 				"/>
			</g>
		</g>
		<g>
			<g>
				<polygon class="st1" points="858.39,434.61 793.42,334.04 865.65,370 864.32,372.69 801.88,341.6 860.91,432.98 				"/>
			</g>
		</g>
		<g>
			<g>
				<polygon class="st1" points="758,488.45 756.61,485.79 860.82,431.5 868.99,485.92 866.02,486.36 858.48,436.1 				"/>
			</g>
		</g>
		<g>
			<g>
				<polygon class="st1" points="769.56,677.96 766.95,604.12 720.29,666.27 717.89,664.47 769.65,595.53 772.56,677.85 				"/>
			</g>
		</g>
		<g>
			<g>
				<path class="st1" d="M956.99,693.64l-36.44-77.87l73.04,16.43L956.99,693.64z M925.85,620.04l31.45,67.2l31.58-53.02
					L925.85,620.04z"/>
			</g>
		</g>
		<g>
			<g>
				<polygon class="st1" points="697.76,726.84 696.13,724.32 767.3,678.54 718.74,666.82 719.44,663.91 774.82,677.27 				"/>
			</g>
		</g>
		<g>
			<g>
				<polygon class="st1" points="703.51,585.17 619.59,546.64 665.43,486.27 667.82,488.09 624.25,545.47 704.76,582.44 				"/>
			</g>
		</g>
		<g>
			<g>
				<path class="st1" d="M645.34,626.81l-65.38-37.87l42.7-45.88L645.34,626.81z M584.72,588.23l55.82,32.33l-19.37-71.51
					L584.72,588.23z"/>
			</g>
		</g>
		<g>
			<g>
				<path class="st1" d="M579.74,593.59l31.22-145.88l12.54,98.86L579.74,593.59z M610.2,465.58l-25.26,118.01l35.4-38.04
					L610.2,465.58z"/>
			</g>
		</g>
		<g>
			<g>
				<path class="st1" d="M667.82,489.54l-59.67-32.52l74.65-78.67L667.82,489.54z M613.01,456.26l52.42,28.57l13.15-97.68
					L613.01,456.26z"/>
			</g>
		</g>
		<g>
			<g>
				<path class="st1" d="M757.45,489.46l-48.26-50.98l94.82-12.46L757.45,489.46z M715.41,440.68l41.75,44.1l40.27-54.88
					L715.41,440.68z"/>
			</g>
		</g>
		<g>
			<g>
				<path class="st1" d="M824.03,632.56L763,598.59l117.8-5.95L824.03,632.56z M773.6,601.06l50.24,27.96l46.74-32.86L773.6,601.06z
					"/>
			</g>
		</g>
		<g>
			<g>
				<path class="st1" d="M877.3,598.68l-2.75-3.31l-46.5-54.49l85.23-23.19l-1.47,2.99c-13.68,27.73-34.2,70.25-34.61,73.76
					L877.3,598.68z M833.4,542.54l41.7,48.86c4.45-11.72,24.13-51.97,32.54-69.05L833.4,542.54z"/>
			</g>
		</g>
		<g>
			<g>
				<path class="st1" d="M923.91,619.93l-51.57-25.51l82.63-41.94L923.91,619.93z M879.04,594.39l43.44,21.49l26.16-56.81
					L879.04,594.39z"/>
			</g>
		</g>
		<g>
			<g>
				<path class="st1" d="M834.19,545.46l-81.41-59.8l117.36-1.04L834.19,545.46z M761.83,488.58l71.47,52.5l31.57-53.42
					L761.83,488.58z"/>
			</g>
		</g>
		<g>
			<g>
				<path class="st1" d="M721.14,668.2l-81.11-44.4l65.18-42.48L721.14,668.2z M645.86,623.57l71.19,38.96l-13.98-76.24
					L645.86,623.57z"/>
			</g>
		</g>
		<g>
			<g>
				<path class="st1" d="M951.62,557.6l-45.82-39.61l96.97,11.06L951.62,557.6z M915.11,522.06l36.88,31.89l41.18-22.99
					L915.11,522.06z"/>
			</g>
		</g>
		<g>
			<g>
				<path class="st1" d="M899.47,750.99l-17.78-87.9l78.16,26.7L899.47,750.99z M885.67,667.62l15.62,77.25l53.07-53.79
					L885.67,667.62z"/>
			</g>
		</g>
		<g>
			<g>
				<path class="st1" d="M808.78,763.09l-40.88-88.33l76.28,36.29L808.78,763.09z M774.12,681.04l35.16,75.99l30.46-44.77
					L774.12,681.04z"/>
			</g>
		</g>
		<g>
			<g>
				<path class="st1" d="M755.74,726.03l68.86-98.9l19.19,85.77L755.74,726.03z M823.16,634.45l-60.98,87.59l77.98-11.63
					L823.16,634.45z"/>
			</g>
		</g>
		<g>
			<g>
				<path class="st1" d="M697.55,728.21l-44.8-41.35l68.81-23.95L697.55,728.21z M658.46,688.04l37.83,34.91l20.27-55.13
					L658.46,688.04z"/>
			</g>
		</g>
		<g>
			<g>
				<path class="st1" d="M703.44,586.26l-39.95-102.89l92.53,60.41L703.44,586.26z M669.66,490.99l35.09,90.36l46.18-37.31
					L669.66,490.99z"/>
			</g>
		</g>
		<g>
			<g>
				<polygon class="st1" points="754.97,544.01 751.97,543.81 755.65,488.62 666.57,488.68 666.57,485.68 758.85,485.62 				"/>
			</g>
		</g>
		<g>
			<g>
				<path class="st1" d="M712.22,440l-0.17-0.31l-31.88-57.26l75.55,8.94l-0.32,0.36L712.22,440z M681.09,383.05l31.23,56.1
					l42.39-47.38L681.09,383.05z"/>
			</g>
		</g>
		<g>
			<g>
				<path class="st1" d="M802.3,431.16l-49.19-39.35l45.93-58.18L802.3,431.16z M757.32,391.34l41.77,33.41l-2.77-82.81
					L757.32,391.34z"/>
			</g>
		</g>
		<g>
			<g>
				
					<rect x="831.01" y="401.05" transform="matrix(0.085 -0.9964 0.9964 0.085 387.9651 1227.5566)" class="st1" width="62.67" height="3"/>
			</g>
		</g>
		<g>
			<g>
				<path class="st1" d="M907.99,421.58l-47.37-52.9l76.04,19.11L907.99,421.58z M869.39,373.97l38.54,43.04l23.33-27.49
					L869.39,373.97z"/>
			</g>
		</g>
		<g>
			<g>
				<path class="st1" d="M947.97,475.46l-44.07-59.09l99.79,33.06L947.97,475.46z M912.01,422.22l36.91,49.49l46.67-21.8
					L912.01,422.22z"/>
			</g>
		</g>
		<g>
			<g>
				<path class="st1" d="M767.44,602.53l-15.91-60.1l86.29-0.69L767.44,602.53z M755.42,545.4l13.69,51.72l60.57-52.31L755.42,545.4
					z"/>
			</g>
		</g>
		<g class="st2">
			<g>
				<g>
					<path class="st3" d="M927.08,579.63c-7.49,3.5-16.4,0.27-19.9-7.21c-7.7-18.32,17.99-30.33,27.11-12.68
						C937.79,567.22,934.56,576.13,927.08,579.63z"/>
				</g>
			</g>
		</g>
		<g class="st2">
			<g>
				<g>
					<path class="st4" d="M881.06,613.22c-5.55,2.6-12.15,0.2-14.75-5.35c-5.71-13.57,13.33-22.48,20.09-9.4
						C889.01,604.03,886.61,610.63,881.06,613.22z"/>
				</g>
			</g>
		</g>
		<g class="st2">
			<g>
				<g>
					<path class="st4" d="M736.92,601.89c-5.55,2.6-12.15,0.2-14.75-5.35c-5.71-13.57,13.33-22.48,20.09-9.4
						C744.86,592.69,742.46,599.29,736.92,601.89z"/>
				</g>
			</g>
		</g>
		<g class="st2">
			<g>
				<g>
					<path class="st3" d="M766.25,660.93c-7.49,3.5-16.4,0.27-19.9-7.21c-7.7-18.32,17.99-30.33,27.11-12.68
						C776.97,648.52,773.74,657.43,766.25,660.93z"/>
				</g>
			</g>
		</g>
		<g class="st2">
			<g>
				<g>
					<path class="st3" d="M755.59,551.81c-7.49,3.5-16.4,0.27-19.9-7.21c-7.7-18.32,17.99-30.33,27.11-12.68
						C766.3,539.4,763.07,548.31,755.59,551.81z"/>
				</g>
			</g>
		</g>
		<g class="st2">
			<g>
				<g>
					<path class="st3" d="M833.26,739.71c-7.49,3.5-16.4,0.27-19.9-7.21c-7.7-18.32,17.99-30.33,27.11-12.68
						C843.98,727.3,840.75,736.21,833.26,739.71z"/>
				</g>
			</g>
		</g>
		<g class="st2">
			<g>
				<path class="st5" d="M880.83,685.79c-10.56,4.94-23.13,0.39-28.07-10.18c-10.86-25.84,25.38-42.79,38.25-17.9
					C895.95,668.28,891.39,680.85,880.83,685.79z"/>
			</g>
		</g>
		<g class="st2">
			<g>
				<path class="st5" d="M982.72,564.56c-10.56,4.94-23.13,0.39-28.07-10.18c-10.86-25.84,25.38-42.79,38.25-17.9
					C997.84,547.05,993.29,559.62,982.72,564.56z"/>
			</g>
		</g>
		<g class="st2">
			<g>
				<g>
					<path class="st3" d="M643.3,528.49c-7.49,3.5-16.4,0.27-19.9-7.21c-7.7-18.32,17.99-30.33,27.11-12.68
						C654.01,516.08,650.78,524.99,643.3,528.49z"/>
				</g>
			</g>
		</g>
		<g class="st2">
			<g>
				<path class="st5" d="M680.61,603.05c-10.56,4.94-23.13,0.39-28.07-10.18c-10.86-25.84,25.38-42.79,38.25-17.9
					C695.73,585.54,691.17,598.11,680.61,603.05z"/>
			</g>
		</g>
		<g class="st2">
			<g>
				<path class="st5" d="M698.95,513.42c-10.56,4.94-23.13,0.39-28.07-10.18c-10.86-25.84,25.38-42.79,38.25-17.9
					C714.06,495.91,709.51,508.48,698.95,513.42z"/>
			</g>
		</g>
		<g class="st2">
			<g>
				<path class="st5" d="M757.45,727.13c-10.56,4.94-23.13,0.39-28.07-10.18c-10.86-25.84,25.38-42.79,38.25-17.9
					C772.57,709.61,768.01,722.18,757.45,727.13z"/>
			</g>
		</g>
		<g class="st2">
			<g>
				<g>
					<path class="st6" d="M814.35,654.89c-8.91,4.17-19.52,0.33-23.69-8.59c-9.17-21.81,21.42-36.11,32.28-15.1
						C827.11,640.11,823.27,650.72,814.35,654.89z"/>
				</g>
			</g>
		</g>
		<g class="st2">
			<g>
				<g>
					<path class="st3" d="M802.48,599.93c-7.49,3.5-16.4,0.27-19.9-7.21c-7.7-18.32,17.99-30.33,27.11-12.68
						C813.2,587.52,809.97,596.43,802.48,599.93z"/>
				</g>
			</g>
		</g>
		<g class="st2">
			<g>
				<g>
					<path class="st3" d="M736.4,421.74c7.88,2.5,12.24,10.91,9.75,18.79c-6.75,18.69-33.78,10.12-28.53-9.04
						C720.11,423.61,728.52,419.25,736.4,421.74z"/>
				</g>
			</g>
		</g>
		<g class="st2">
			<g>
				<path class="st5" d="M759.48,341.63c11.12,3.52,17.27,15.39,13.75,26.51c-9.52,26.36-47.66,14.27-40.26-12.76
					C736.49,344.26,748.36,338.11,759.48,341.63z"/>
			</g>
		</g>
		<g class="st2">
			<g>
				<g>
					<path class="st4" d="M793,428.22c5.84,1.85,9.07,8.08,7.22,13.92c-5,13.85-25.04,7.5-21.15-6.7
						C780.92,429.6,787.16,426.37,793,428.22z"/>
				</g>
			</g>
		</g>
		<g class="st2">
			<g>
				<g>
					<path class="st4" d="M891.33,534.23c5.84,1.85,9.07,8.08,7.22,13.92c-5,13.85-25.04,7.5-21.15-6.7
						C879.25,535.61,885.49,532.38,891.33,534.23z"/>
				</g>
			</g>
		</g>
		<g class="st2">
			<g>
				<g>
					<path class="st3" d="M909.77,470.92c7.88,2.5,12.24,10.91,9.75,18.79c-6.75,18.69-33.78,10.12-28.53-9.04
						C893.47,472.79,901.89,468.43,909.77,470.92z"/>
				</g>
			</g>
		</g>
		<g class="st2">
			<g>
				<g>
					<path class="st3" d="M843.67,558.4c7.88,2.5,12.24,10.91,9.75,18.79c-6.75,18.69-33.78,10.12-28.53-9.04
						C827.38,560.27,835.79,555.9,843.67,558.4z"/>
				</g>
			</g>
		</g>
		<g class="st2">
			<g>
				<g>
					<path class="st3" d="M678.46,649.15c7.88,2.5,12.24,10.91,9.75,18.79c-6.75,18.69-33.78,10.12-28.53-9.04
						C662.17,651.02,670.58,646.65,678.46,649.15z"/>
				</g>
			</g>
		</g>
		<g class="st2">
			<g>
				<path class="st5" d="M842.34,375.01c11.12,3.52,17.27,15.39,13.75,26.51c-9.52,26.36-47.66,14.27-40.26-12.76
					C819.36,377.64,831.22,371.49,842.34,375.01z"/>
			</g>
		</g>
		<g class="st2">
			<g>
				<path class="st5" d="M685.26,395.13c11.12,3.52,17.27,15.39,13.75,26.51c-9.52,26.36-47.66,14.27-40.26-12.76
					C662.27,397.76,674.14,391.6,685.26,395.13z"/>
			</g>
		</g>
		<g class="st2">
			<g>
				<path class="st5" d="M961.09,428.21c11.12,3.52,17.27,15.39,13.75,26.51c-9.52,26.36-47.66,14.27-40.26-12.76
					C938.1,430.84,949.97,424.68,961.09,428.21z"/>
			</g>
		</g>
		<g class="st2">
			<g>
				<g>
					<path class="st6" d="M870.29,442.78c9.38,2.97,14.58,12.99,11.6,22.37c-8.03,22.25-40.22,12.04-33.97-10.77
						C850.89,445,860.91,439.8,870.29,442.78z"/>
				</g>
			</g>
		</g>
		<g class="st2">
			<g>
				<g>
					<path class="st3" d="M841.78,491.24c7.88,2.5,12.24,10.91,9.75,18.79c-6.75,18.69-33.78,10.12-28.53-9.04
						C825.49,493.11,833.9,488.74,841.78,491.24z"/>
				</g>
			</g>
		</g>
		<g class="st2">
			<g>
				<g>
					<path class="st3" d="M778.55,474.88c7.88,2.5,12.24,10.91,9.75,18.79c-6.75,18.69-33.78,10.12-28.53-9.04
						C762.26,476.75,770.67,472.39,778.55,474.88z"/>
				</g>
			</g>
		</g>
		<g>
			<g>
				<path class="st5" d="M701.75,382.75c0,11.66-9.45,21.12-21.12,21.12c-28.01-1.11-28-41.12,0-42.23
					C692.3,361.63,701.75,371.09,701.75,382.75z"/>
			</g>
		</g>
		<g>
			<g>
				<path class="st4" d="M811.78,427.96c0,6.13-4.97,11.09-11.09,11.09c-14.71-0.58-14.71-21.6,0-22.18
					C806.82,416.87,811.78,421.83,811.78,427.96z"/>
			</g>
		</g>
		<g>
			<g>
				<path class="st4" d="M934.26,617.91c0,6.13-4.97,11.09-11.09,11.09c-14.71-0.58-14.71-21.6,0-22.18
					C929.29,606.81,934.26,611.78,934.26,617.91z"/>
			</g>
		</g>
		<g>
			<g>
				<path class="st4" d="M723.36,439.58c0,6.13-4.97,11.09-11.09,11.09c-14.71-0.58-14.71-21.6,0-22.18
					C718.4,428.48,723.36,433.45,723.36,439.58z"/>
			</g>
		</g>
		<g>
			<g>
				<path class="st4" d="M1002.3,633.21c0,6.13-4.97,11.09-11.09,11.09c-14.71-0.58-14.71-21.6,0-22.18
					C997.33,622.12,1002.3,627.09,1002.3,633.21z"/>
			</g>
		</g>
		<g>
			<g>
				<path class="st6" d="M721.91,583.81c0,9.84-7.98,17.82-17.82,17.82c-23.64-0.94-23.63-34.7,0-35.64
					C713.93,565.99,721.91,573.97,721.91,583.81z"/>
			</g>
		</g>
		<g>
			<g>
				<path class="st3" d="M768.44,543.91c0,8.27-6.7,14.97-14.97,14.97c-19.85-0.79-19.85-29.15,0-29.93
					C761.74,528.94,768.44,535.65,768.44,543.91z"/>
			</g>
		</g>
		<g>
			<g>
				<path class="st3" d="M636.85,546.06c0,8.27-6.7,14.97-14.97,14.97c-19.85-0.79-19.85-29.15,0-29.93
					C630.15,531.09,636.85,537.79,636.85,546.06z"/>
			</g>
		</g>
		<g>
			<g>
				<path class="st5" d="M687.69,487.18c0,11.66-9.45,21.12-21.12,21.12c-28.01-1.11-28-41.12,0-42.23
					C678.23,466.07,687.69,475.52,687.69,487.18z"/>
			</g>
		</g>
		<g>
			<g>
				<path class="st5" d="M851.78,541.72c0,11.66-9.45,21.12-21.12,21.12c-28.01-1.11-28-41.12,0-42.23
					C842.33,520.6,851.78,530.05,851.78,541.72z"/>
			</g>
		</g>
		<g>
			<g>
				<path class="st5" d="M978.2,690.44c0,11.66-9.45,21.12-21.12,21.12c-28.01-1.11-28-41.12,0-42.23
					C968.75,669.32,978.2,678.78,978.2,690.44z"/>
			</g>
		</g>
		<g>
			<g>
				<path class="st5" d="M1021.28,449.66c0,11.66-9.45,21.12-21.12,21.12c-28.01-1.11-28-41.12,0-42.23
					C1011.83,428.54,1021.28,438,1021.28,449.66z"/>
			</g>
		</g>
		<g>
			<g>
				<path class="st4" d="M962.87,555.77c0,6.13-4.97,11.09-11.09,11.09c-14.71-0.58-14.71-21.6,0-22.18
					C957.9,544.68,962.87,549.65,962.87,555.77z"/>
			</g>
		</g>
		<g>
			<g>
				<path class="st4" d="M779.36,599.82c0,6.13-4.97,11.09-11.09,11.09c-14.71-0.58-14.71-21.6,0-22.18
					C774.4,588.73,779.36,593.7,779.36,599.82z"/>
			</g>
		</g>
		<g>
			<g>
				<path class="st4" d="M886.75,594.4c0,6.13-4.97,11.09-11.09,11.09c-14.71-0.58-14.71-21.6,0-22.18
					C881.79,583.31,886.75,588.28,886.75,594.4z"/>
			</g>
		</g>
		<g>
			<g>
				<path class="st4" d="M708.01,725.58c0,6.13-4.97,11.09-11.09,11.09c-14.71-0.58-14.71-21.6,0-22.18
					C703.04,714.49,708.01,719.46,708.01,725.58z"/>
			</g>
		</g>
		<g>
			<g>
				<path class="st4" d="M621.64,456.64c0,6.13-4.97,11.09-11.09,11.09c-14.71-0.58-14.71-21.6,0-22.18
					C616.68,445.55,621.64,450.51,621.64,456.64z"/>
			</g>
		</g>
		<g>
			<g>
				<path class="st3" d="M856.93,711.66c0,8.27-6.7,14.97-14.97,14.97c-19.85-0.79-19.85-29.15,0-29.93
					C850.23,696.69,856.93,703.39,856.93,711.66z"/>
			</g>
		</g>
		<g>
			<g>
				<path class="st3" d="M773.92,724.04c0,8.27-6.7,14.97-14.97,14.97c-19.85-0.79-19.85-29.15,0-29.93
					C767.22,709.07,773.92,715.77,773.92,724.04z"/>
			</g>
		</g>
		<g>
			<g>
				<path class="st3" d="M670.57,687.45c0,8.27-6.7,14.97-14.97,14.97c-19.85-0.79-19.85-29.15,0-29.93
					C663.87,672.48,670.57,679.18,670.57,687.45z"/>
			</g>
		</g>
		<g>
			<g>
				<path class="st5" d="M844.99,630.79c0,11.66-9.45,21.12-21.12,21.12c-28.01-1.11-28-41.12,0-42.23
					C835.54,609.67,844.99,619.13,844.99,630.79z"/>
			</g>
		</g>
		<g>
			<g>
				<path class="st5" d="M778.37,487.12c0,11.66-9.45,21.12-21.12,21.12c-28.01-1.11-28-41.12,0-42.23
					C768.91,466,778.37,475.46,778.37,487.12z"/>
			</g>
		</g>
		<g>
			<g>
				<path class="st5" d="M830.15,760.06c0,11.66-9.45,21.12-21.12,21.12c-28.01-1.11-28-41.12,0-42.23
					C820.69,738.94,830.15,748.4,830.15,760.06z"/>
			</g>
		</g>
		<g>
			<g>
				<path class="st4" d="M921.52,520.02c0,6.13-4.97,11.09-11.09,11.09c-14.71-0.58-14.71-21.6,0-22.18
					C916.55,508.93,921.52,513.9,921.52,520.02z"/>
			</g>
		</g>
		<g>
			<g>
				<path class="st4" d="M911.47,747.93c0,6.13-4.97,11.09-11.09,11.09c-14.71-0.58-14.71-21.6,0-22.18
					C906.51,736.84,911.47,741.81,911.47,747.93z"/>
			</g>
		</g>
		<g>
			<g>
				<path class="st4" d="M945.05,388.65c0,6.13-4.97,11.09-11.09,11.09c-14.71-0.58-14.71-21.6,0-22.18
					C940.08,377.56,945.05,382.52,945.05,388.65z"/>
			</g>
		</g>
		<g>
			<g>
				<path class="st4" d="M593.4,588.59c0,6.13-4.97,11.09-11.09,11.09c-14.71-0.58-14.71-21.6,0-22.18
					C588.44,577.49,593.4,582.46,593.4,588.59z"/>
			</g>
		</g>
		<g>
			<g>
				<path class="st4" d="M961.42,659.56c0,6.13-4.97,11.09-11.09,11.09c-14.71-0.58-14.71-21.6,0-22.18
					C956.45,648.47,961.42,653.43,961.42,659.56z"/>
			</g>
		</g>
		<g>
			<g>
				<path class="st6" d="M905.27,669.78c0,9.84-7.98,17.82-17.82,17.82c-23.64-0.94-23.63-34.7,0-35.64
					C897.29,651.96,905.27,659.94,905.27,669.78z"/>
			</g>
		</g>
		<g>
			<g>
				<path class="st4" d="M873.82,364.59c3.72,4.87,2.79,11.83-2.08,15.55c-12.05,8.47-24.8-8.24-13.46-17.63
					C863.14,358.79,870.1,359.72,873.82,364.59z"/>
			</g>
		</g>
		<g>
			<g>
				<path class="st6" d="M922.12,408.48c5.97,7.82,4.47,19-3.35,24.98c-19.36,13.6-39.84-13.24-21.63-28.33
					C904.96,399.16,916.15,400.66,922.12,408.48z"/>
			</g>
		</g>
		<g>
			<g>
				<path class="st3" d="M871.57,424.68c5.02,6.57,3.76,15.96-2.81,20.98c-16.26,11.42-33.46-11.12-18.17-23.79
					C857.16,416.86,866.55,418.11,871.57,424.68z"/>
			</g>
		</g>
		<g>
			<g>
				<path class="st6" d="M769.38,380.76c5.97,7.82,4.47,19-3.35,24.98c-19.36,13.6-39.84-13.24-21.63-28.33
					C752.22,371.44,763.41,372.94,769.38,380.76z"/>
			</g>
		</g>
		<g>
			<g>
				<path class="st3" d="M879.43,477.03c5.02,6.57,3.76,15.96-2.81,20.98c-16.26,11.42-33.46-11.12-18.17-23.79
					C865.02,469.2,874.41,470.46,879.43,477.03z"/>
			</g>
		</g>
		<g>
			<g>
				<path class="st3" d="M809.58,328.71c5.02,6.57,3.76,15.96-2.81,20.98c-16.26,11.42-33.46-11.12-18.17-23.79
					C795.17,320.88,804.56,322.14,809.58,328.71z"/>
			</g>
		</g>
		<g>
			<g>
				<path class="st6" d="M788.83,677.9c0,9.84-7.98,17.82-17.82,17.82c-23.64-0.94-23.63-34.7,0-35.64
					C780.85,660.08,788.83,668.06,788.83,677.9z"/>
			</g>
		</g>
		<g>
			<g>
				<path class="st6" d="M964.19,481.92c-4.6,8.7-15.39,12.02-24.09,7.41c-20.45-11.89-4.65-41.73,16.68-31.5
					C965.48,462.44,968.8,473.23,964.19,481.92z"/>
			</g>
		</g>
		<g>
			<g>
				<path class="st3" d="M982.14,605.88c-3.87,7.31-12.92,10.09-20.23,6.22c-17.18-9.99-3.9-35.05,14.01-26.45
					C983.22,589.52,986.01,598.58,982.14,605.88z"/>
			</g>
		</g>
		<g>
			<g>
				<path class="st3" d="M1011.21,537.02c-3.87,7.31-12.92,10.09-20.23,6.22c-17.18-9.99-3.9-35.05,14.01-26.45
					C1012.29,520.65,1015.08,529.71,1011.21,537.02z"/>
			</g>
		</g>
		<g>
			<g>
				<path class="st3" d="M734.02,665.37c0,8.27-6.7,14.97-14.97,14.97c-19.85-0.79-19.85-29.15,0-29.93
					C727.32,650.4,734.02,657.1,734.02,665.37z"/>
			</g>
		</g>
		<g>
			<g>
				<path class="st5" d="M664,623.69c0,11.66-9.45,21.12-21.12,21.12c-28.01-1.11-28-41.12,0-42.23
					C654.55,602.57,664,612.02,664,623.69z"/>
			</g>
		</g>
		<g class="st2">
			<g>
				<path class="st5" d="M964.38,654.19c-10.56,4.94-23.13,0.39-28.07-10.18c-10.86-25.84,25.38-42.79,38.25-17.9
					C979.5,636.68,974.95,649.25,964.38,654.19z"/>
			</g>
		</g>
		<g>
			<g>
				<path class="st3" d="M655.64,687.45"/>
			</g>
		</g>
	</g>
	<g>
		<g>
			<path d="M523.23,842.07l52.18,175.47h0.92l58.18-175.47h30.48l59.11,175.47h0.92l51.72-175.47h33.25l-68.34,216.1h-34.17
				l-57.72-175h-0.92l-56.8,175h-34.17l-68.34-216.1H523.23z"/>
		</g>
	</g>
	<g>
		<g>
			<path d="M1019.15,891.48c-5.24-8.31-12.86-15.16-22.86-20.55c-10.01-5.38-20.86-8.08-32.55-8.08c-12.63,0-24.01,2.24-34.17,6.7
				c-10.16,4.47-18.86,10.62-26.09,18.47c-7.24,7.85-12.78,17.08-16.62,27.71c-3.85,10.62-5.77,22.09-5.77,34.4
				c0,12.32,1.92,23.71,5.77,34.17c3.84,10.47,9.31,19.62,16.39,27.47c7.08,7.85,15.7,14.01,25.86,18.47
				c10.16,4.47,21.54,6.7,34.17,6.7c13.85,0,25.55-2.61,35.09-7.85c9.54-5.23,17.39-12,23.55-20.32l23.55,17.55
				c-9.24,11.39-20.55,20.48-33.94,27.24c-13.39,6.77-29.48,10.16-48.25,10.16c-17.55,0-33.41-2.85-47.56-8.54
				c-14.16-5.69-26.25-13.62-36.25-23.78c-10.01-10.16-17.78-22.16-23.32-36.01c-5.54-13.85-8.31-28.93-8.31-45.25
				c0-16.31,2.77-31.4,8.31-45.25c5.54-13.85,13.31-25.86,23.32-36.02c10-10.16,22.09-18.08,36.25-23.78
				c14.15-5.69,30.01-8.54,47.56-8.54c14.47,0,29.16,3.16,44.1,9.47c14.93,6.31,27.01,15.63,36.25,27.94L1019.15,891.48z"/>
		</g>
	</g>
	<g>
		<g>
			<path d="M1093.96,867.01c-0.31-9.24-0.77-17.55-1.39-24.94h30.01c0.61,5.85,1.07,12.32,1.39,19.39
				c0.3,7.08,0.46,12.93,0.46,17.55h0.92c6.16-12.62,15.39-22.86,27.71-30.71c12.31-7.85,26.16-11.78,41.56-11.78
				c4,0,7.62,0.16,10.85,0.46c3.23,0.31,6.54,0.92,9.93,1.85l-4.15,30.01c-1.85-0.61-4.93-1.23-9.24-1.85
				c-4.32-0.61-8.62-0.92-12.93-0.92c-8.31,0-16.32,1.54-24.01,4.61c-7.7,3.07-14.39,7.91-20.09,14.51
				c-5.7,6.6-10.32,15.04-13.85,25.33c-3.54,10.29-5.31,22.65-5.31,37.08v110.55h-31.4V889.63
				C1094.42,883.79,1094.26,876.24,1093.96,867.01z"/>
		</g>
	</g>
	<g>
		<g>
			<path d="M1417.64,1058.17c-0.62-5.84-1.08-12.31-1.39-19.39c-0.31-7.08-0.46-12.93-0.46-17.55h-0.92
				c-6.16,12.63-16.16,22.86-30.01,30.71c-13.85,7.85-28.48,11.77-43.87,11.77c-27.4,0-47.95-8.15-61.64-24.47
				c-13.7-16.31-20.55-37.87-20.55-64.65V842.07h31.4v119.6c0,11.39,0.92,21.7,2.77,30.94c1.85,9.24,5,17.17,9.47,23.78
				c4.46,6.63,10.46,11.78,18.01,15.47c7.54,3.69,17.01,5.54,28.4,5.54c8.31,0,16.39-1.69,24.24-5.08
				c7.85-3.39,14.85-8.54,21.01-15.47c6.15-6.93,11.08-15.7,14.78-26.32c3.69-10.62,5.54-23.16,5.54-37.64V842.07h31.4v168.54
				c0,5.85,0.15,13.39,0.46,22.63c0.3,9.24,0.77,17.55,1.39,24.93H1417.64z"/>
		</g>
	</g>
	<g>
		<g>
			<path d="M332.99,1127.79c-2.01-2-3.82-4.19-5.43-6.58c-4.47-6.61-7.62-14.54-9.47-23.78c-1.85-9.24-2.77-19.55-2.77-30.94V946.9
				h-31.4v132.53c0,26.78,6.85,48.33,20.55,64.65c5.78,6.89,12.81,12.31,21.04,16.29c-0.55-2.64-0.85-5.38-0.85-8.18
				C324.66,1143,327.77,1134.55,332.99,1127.79z"/>
		</g>
		<g>
			<path d="M471.39,1138.07c-0.31-9.24-0.46-16.77-0.46-22.63c0,0,0-158.29,0-168.54c-13.87,0-16.52,0-31.4,0
				c0,9.35,0,110.82,0,110.82c0,14.47-1.85,27.01-5.54,37.63c-3.69,10.62-8.62,19.39-14.78,26.32
				c-5.39,6.05-11.41,10.76-18.09,14.11c2.26,5.01,3.53,10.55,3.53,16.4c0,2.65-0.27,5.24-0.76,7.75c2.04-0.97,4.07-2.02,6.08-3.16
				c13.85-7.85,23.85-18.08,30.01-30.71h0.92c0,4.62,0.15,10.47,0.46,17.55c0.3,7.09,0.77,13.55,1.39,19.39h30.01
				C472.16,1155.62,471.7,1147.3,471.39,1138.07z"/>
		</g>
		<g>
			<path class="st7" d="M344.18,1166.5c4.53,6.45,12.01,10.68,20.48,10.68c8.49,0,15.99-4.25,20.51-10.74
				c-6.22,1.4-12.57,2.1-19.06,2.1C358.23,1168.54,350.93,1167.85,344.18,1166.5z"/>
		</g>
		<g>
			<path class="st7" d="M373.96,1142.22c4.38,0,8.7-0.48,12.95-1.42c-4.15-8.08-12.56-13.62-22.25-13.62
				c-7.85,0-14.86,3.64-19.45,9.32c0.12,0.06,0.23,0.13,0.36,0.19C353.11,1140.38,362.57,1142.22,373.96,1142.22z"/>
		</g>
		<g>
			<path class="st7" d="M344.18,1166.5c6.75,1.35,14.05,2.05,21.93,2.05c6.49,0,12.84-0.71,19.06-2.1
				c2.82-4.05,4.49-8.96,4.49-14.26c0-4.1-1-7.96-2.75-11.38c-4.25,0.94-8.57,1.42-12.95,1.42c-11.39,0-20.86-1.85-28.4-5.54
				c-0.12-0.06-0.23-0.13-0.36-0.19c-3.47,4.29-5.55,9.75-5.55,15.68C339.66,1157.5,341.34,1162.44,344.18,1166.5z"/>
		</g>
	</g>
	<g>
		<g>
			<path d="M634.28,1121.28c-2.09,0.22-2.92,0.38-3.63,0.97c-1.05,0.92-1.6,2.1-1.6,6.37v27.96h-0.99l-24.29-29.63v20.94
				c0,5.56,0.88,6.48,5.12,7.07v1.03h-12.89v-1.03c4.52-0.49,5.34-1.29,5.34-7.07v-23.75c-1.82-2.21-2.64-2.86-5.34-2.86v-1.03h9.36
				l21.26,26.07v-18.35c0-2.75-0.22-4.37-1.05-5.29c-0.94-1.03-1.93-1.13-4.35-1.4v-1.03h13.05V1121.28z"/>
		</g>
		<g>
			<path d="M660.82,1154.04c-2.81,0.76-4.79,1.35-7.54,2.43l-0.28-0.16v-4.43h-0.11c-2.7,3.62-5.84,4.64-7.88,4.64
				c-4.24,0-6.72-2.75-6.72-6.91v-13.55c0-2.7-0.77-3.45-3.41-3.62v-0.76h8.04v17.43c0,2.48,1.76,4.26,3.91,4.26
				c1.6,0,3.25-0.49,4.63-1.67c0.88-0.76,1.27-1.24,1.27-3.13v-12.47c0-2.86-0.77-3.29-4.08-3.51v-0.92h8.7v18.51
				c0,2.48,0.61,3.08,3.14,3.08h0.33V1154.04z"/>
		</g>
		<g>
			<path d="M677.17,1155.98l0.06-0.81c2.75-0.22,3.41-1.29,3.41-4.86v-10.74c0-3.83-1.32-5.45-4.02-5.45
				c-1.82,0-3.14,0.65-5.67,3.08v14.9c0,2.1,0.77,2.86,3.58,3.08v0.81h-11.62v-0.81c2.81-0.22,3.41-1.08,3.41-4.26v-13.12
				c0-2.64-0.39-3.51-1.93-3.51c-0.61,0-1.21,0.05-1.6,0.22v-0.92c3.03-0.86,4.85-1.46,7.54-2.43l0.44,0.16v4.21h0.06
				c2.86-3.18,5.4-4.37,7.93-4.37c4.19,0,6.5,2.97,6.5,8.31v11.93c0,2.92,0.66,3.51,3.36,3.78v0.81H677.17z"/>
		</g>
		<g>
			<path d="M713.79,1153.93c-1.65,2.05-3.08,2.59-4.96,2.59c-2.04,0-3.25-1.08-3.52-3.94h-0.06c-2.92,3.24-5.62,3.94-7.98,3.94
				c-3.41,0-5.78-2.05-5.78-5.61c0-2.81,1.71-4.91,3.85-6.31c1.65-1.08,3.69-2.1,9.91-4.37v-2.91c0-3.35-1.82-4.86-4.3-4.86
				c-2.2,0-3.85,1.19-3.85,2.64c0,0.97,0.33,1.13,0.33,2.27c0,1.03-1.1,2.21-2.53,2.21c-1.16,0-2.37-1.03-2.37-2.48
				c0-1.4,0.88-3.13,2.81-4.32c1.54-0.97,3.85-1.62,6.33-1.62c3.08,0,5.18,0.86,6.5,2.43c1.32,1.56,1.54,2.7,1.54,5.99v10.31
				c0,2.48,0.72,3.56,1.71,3.56c0.88,0,1.43-0.27,2.37-1.03V1153.93z M705.26,1141.51c-3.41,1.19-5.67,2.32-7.05,3.56
				c-1.32,1.19-1.87,2.48-1.87,4.16c0,2.86,1.65,4.16,3.8,4.16c1.1,0,2.26-0.27,3.19-0.86c1.6-1.08,1.93-1.83,1.93-3.4V1141.51z"/>
		</g>
		<g>
			<path d="M738.4,1132.5c-1.65,0.16-2.09,0.59-3.58,4.21l-7.05,17.32c-0.83,2-1.21,2.7-1.54,2.7s-0.61-0.43-0.99-1.4
				c-0.17-0.27-0.22-0.65-0.44-1.13l-6.61-15.49c-2.37-5.56-2.92-6.1-5.01-6.21v-0.81h10.79v0.81c-1.87,0.16-2.53,0.54-2.53,1.46
				c0,0.54,0.17,1.24,0.5,2.05l5.62,13.82l5.45-13.98c0.22-0.54,0.33-1.08,0.33-1.62c0-1.03-0.83-1.57-2.59-1.73v-0.81h7.65V1132.5z
				"/>
		</g>
		<g>
			<path d="M766.1,1154.04c-2.81,0.76-4.79,1.35-7.54,2.43l-0.28-0.16v-4.43h-0.11c-2.7,3.62-5.84,4.64-7.87,4.64
				c-4.24,0-6.72-2.75-6.72-6.91v-13.55c0-2.7-0.77-3.45-3.41-3.62v-0.76h8.04v17.43c0,2.48,1.76,4.26,3.91,4.26
				c1.6,0,3.25-0.49,4.63-1.67c0.88-0.76,1.27-1.24,1.27-3.13v-12.47c0-2.86-0.77-3.29-4.08-3.51v-0.92h8.7v18.51
				c0,2.48,0.61,3.08,3.14,3.08h0.33V1154.04z"/>
		</g>
		<g>
			<path d="M782.56,1152.42c-1.82,2.81-3.91,4.1-6.66,4.1c-3.19,0-4.85-2.32-4.85-6.85v-16.25h-2.92c-0.17-0.11-0.22-0.22-0.22-0.38
				c0-0.32,0.33-0.65,0.94-1.03c1.43-0.81,3.25-2.81,5.34-5.77c0.33-0.49,0.77-0.97,1.1-1.51c0.28,0,0.39,0.16,0.39,0.7v6.26h5.56
				v1.73h-5.56v15.44c0,3.45,0.83,4.86,2.86,4.86c1.21,0,2.09-0.49,3.3-1.89L782.56,1152.42z"/>
		</g>
		<g>
			<path d="M847.6,1121.28c-2.92,0.54-3.52,0.97-4.57,3.78c-6,15.87-6.55,17.43-11.23,31.52h-0.83c-2.81-7.66-5.95-15.65-8.81-22.83
				l-8.48,22.83h-0.83c-3.36-9.71-7.32-19.75-10.57-28.82c-1.82-5.13-2.92-6.42-5.73-6.48v-1.03h13.44v1.03
				c-2.81,0.05-3.52,0.54-3.52,1.67c0,0.65,0.22,1.51,0.61,2.54l7.93,20.29l5.73-15.27l-1.54-4.05c-1.82-4.75-2.48-5.13-5.62-5.18
				v-1.03h14.59v1.03c-2.75,0.05-4.24,0.76-4.24,1.89c0,0.59,0.44,1.84,0.94,3.13l7.88,19.65l6.94-18.3
				c0.61-1.67,0.94-3.02,0.94-4.16c0-1.46-1.05-2.16-3.85-2.21v-1.03h10.85V1121.28z"/>
		</g>
		<g>
			<path d="M848.42,1155.98v-0.81c3.8-0.22,4.35-0.7,4.35-4.8v-12.25c0-2.54-0.44-3.4-1.82-3.4c-0.5,0-1.32,0-2.31,0.27v-0.86
				l8.54-2.97l0.22,0.22v18.94c0,3.99,0.44,4.59,4.08,4.86v0.81H848.42z M854.58,1124.62c-1.54,0-2.75-1.19-2.75-2.75
				c0-1.51,1.27-2.75,2.81-2.75c1.6,0,2.81,1.24,2.81,2.75C857.45,1123.43,856.24,1124.62,854.58,1124.62z"/>
		</g>
		<g>
			<path d="M864,1155.98v-0.81c3.47-0.27,4.24-1.19,4.24-4.16v-25.31c0-2.59-0.55-3.45-2.31-3.45c-0.44,0-1.16,0-2.04,0.11v-0.86
				c3.8-0.92,5.84-1.46,8.7-2.37l0.28,0.22v31.95c0,2.97,0.61,3.67,4.13,3.89v0.81H864z"/>
		</g>
		<g>
			<path d="M897.09,1156.52l-0.22-0.16v-3.45c-1.87,2.54-3.96,3.62-7.05,3.62c-6.11,0-10.19-4.7-10.19-11.6
				c0-7.66,5.12-13.76,11.45-13.76c2.2,0,3.69,0.59,5.78,2.32v-8.42c0-2.21-0.5-2.75-2.53-2.75c-0.44,0-0.77,0-1.21,0.05v-0.86
				c3.52-0.92,5.45-1.46,8.1-2.37l0.28,0.11v30.6c0,2.48,0.44,3.08,2.42,3.08c0.28,0,0.33,0,1.27-0.05v0.86L897.09,1156.52z
				 M896.87,1138.06c0-2.86-2.64-5.4-5.62-5.4c-4.19,0-6.88,3.99-6.88,10.09c0,6.64,2.97,10.96,7.6,10.96
				c1.71,0,3.08-0.59,4.08-1.73c0.5-0.54,0.83-1.13,0.83-1.51V1138.06z"/>
		</g>
		<g>
			<path d="M906.84,1155.98v-0.81c3.47-0.27,4.24-1.19,4.24-4.16v-25.31c0-2.59-0.55-3.45-2.31-3.45c-0.44,0-1.16,0-2.04,0.11v-0.86
				c3.8-0.92,5.84-1.46,8.7-2.37l0.28,0.22v31.95c0,2.97,0.61,3.67,4.13,3.89v0.81H906.84z"/>
		</g>
		<g>
			<path d="M921.87,1155.98v-0.81c3.8-0.22,4.35-0.7,4.35-4.8v-12.25c0-2.54-0.44-3.4-1.82-3.4c-0.5,0-1.32,0-2.31,0.27v-0.86
				l8.54-2.97l0.22,0.22v18.94c0,3.99,0.44,4.59,4.08,4.86v0.81H921.87z M928.04,1124.62c-1.54,0-2.75-1.19-2.75-2.75
				c0-1.51,1.27-2.75,2.81-2.75c1.6,0,2.81,1.24,2.81,2.75C930.9,1123.43,929.69,1124.62,928.04,1124.62z"/>
		</g>
		<g>
			<path d="M941.97,1131.69c0.06-4.32,0.5-6.26,1.93-8.69s4.29-3.89,7.76-3.89c3.3,0,5.73,1.4,5.73,3.35c0,1.24-0.99,2.21-2.31,2.21
				c-0.94,0-1.6-0.49-2.48-1.94c-0.99-1.56-1.71-2.1-2.92-2.1c-2.09,0-3.08,1.62-3.08,4.8v6.26h6.72v1.73h-6.72v16.95
				c0,4.05,0.61,4.64,5.12,4.8v0.81H937.4v-0.81c3.96-0.22,4.57-0.86,4.57-4.8v-16.95h-4.52v-1.73H941.97z"/>
		</g>
		<g>
			<path d="M976.11,1147.5c-2.15,5.88-6,9.01-11.51,9.01c-6.5,0-10.46-4.8-10.46-12.25c0-7.61,4.46-13.11,11.4-13.11
				c3.41,0,5.89,1.29,7.65,3.72c1.1,1.51,1.65,3.24,1.87,6.15H958.1c0.28,4.1,0.55,6.21,2.53,8.8c1.54,2,3.58,2.97,6.11,2.97
				c3.69,0,5.78-1.67,8.48-5.67L976.11,1147.5z M969.45,1139.3c-0.61-4.37-1.76-6.21-5.4-6.21c-3.08,0-5.23,2.16-5.84,6.21H969.45z"
				/>
		</g>
		<g>
			<path d="M1025.83,1149.88c-3.19,4.48-8.54,6.85-15.03,6.85c-5.01,0-9.8-1.73-13-4.8c-3.36-3.24-5.29-8.15-5.29-13.49
				c0-5.4,1.82-9.88,4.96-13.33c3.52-3.83,8.26-5.61,13.38-5.61c2.15,0,4.35,0.22,6.55,0.81c1.16,0.32,2.86,0.97,3.8,0.97
				c1.05,0,1.98-0.65,2.31-1.78h1.1l0.5,12.25h-1.27c-0.66-2.97-1.49-4.53-2.86-5.99c-2.42-2.54-5.29-4.1-8.87-4.1
				c-8.32,0-13.22,6.58-13.22,15.92c0,5.94,1.38,10.15,3.96,12.9c2.42,2.54,6,3.89,9.8,3.89c4.96,0,7.99-1.62,12.12-5.45
				L1025.83,1149.88z"/>
		</g>
		<g>
			<path d="M1041.19,1156.52c-6.66,0-11.9-5.34-11.9-12.85c0-7.5,4.96-12.52,12.39-12.52c6.72,0,11.9,4.91,11.9,12.36
				C1053.58,1151.01,1048.62,1156.52,1041.19,1156.52z M1045.87,1135.36c-1.32-1.62-2.86-2.7-5.23-2.7c-3.8,0-6.39,3.18-6.39,8.58
				c0,4.26,0.88,8.15,2.92,11.06c1.21,1.73,2.97,2.7,4.96,2.7c4.08,0,6.5-3.78,6.5-10.04
				C1048.62,1141.3,1047.63,1137.57,1045.87,1135.36z"/>
		</g>
		<g>
			<path d="M1068.72,1156.52c-6.66,0-11.9-5.34-11.9-12.85c0-7.5,4.96-12.52,12.39-12.52c6.72,0,11.9,4.91,11.9,12.36
				C1081.11,1151.01,1076.16,1156.52,1068.72,1156.52z M1073.4,1135.36c-1.32-1.62-2.86-2.7-5.23-2.7c-3.8,0-6.39,3.18-6.39,8.58
				c0,4.26,0.88,8.15,2.92,11.06c1.21,1.73,2.97,2.7,4.96,2.7c4.08,0,6.5-3.78,6.5-10.04
				C1076.16,1141.3,1075.16,1137.57,1073.4,1135.36z"/>
		</g>
		<g>
			<path d="M1091.52,1135.42c2.42-2.97,4.85-4.26,7.93-4.26c5.34,0,9.2,4.8,9.2,11.5c0,7.83-5.01,13.87-11.56,13.87
				c-2.31,0-3.58-0.54-5.56-2.32v8.47c0,3.4,0.72,3.99,4.85,4.05v0.97h-13.33v-0.92c3.25-0.32,3.85-0.92,3.85-3.72v-25.26
				c0-2.54-0.38-3.08-2.26-3.08c-0.5,0-0.88,0-1.38,0.05v-0.86c3.03-0.92,5.01-1.62,7.93-2.75l0.33,0.11V1135.42z M1091.52,1151.23
				c0,1.62,3.14,3.56,5.73,3.56c3.96,0,6.66-4.05,6.66-9.98c0-6.31-2.7-10.42-6.77-10.42c-2.53,0-5.62,1.94-5.62,3.56V1151.23z"/>
		</g>
		<g>
			<path d="M1151.48,1155.98l-13.11-16.62l-3.08,0.11v10.47c0,4.1,0.66,4.75,4.9,5.02v1.03h-15.2v-1.03
				c4.13-0.32,4.68-0.92,4.68-5.67v-23.04c0-3.99-0.44-4.64-4.68-4.97v-1.03h14.98c5.23,0,9.14,1.3,11.51,3.18
				c1.82,1.46,2.7,4.1,2.7,6.48c0,4.7-3.08,7.83-9.97,8.85l11.01,13.65c1.6,2,2.75,2.32,5.18,2.54v1.03H1151.48z M1135.29,1137.47
				c5.29-0.11,7.21-0.49,9.75-1.83c1.98-1.08,3.14-3.45,3.14-6.15c0-4.86-3.25-7.23-10.08-7.23c-1.87,0-2.81,0.38-2.81,2.27V1137.47
				z"/>
		</g>
		<g>
			<path d="M1183.36,1147.5c-2.15,5.88-6,9.01-11.51,9.01c-6.5,0-10.46-4.8-10.46-12.25c0-7.61,4.46-13.11,11.4-13.11
				c3.41,0,5.89,1.29,7.65,3.72c1.1,1.51,1.65,3.24,1.87,6.15h-16.96c0.28,4.1,0.55,6.21,2.53,8.8c1.54,2,3.58,2.97,6.11,2.97
				c3.69,0,5.78-1.67,8.48-5.67L1183.36,1147.5z M1176.7,1139.3c-0.61-4.37-1.76-6.21-5.4-6.21c-3.08,0-5.23,2.16-5.84,6.21H1176.7z
				"/>
		</g>
		<g>
			<path d="M1198.78,1143.13c3.52,2.1,4.85,3.56,4.85,6.64c0,3.62-3.52,6.75-7.71,6.75c-1.16,0-2.75-0.05-4.02-0.49
				c-1.32-0.43-1.93-0.49-2.53-0.49c-0.66,0-0.99,0.11-1.32,0.65h-0.72v-8.47h0.88c1.16,5.24,3.19,7.61,6.99,7.61
				c2.81,0,4.57-1.78,4.57-3.99c0-1.67-1.1-3.08-2.92-4.05l-2.97-1.62c-4.57-2.48-6.61-5.07-6.61-7.83c0-4.26,3.08-6.64,7.6-6.64
				c1.32,0,2.53,0.05,3.69,0.59c0.61,0.27,1.16,0.43,1.54,0.43c0.22,0,0.44-0.05,0.88-0.54h0.61l0.28,7.34h-0.83
				c-1.27-4.86-2.92-6.64-6.22-6.64c-2.37,0-4.13,1.13-4.13,3.67c0,1.19,0.83,2.75,2.37,3.67L1198.78,1143.13z"/>
		</g>
		<g>
			<path d="M1229.23,1147.5c-2.15,5.88-6,9.01-11.51,9.01c-6.5,0-10.46-4.8-10.46-12.25c0-7.61,4.46-13.11,11.4-13.11
				c3.41,0,5.89,1.29,7.65,3.72c1.1,1.51,1.65,3.24,1.87,6.15h-16.96c0.28,4.1,0.55,6.21,2.53,8.8c1.54,2,3.58,2.97,6.11,2.97
				c3.69,0,5.78-1.67,8.48-5.67L1229.23,1147.5z M1222.56,1139.3c-0.61-4.37-1.76-6.21-5.4-6.21c-3.08,0-5.23,2.16-5.84,6.21
				H1222.56z"/>
		</g>
		<g>
			<path d="M1254.67,1153.93c-1.65,2.05-3.08,2.59-4.96,2.59c-2.04,0-3.25-1.08-3.53-3.94h-0.05c-2.92,3.24-5.62,3.94-7.99,3.94
				c-3.41,0-5.78-2.05-5.78-5.61c0-2.81,1.71-4.91,3.86-6.31c1.65-1.08,3.69-2.1,9.91-4.37v-2.91c0-3.35-1.82-4.86-4.29-4.86
				c-2.2,0-3.86,1.19-3.86,2.64c0,0.97,0.33,1.13,0.33,2.27c0,1.03-1.1,2.21-2.53,2.21c-1.16,0-2.37-1.03-2.37-2.48
				c0-1.4,0.88-3.13,2.81-4.32c1.54-0.97,3.85-1.62,6.33-1.62c3.08,0,5.18,0.86,6.5,2.43c1.32,1.56,1.54,2.7,1.54,5.99v10.31
				c0,2.48,0.72,3.56,1.71,3.56c0.88,0,1.43-0.27,2.37-1.03V1153.93z M1246.13,1141.51c-3.41,1.19-5.67,2.32-7.05,3.56
				c-1.32,1.19-1.87,2.48-1.87,4.16c0,2.86,1.65,4.16,3.8,4.16c1.1,0,2.26-0.27,3.19-0.86c1.6-1.08,1.93-1.83,1.93-3.4V1141.51z"/>
		</g>
		<g>
			<path d="M1263.58,1136.23c2.75-3.89,4.3-5.07,6.61-5.07c1.87,0,3.03,1.08,3.03,2.86c0,1.51-0.83,2.43-2.15,2.43
				c-0.72,0-1.32-0.27-2.2-1.08c-0.61-0.54-1.1-0.81-1.43-0.81c-1.54,0-3.86,2.7-3.86,4.42v12.14c0,3.08,0.94,3.89,4.68,4.05v0.81
				h-13.22v-0.81c3.52-0.65,3.91-1.03,3.91-3.72v-13.49c0-2.37-0.5-3.24-1.87-3.24c-0.66,0-1.16,0.05-1.93,0.22v-0.86
				c3.25-1.03,5.23-1.78,8.15-2.91l0.27,0.11V1136.23z"/>
		</g>
		<g>
			<path d="M1295.69,1148.04c-1.76,3.35-2.86,4.91-4.52,6.21c-1.87,1.51-3.96,2.27-6.33,2.27c-6.11,0-10.46-5.02-10.46-11.98
				c0-4.48,1.65-8.2,4.63-10.63c2.2-1.78,4.85-2.75,7.43-2.75c4.63,0,8.48,2.54,8.48,5.56c0,1.24-1.16,2.27-2.59,2.27
				c-1.21,0-2.2-0.92-2.64-2.48l-0.33-1.19c-0.55-2-1.27-2.59-3.25-2.59c-4.46,0-7.49,3.78-7.49,9.39c0,6.21,3.47,10.52,8.54,10.52
				c3.14,0,5.12-1.3,7.76-5.07L1295.69,1148.04z"/>
		</g>
		<g>
			<path d="M1311.71,1155.98v-0.81c3.19-0.32,3.75-0.97,3.75-4.7v-10.69c0-3.78-1.38-5.72-4.08-5.72c-2.2,0-3.85,0.92-6.17,3.4
				v13.01c0,3.72,0.55,4.37,3.75,4.7v0.81h-11.89v-0.81c3.19-0.43,3.52-0.92,3.52-4.7v-25.42c0-2.32-0.44-2.75-2.81-2.75
				c-0.22,0-0.5,0-0.66,0.05v-0.86l1.49-0.43c3.14-0.92,4.41-1.29,6.33-1.94l0.28,0.16v16.41c2.53-3.24,4.85-4.53,8.1-4.53
				c4.52,0,6.77,2.91,6.77,8.58v10.74c0,3.72,0.33,4.16,3.3,4.7v0.81H1311.71z"/>
		</g>
		<g>
			<path d="M1376.68,1121.28c-4.62,0.43-5.18,1.73-5.18,6.85v13.76c0,5.23-0.5,8.15-2.97,10.9c-2.31,2.59-6.06,3.94-11.12,3.94
				c-4.02,0-7.1-0.81-9.36-2.48c-3.03-2.21-4.46-5.99-4.46-11.71v-16.73c0-3.62-0.61-4.21-4.96-4.53v-1.03h15.58v1.03
				c-4.41,0.38-5.01,1.03-5.01,5.07v16.84c0,4.21,0.22,6.64,2.42,8.74c1.6,1.51,3.91,2.43,7.05,2.43c3.52,0,6.61-1.19,8.37-3.18
				c1.82-2.16,2.04-4.32,2.04-8.69v-14.19c0-5.56-0.72-6.75-5.18-7.02v-1.03h12.78V1121.28z"/>
		</g>
		<g>
			<path d="M1391.77,1155.98l0.06-0.81c2.75-0.22,3.41-1.29,3.41-4.86v-10.74c0-3.83-1.32-5.45-4.02-5.45
				c-1.82,0-3.14,0.65-5.67,3.08v14.9c0,2.1,0.77,2.86,3.58,3.08v0.81h-11.62v-0.81c2.81-0.22,3.41-1.08,3.41-4.26v-13.12
				c0-2.64-0.38-3.51-1.93-3.51c-0.61,0-1.21,0.05-1.6,0.22v-0.92c3.03-0.86,4.85-1.46,7.54-2.43l0.44,0.16v4.21h0.05
				c2.86-3.18,5.4-4.37,7.93-4.37c4.18,0,6.5,2.97,6.5,8.31v11.93c0,2.92,0.66,3.51,3.36,3.78v0.81H1391.77z"/>
		</g>
		<g>
			<path d="M1404.93,1155.98v-0.81c3.8-0.22,4.35-0.7,4.35-4.8v-12.25c0-2.54-0.44-3.4-1.82-3.4c-0.5,0-1.32,0-2.31,0.27v-0.86
				l8.54-2.97l0.22,0.22v18.94c0,3.99,0.44,4.59,4.08,4.86v0.81H1404.93z M1411.09,1124.62c-1.54,0-2.75-1.19-2.75-2.75
				c0-1.51,1.27-2.75,2.81-2.75c1.6,0,2.81,1.24,2.81,2.75C1413.96,1123.43,1412.75,1124.62,1411.09,1124.62z"/>
		</g>
		<g>
			<path d="M1434.72,1152.42c-1.82,2.81-3.91,4.1-6.66,4.1c-3.19,0-4.85-2.32-4.85-6.85v-16.25h-2.92
				c-0.17-0.11-0.22-0.22-0.22-0.38c0-0.32,0.33-0.65,0.94-1.03c1.43-0.81,3.25-2.81,5.34-5.77c0.33-0.49,0.77-0.97,1.1-1.51
				c0.28,0,0.39,0.16,0.39,0.7v6.26h5.56v1.73h-5.56v15.44c0,3.45,0.83,4.86,2.86,4.86c1.21,0,2.09-0.49,3.3-1.89L1434.72,1152.42z"
				/>
		</g>
	</g>
	<g>
		<g>
			<path d="M189.13,825.7c-13.81,7.84-23.79,18.06-29.94,30.66h-0.92c0-4.62-0.16-10.46-0.46-17.55
				c-0.31-7.08-0.77-13.54-1.39-19.39h-30.01c0.61,7.39,1.07,15.7,1.39,24.94c0.3,9.24,0.46,16.78,0.46,22.63v168.54h31.4V924.7
				c0-14.47,1.85-27.01,5.54-37.63c3.69-10.62,8.61-19.39,14.78-26.32c4.24-4.77,8.9-8.69,13.95-11.78
				c-3.18-5.73-4.99-12.32-4.99-19.32C188.94,828.32,189,827,189.13,825.7z"/>
		</g>
		<g>
			<path d="M294.72,838.35c-7.16-8.52-16.2-14.8-27.1-18.87c0.85,3.25,1.31,6.65,1.31,10.17c0,8-2.37,15.45-6.43,21.71
				c3.53,2.82,6.59,6.09,9.13,9.85c4.46,6.62,7.62,14.55,9.47,23.78c1.85,9.24,2.77,19.55,2.77,30.94v119.59h31.4V903
				C315.27,876.22,308.42,854.67,294.72,838.35z"/>
		</g>
		<g>
			<path class="st7" d="M207.7,842.83c4.42,7.09,12.28,11.82,21.23,11.82c8.46,0,15.95-4.23,20.47-10.68
				c-6.77-2.5-14.81-3.77-24.18-3.77C219.27,840.2,213.43,841.09,207.7,842.83z"/>
		</g>
		<g>
			<path class="st7" d="M249.13,814.94c-4.55-6.23-11.91-10.29-20.2-10.29c-9.55,0-17.86,5.38-22.07,13.27
				c8.47-2.68,17.21-4.04,26.21-4.04C238.73,813.88,244.07,814.25,249.13,814.94z"/>
		</g>
		<g>
			<path class="st7" d="M207.7,842.83c5.72-1.74,11.56-2.63,17.52-2.63c9.37,0,17.41,1.27,24.18,3.77c2.85-4.06,4.53-9,4.53-14.32
				c0-5.5-1.79-10.58-4.8-14.71c-5.07-0.69-10.41-1.06-16.05-1.06c-9,0-17.74,1.35-26.21,4.04c-1.87,3.5-2.93,7.5-2.93,11.73
				C203.94,834.48,205.32,839,207.7,842.83z"/>
		</g>
	</g>
	<g>
		<g>
			<path class="st8" d="M470.94,1116.15"/>
		</g>
	</g>
	<g>
		<g>
			<path class="st8" d="M172.22,870.32"/>
		</g>
	</g>
</g>
</svg>
